<?xml version="1.0" encoding="UTF-8" standalone="no"?>
<!-- Created with Inkscape (http://www.inkscape.org/) -->

<svg
   xmlns:dc="http://purl.org/dc/elements/1.1/"
   xmlns:cc="http://creativecommons.org/ns#"
   xmlns:rdf="http://www.w3.org/1999/02/22-rdf-syntax-ns#"
   xmlns:svg="http://www.w3.org/2000/svg"
   xmlns="http://www.w3.org/2000/svg"
   xmlns:sodipodi="http://sodipodi.sourceforge.net/DTD/sodipodi-0.dtd"
   xmlns:inkscape="http://www.inkscape.org/namespaces/inkscape"
   width="47.367428mm"
   height="38.968102mm"
   viewBox="0 0 47.367428 38.968102"
   version="1.1"
   id="svg8"
   inkscape:version="0.92.3 (2405546, 2018-03-11)"
   sodipodi:docname="antani_sense.svg">
  <defs
     id="defs2" />
  <sodipodi:namedview
     id="base"
     pagecolor="#ffffff"
     bordercolor="#666666"
     borderopacity="1.0"
     inkscape:pageopacity="0.0"
     inkscape:pageshadow="2"
     inkscape:zoom="1.4"
     inkscape:cx="76.878287"
     inkscape:cy="91.801298"
     inkscape:document-units="mm"
     inkscape:current-layer="layer1"
     showgrid="false"
     fit-margin-top="0"
     fit-margin-left="0"
     fit-margin-right="0"
     fit-margin-bottom="0"
     inkscape:window-width="1158"
     inkscape:window-height="1644"
     inkscape:window-x="20"
     inkscape:window-y="66"
     inkscape:window-maximized="0" />
  <metadata
     id="metadata5">
    <rdf:RDF>
      <cc:Work
         rdf:about="">
        <dc:format>image/svg+xml</dc:format>
        <dc:type
           rdf:resource="http://purl.org/dc/dcmitype/StillImage" />
        <dc:title></dc:title>
      </cc:Work>
    </rdf:RDF>
  </metadata>
  <g
     inkscape:label="Layer 1"
     inkscape:groupmode="layer"
     id="layer1"
     transform="translate(-61.001591,-13.921251)">
    <path
       style="fill:#000000;stroke-width:0.13826038"
       d="m 81.859136,52.370981 c -0.278279,-0.285146 -0.616036,-0.674 -0.750565,-0.86412 -0.134553,-0.19005 -0.201415,-0.252332 -0.148718,-0.138326 0.05277,0.113887 0.242279,0.405463 0.421172,0.647521 0.43006,0.58194 0.410687,0.64809 -0.110779,0.378414 -0.734142,-0.379624 -1.493948,-0.980878 -1.924886,-1.523124 -0.635866,-0.80013 -1.699211,-4.618037 -1.459901,-5.241689 0.04351,-0.113413 0.01898,-0.206421 -0.05481,-0.206421 -0.07369,0 -0.133889,-0.218996 -0.133889,-0.486868 0,-0.379198 -0.07301,-0.520181 -0.330403,-0.637414 -0.38274,-0.17439 -0.637416,-0.65834 -0.637416,-1.211215 0,-0.217098 -0.244656,-0.765373 -0.55732,-1.249131 -2.393508,-3.703237 -3.954617,-9.329535 -3.666441,-13.214016 0.182836,-2.464404 0.939796,-4.71762 2.09206,-6.227149 l 0.49468,-0.64809 -0.24166,-0.986689 c -0.341966,-1.396259 -1.556655,-4.792237 -1.711824,-4.785878 -0.04031,0.0017 -0.333047,0.546493 -0.650418,1.210741 -0.317368,0.664224 -0.76979,1.393933 -1.005376,1.621542 -0.23558,0.227537 -0.63482,0.849338 -0.887185,1.381643 -0.252379,0.532329 -0.682659,1.258811 -0.956202,1.614424 -0.273522,0.355659 -0.754205,1.164472 -1.068152,1.797401 -0.313964,0.632932 -0.741544,1.368525 -0.950184,1.634687 -0.208651,0.266143 -0.613945,1.106086 -0.900675,1.866521 -0.286728,0.760412 -0.733214,1.942539 -0.992203,2.626954 -0.258976,0.684366 -0.543544,1.555416 -0.63236,1.935634 -0.08886,0.380218 -0.317926,1.033502 -0.509129,1.451732 -0.23558,0.515316 -0.358479,1.050112 -0.381278,1.659125 -0.01851,0.494294 -0.111111,1.085346 -0.205709,1.313477 -0.0946,0.228012 -0.181816,0.850287 -0.193703,1.382592 -0.01186,0.532305 -0.105061,1.121482 -0.206896,1.309301 -0.188531,0.347451 -0.275246,1.588895 -0.264133,3.780965 0.005,0.972171 0.07251,1.368783 0.333488,1.959052 0.527999,1.193919 0.791726,2.37187 0.607926,2.715312 -0.126628,0.23679 -0.243899,0.276793 -0.627165,0.214487 -1.042978,-0.16917 -2.344711,-1.756095 -2.485006,-3.029261 -0.03576,-0.324484 -0.100505,-0.913661 -0.14383,-1.309253 -0.04332,-0.395593 -0.0085,-0.931029 0.07657,-1.189862 0.103708,-0.314305 0.111301,-0.586496 0.02254,-0.819657 -0.08532,-0.224453 -0.0838,-0.638955 0.0033,-1.160559 0.07521,-0.446344 0.164235,-1.24187 0.197713,-1.767914 0.03979,-0.62569 0.158849,-1.122428 0.344146,-1.436496 0.182362,-0.309062 0.255364,-0.608633 0.20495,-0.840964 -0.0833,-0.383871 0.266748,-1.931007 0.486719,-2.151379 0.07218,-0.07213 0.131184,-0.361023 0.131184,-0.641779 0,-0.280732 0.248872,-1.262916 0.553037,-2.182603 0.304181,-0.91969 0.553039,-1.73403 0.553039,-1.80967 0,-0.445086 2.261693,-4.931227 3.164865,-6.277637 0.350519,-0.522529 0.82751,-1.309635 1.059995,-1.749122 0.232472,-0.439463 0.79243,-1.247064 1.24433,-1.794672 0.451915,-0.547608 0.936726,-1.222628 1.077375,-1.500015 0.725915,-1.431849 2.403526,-3.476981 2.852135,-3.476981 0.135241,0 0.469114,-0.09325 0.742116,-0.20737 0.64688,-0.270268 0.65364,-0.269367 1.170864,0.159205 0.840137,0.696018 1.6146,2.24268 2.239519,4.472594 0.181128,0.646358 0.335312,1.188248 0.342597,1.204192 0.0066,0.01424 0.383871,-0.08636 0.836865,-0.2273 1.319371,-0.41054 2.463288,-0.47771 3.903275,-0.229198 1.617212,0.279095 3.261454,0.279712 4.975508,0.0017 1.713141,-0.277672 3.127581,-0.145681 4.475889,0.417634 0.184142,0.07687 0.281416,-0.0923 0.526444,-0.916627 0.714278,-2.402595 1.342438,-3.676947 2.231124,-4.526215 0.500191,-0.478018 0.714057,-0.514154 1.283876,-0.217098 0.21781,0.113651 0.527389,0.206659 0.687937,0.206659 0.456837,0 2.308017,2.224196 2.77622,3.335641 0.108098,0.256579 0.575634,0.902035 1.038982,1.434316 0.46333,0.532329 1.06168,1.397351 1.32964,1.922324 0.26796,0.524926 0.67227,1.18813 0.89848,1.47375 0.36502,0.460864 1.04883,1.679316 2.01253,3.586098 0.51166,1.01234 1.43687,3.166496 1.44011,3.352986 0.002,0.09491 0.21942,0.789667 0.48392,1.543791 0.26449,0.754147 0.4809,1.612099 0.4809,1.906592 0,0.294494 0.13322,0.796713 0.29619,1.116025 0.19593,0.384014 0.3084,0.891762 0.33224,1.49973 0.0238,0.607162 0.12174,1.050042 0.28865,1.304698 0.16813,0.256579 0.25781,0.666431 0.26817,1.225381 0.009,0.461932 0.0929,1.115384 0.18756,1.452111 0.0946,0.336727 0.13725,0.896697 0.0948,1.244338 -0.0976,0.798991 -0.0978,0.736163 0.002,1.838948 0.046,0.511687 0.0391,1.040527 -0.0152,1.175223 -0.0545,0.134766 -0.12259,0.517191 -0.15125,0.850026 -0.0659,0.764184 -0.57928,1.647404 -1.33216,2.291817 -0.65608,0.561583 -1.15022,0.738085 -1.47781,0.527844 -0.35269,-0.226351 -0.26543,-1.343064 0.18659,-2.387862 0.24768,-0.572497 0.42283,-1.276653 0.4825,-1.940047 0.0516,-0.572734 0.14215,-1.119868 0.20154,-1.215818 0.0595,-0.09633 0.0283,-0.270245 -0.0696,-0.388214 -0.10926,-0.131682 -0.18284,-0.646809 -0.19159,-1.341972 -0.009,-0.655493 -0.0917,-1.269773 -0.19926,-1.465944 -0.10639,-0.194083 -0.18253,-0.74423 -0.17909,-1.293452 0.003,-0.525637 -0.0815,-1.164949 -0.18829,-1.420673 -0.10691,-0.255725 -0.19427,-0.797449 -0.19427,-1.203861 0,-0.452963 -0.10573,-0.957721 -0.27319,-1.304342 -0.15024,-0.311007 -0.43237,-1.115953 -0.62691,-1.78879 -0.19454,-0.672835 -0.53365,-1.689967 -0.75357,-2.260282 -0.21995,-0.570338 -0.59589,-1.565811 -0.83545,-2.212167 -0.23957,-0.646382 -0.64332,-1.493015 -0.89724,-1.881442 -0.25391,-0.388427 -0.67825,-1.136288 -0.94296,-1.661949 -0.26471,-0.525638 -0.78323,-1.394384 -1.152283,-1.930535 -0.369035,-0.536149 -0.82653,-1.312573 -1.016636,-1.725415 -0.190097,-0.412841 -0.516802,-0.896198 -0.726013,-1.074124 -0.209197,-0.177948 -0.671565,-0.910125 -1.027499,-1.627094 -0.355933,-0.716992 -0.693417,-1.255798 -0.749958,-1.197383 -0.200536,0.207133 -0.985123,2.340741 -1.432467,3.895327 l -0.453768,1.576889 0.477157,0.625146 c 1.204689,1.578194 1.9162,3.641786 2.105514,6.106664 0.314991,4.100656 -1.03623,9.26865 -3.431782,13.125468 -0.411864,0.663133 -0.774711,1.436452 -0.841352,1.793157 -0.07016,0.375425 -0.23997,0.726648 -0.423027,0.874892 -0.204499,0.165611 -0.329054,0.453342 -0.375814,0.868343 -0.03844,0.341378 -0.108597,0.621185 -0.155646,0.621754 -0.04722,5.22e-4 -0.09595,0.296178 -0.108597,0.656845 -0.02866,0.824355 -0.50859,2.723735 -0.92752,3.670993 -0.409353,0.925619 -0.921787,1.476502 -1.944984,2.090876 -0.965865,0.579948 -1.382875,0.659977 -0.949239,0.18222 0.155313,-0.171068 0.388628,-0.497735 0.518555,-0.725842 0.234252,-0.411323 0.234109,-0.411916 -0.01685,-0.07023 -0.138777,0.189337 -0.46193,0.578263 -0.71792,0.86412 -0.428779,0.478801 -0.524052,0.519729 -1.20978,0.519729 -0.409387,0 -0.744344,-0.06098 -0.744344,-0.135478 0,-0.0745 0.244642,-0.260256 0.543663,-0.412818 0.299006,-0.152562 0.590928,-0.355993 0.648716,-0.452156 0.08432,-0.140224 0.0624,-0.140224 -0.111301,4.27e-4 -0.220989,0.178898 -0.666236,0.09989 -0.666236,-0.118158 0,-0.06644 0.15548,-0.159917 0.345646,-0.207608 0.41281,-0.103447 0.460446,-0.33331 0.06914,-0.33331 -0.333624,0 -0.348007,-0.106532 -0.05768,-0.427433 0.201415,-0.222555 0.193941,-0.255179 -0.09358,-0.409046 l -0.312376,-0.167034 0.396873,-0.207845 0.396876,-0.207844 -0.323945,-0.262321 c -0.314585,-0.254728 -0.316355,-0.26792 -0.06138,-0.456878 0.257084,-0.190524 0.256797,-0.199065 -0.01352,-0.407883 -0.238722,-0.184118 -0.248165,-0.232282 -0.06914,-0.351959 0.114148,-0.07616 0.268891,-0.160154 0.34403,-0.186491 0.08499,-0.02966 0.07099,-0.191947 -0.03711,-0.429284 -0.156477,-0.343489 -0.146037,-0.388759 0.105393,-0.454481 0.15344,-0.0401 0.27914,-0.154697 0.27914,-0.254966 0,-0.09989 0.121243,-0.220419 0.269463,-0.267469 0.154957,-0.04935 0.23852,-0.166085 0.196669,-0.275228 -0.04012,-0.104396 0.05633,-0.258808 0.214464,-0.343441 0.338751,-0.181271 0.368748,-0.359647 0.07908,-0.470782 -0.114504,-0.04389 -0.876595,-0.15185 -1.693682,-0.239567 -1.230268,-0.132156 -1.730699,-0.123615 -2.911561,0.05078 -0.78429,0.115786 -1.467742,0.252284 -1.518802,0.303344 -0.05108,0.05101 0.05514,0.204523 0.236055,0.34095 0.180892,0.136428 0.287943,0.314377 0.23788,0.395379 -0.05009,0.08091 0.03424,0.186965 0.187511,0.235604 0.153273,0.04864 0.278533,0.177475 0.278533,0.286475 0,0.108904 0.124446,0.198116 0.276511,0.198116 0.319796,0 0.333254,0.0503 0.11989,0.449191 -0.132204,0.247135 -0.105725,0.333903 0.16993,0.557194 0.322481,0.261134 0.323153,0.267042 0.05296,0.467151 -0.272513,0.201913 -0.272513,0.203574 0.0033,0.408452 0.273814,0.203811 0.27324,0.208319 -0.05768,0.458824 l -0.334214,0.253091 0.393184,0.205946 0.393165,0.205947 -0.312395,0.167034 c -0.287471,0.153748 -0.294926,0.186491 -0.09358,0.409022 0.290337,0.32083 0.275954,0.427457 -0.05768,0.427457 -0.39131,0 -0.343655,0.229673 0.06914,0.33331 0.190121,0.04769 0.345648,0.143546 0.345648,0.213065 0,0.185541 -0.5383,0.324697 -0.739015,0.190998 -0.09493,-0.06335 -0.05395,-0.0071 0.09106,0.1267 0.145016,0.133106 0.33467,0.243315 0.421309,0.245024 0.08667,0.0016 0.313051,0.124801 0.503159,0.273448 l 0.345646,0.270364 -0.880389,0.0024 c -0.836918,0.0024 -0.905379,-0.02373 -1.386365,-0.515411 z"
       id="path1033"
       inkscape:connector-curvature="0" />
  </g>
</svg>
