<?xml version="1.0" encoding="UTF-8" standalone="no"?>
<!-- Created with Inkscape (http://www.inkscape.org/) -->

<svg
   xmlns:dc="http://purl.org/dc/elements/1.1/"
   xmlns:cc="http://creativecommons.org/ns#"
   xmlns:rdf="http://www.w3.org/1999/02/22-rdf-syntax-ns#"
   xmlns:svg="http://www.w3.org/2000/svg"
   xmlns="http://www.w3.org/2000/svg"
   xmlns:sodipodi="http://sodipodi.sourceforge.net/DTD/sodipodi-0.dtd"
   xmlns:inkscape="http://www.inkscape.org/namespaces/inkscape"
   width="44.668324mm"
   height="41.873459mm"
   viewBox="0 0 44.668324 41.873459"
   version="1.1"
   id="svg8"
   inkscape:version="0.92.3 (2405546, 2018-03-11)"
   sodipodi:docname="antani_logo.svg">
  <defs
     id="defs2" />
  <sodipodi:namedview
     id="base"
     pagecolor="#ffffff"
     bordercolor="#666666"
     borderopacity="1.0"
     inkscape:pageopacity="0.0"
     inkscape:pageshadow="2"
     inkscape:zoom="1.4"
     inkscape:cx="57.526311"
     inkscape:cy="28.259851"
     inkscape:document-units="mm"
     inkscape:current-layer="layer1"
     showgrid="false"
     fit-margin-top="0"
     fit-margin-left="0"
     fit-margin-right="0"
     fit-margin-bottom="0"
     inkscape:window-width="1158"
     inkscape:window-height="1023"
     inkscape:window-x="67"
     inkscape:window-y="27"
     inkscape:window-maximized="0" />
  <metadata
     id="metadata5">
    <rdf:RDF>
      <cc:Work
         rdf:about="">
        <dc:format>image/svg+xml</dc:format>
        <dc:type
           rdf:resource="http://purl.org/dc/dcmitype/StillImage" />
        <dc:title></dc:title>
      </cc:Work>
    </rdf:RDF>
  </metadata>
  <g
     inkscape:label="Layer 1"
     inkscape:groupmode="layer"
     id="layer1"
     transform="translate(-46.948393,5.7961153)">
    <circle
       style="opacity:1;fill:#6e3b54;fill-opacity:1;stroke:none;stroke-width:0.16419084;stroke-miterlimit:4;stroke-dasharray:none;stroke-dashoffset:0;stroke-opacity:1"
       id="path944-5"
       cx="69.224335"
       cy="-4.0159473"
       r="1.7801679" />
    <path
       style="fill:none;stroke:#920043;stroke-width:0.23056571px;stroke-linecap:butt;stroke-linejoin:miter;stroke-opacity:1"
       d="m 69.340785,-4.248855 -20.96159,29.695584 21.89322,9.083358 19.913499,-19.331246 -20.961579,-19.447696 -20.96159,9.549167 22.00967,3.842959 19.913499,6.05557 -20.146408,6.637836 -21.776761,3.377145 22.00967,-16.070551"
       id="path938"
       inkscape:connector-curvature="0"
       sodipodi:nodetypes="ccccccccccc" />
    <circle
       style="opacity:1;fill:#6e3b54;fill-opacity:1;stroke:none;stroke-width:0.16419084;stroke-miterlimit:4;stroke-dasharray:none;stroke-dashoffset:0;stroke-opacity:1"
       id="path944-2"
       cx="49.427277"
       cy="25.097364"
       r="1.7801679" />
    <circle
       style="opacity:1;fill:#6e3b54;fill-opacity:1;stroke:none;stroke-width:0.16419084;stroke-miterlimit:4;stroke-dasharray:none;stroke-dashoffset:0;stroke-opacity:1"
       id="path944-9"
       cx="70.039497"
       cy="9.4926291"
       r="1.7801679" />
    <circle
       style="opacity:1;fill:#6e3b54;fill-opacity:1;stroke:none;stroke-width:0.16419084;stroke-miterlimit:4;stroke-dasharray:none;stroke-dashoffset:0;stroke-opacity:1"
       id="path944-0"
       cx="89.836548"
       cy="15.431745"
       r="1.7801679" />
    <path
       style="fill:none;stroke:#920043;stroke-width:0.23056571px;stroke-linecap:butt;stroke-linejoin:miter;stroke-opacity:1"
       d="M 70.039506,21.836677 48.262745,5.300312 70.272415,34.530087"
       id="path997"
       inkscape:connector-curvature="0" />
    <circle
       style="opacity:1;fill:#6e3b54;fill-opacity:1;stroke:none;stroke-width:0.16419084;stroke-miterlimit:4;stroke-dasharray:none;stroke-dashoffset:0;stroke-opacity:1"
       id="path944-27"
       cx="69.5737"
       cy="34.297176"
       r="1.7801679" />
    <circle
       style="opacity:1;fill:#6e3b54;fill-opacity:1;stroke:none;stroke-width:0.16419084;stroke-miterlimit:4;stroke-dasharray:none;stroke-dashoffset:0;stroke-opacity:1"
       id="path944-1"
       cx="69.34079"
       cy="21.953135"
       r="1.7801679" />
    <path
       style="fill:#00008a;fill-opacity:1;stroke:#0000c6;stroke-width:0.04070708;stroke-opacity:1"
       d="m 53.393875,9.498157 c -0.0379,-0.07652 0.0201,-0.09014 0.44714,-0.104972 0.35824,-0.01241 0.4928,-0.03863 0.68647,-0.133588 0.33356,-0.163537 0.70325,-0.540028 0.92829,-0.945353 0.0985,-0.17747 0.17596,-0.329106 0.17208,-0.336964 -0.004,-0.0077 -0.0813,-0.02192 -0.17225,-0.03049 -0.24558,-0.02401 -0.4858,-0.114103 -0.58886,-0.220895 -0.0576,-0.05958 -0.10124,-0.181641 -0.11796,-0.329791 -0.0922,-0.815863 0.37322,-1.779415 1.10521,-2.288319 0.42669,-0.296651 1.11649,-0.476692 1.59671,-0.416739 0.2478,0.03093 0.24828,0.03073 0.37686,-0.137247 0.16257,-0.212402 0.44971,-0.495589 0.51874,-0.51162 0.12565,-0.02917 0.35089,0.663476 0.50666,1.557997 0.0193,0.110786 0.0539,0.150476 0.18578,0.213376 0.0891,0.04248 0.18206,0.09119 0.20652,0.108092 0.0324,0.02247 0.072,-0.04125 0.14654,-0.235449 0.0701,-0.182591 0.14565,-0.308174 0.24071,-0.399613 0.25002,-0.240488 0.63861,-0.301113 0.95801,-0.149446 l 0.17227,0.08179 0.15251,-0.144269 c 0.20436,-0.193311 0.54164,-0.355101 0.80448,-0.385907 0.26386,-0.03092 0.6874,0.07084 0.90104,0.216494 0.14424,0.09834 0.16475,0.101493 0.34642,0.05333 0.15992,-0.0424 0.21665,-0.03819 0.32997,0.02453 0.14198,0.07858 0.16758,0.08764 0.82625,0.292582 0.48235,0.150003 0.64525,0.281188 0.8284,0.666624 0.12264,0.258103 0.26537,0.845035 0.28252,1.161824 l 0.01,0.180189 -0.16261,0.09045 c -0.4933,0.27438 -0.81029,0.40658 -0.90279,0.376519 -0.2253,-0.07327 -0.62543,-0.388925 -0.82452,-0.650548 -0.17886,-0.235026 -0.25353,-0.39489 -0.44197,-0.946291 -0.0251,-0.07348 -0.0695,-0.141607 -0.0987,-0.151455 -0.0477,-0.01601 -0.57339,0.366324 -0.59637,0.433801 -0.005,0.01519 0.0298,0.287939 0.0778,0.606001 0.048,0.318066 0.0797,0.714559 0.0706,0.881093 -0.029,0.526578 10e-4,0.701301 0.14397,0.83413 0.07,0.06503 0.2115,0.171479 0.31452,0.236492 0.14582,0.09202 0.16109,0.110166 0.069,0.08192 -0.15296,-0.04696 -0.51847,-0.286502 -0.605,-0.396619 -0.0883,-0.112404 -0.12572,-0.383107 -0.0958,-0.693314 0.016,-0.166321 -0.002,-0.315353 -0.0539,-0.444418 -0.0429,-0.106818 -0.10535,-0.35898 -0.13868,-0.560386 l -0.0606,-0.366194 -0.2289,0.1134 c -0.13535,0.06705 -0.26485,0.101526 -0.31689,0.08437 -0.12341,-0.04071 -0.188,-0.01712 -0.26007,0.09498 -0.0685,0.106524 -0.20609,0.117254 -0.34646,0.02701 -0.0717,-0.04612 -0.0775,-0.08683 -0.039,-0.27558 0.0249,-0.121795 0.0299,-0.226626 0.0113,-0.232908 -0.0186,-0.0062 -0.14226,0.02375 -0.27474,0.06672 -0.23712,0.07693 -0.24261,0.08198 -0.35027,0.322182 -0.0601,0.134241 -0.20372,0.444189 -0.31904,0.688833 -0.11531,0.244637 -0.38268,0.918101 -0.59411,1.496591 -0.37933,1.03783 -0.38405,1.054428 -0.35536,1.249177 0.0188,0.127447 0.0639,0.225882 0.12737,0.277877 0.089,0.07283 0.10393,0.235423 0.0191,0.206789 -0.0616,-0.02078 -0.229201,-0.270315 -0.273271,-0.406826 -0.0429,-0.132967 -0.0303,-0.17711 0.54568,-1.91027 0.324251,-0.975796 0.57575,-1.778335 0.558811,-1.783444 -0.133851,-0.0405 -0.31023,0.0071 -0.362321,0.09744 -0.0771,0.133849 -0.40191,0.232737 -0.630429,0.191964 -0.138831,-0.02474 -0.209691,-0.06334 -0.325601,-0.177091 -0.0815,-0.07998 -0.15513,-0.140758 -0.163649,-0.135073 -0.008,0.0054 -0.0897,0.09783 -0.180371,0.204671 -0.45836,0.540162 -1.35176,1.018526 -2.1028,1.125944 l -0.25238,0.03609 -0.16905,0.27889 c -0.43801,0.722606 -0.63139,0.919465 -1.11073,1.130678 -0.19339,0.08521 -0.37613,0.122399 -0.67804,0.137932 -0.44766,0.02307 -0.44869,0.023 -0.47384,-0.02776 z m 5.02044,-4.395885 c 0.003,-0.0088 -0.002,-0.109415 -0.0111,-0.223489 -0.0195,-0.244108 -0.0844,-0.478206 -0.13764,-0.496169 -0.0382,-0.01291 -0.35077,0.293689 -0.37728,0.369977 -0.008,0.02277 0.0851,0.10445 0.20683,0.181557 0.25121,0.159264 0.31146,0.191023 0.31919,0.168119 z m 5.69933,1.545726 c 0.25482,-0.126238 -4.49e-4,-0.627364 -0.31353,-0.615491 -0.28306,0.01078 -0.20031,0.49367 0.10208,0.595704 0.0822,0.02775 0.1774,0.03665 0.21145,0.01976 z m -14.49518,0.648871 c 0.12206,-0.0116 0.42566,-0.05192 0.67467,-0.08962 l 0.45275,-0.06855 0.91497,-0.583621 c 0.78673,-0.501815 0.92658,-0.606226 0.99778,-0.744943 0.0456,-0.0887 0.13647,-0.195016 0.20205,-0.236193 0.0656,-0.04114 0.6344,-0.437052 1.26406,-0.879718 0.62966,-0.442659 1.2002,-0.819264 1.26788,-0.836896 0.17891,-0.04661 0.4925,0.04334 0.73163,0.209839 0.25543,0.177907 0.53168,0.456313 0.47467,0.478399 -0.0237,0.0092 -0.12178,0.04152 -0.21798,0.07193 l -0.1749,0.05526 -0.17967,-0.193232 C 55.897605,4.341037 55.777625,4.25662 55.602815,4.18157 l -0.24392,-0.104679 -0.29644,0.157434 c -0.32315,0.171633 -0.89727,0.642658 -1.62013,1.329199 -0.38882,0.36929 -0.48736,0.442577 -0.61586,0.458013 -0.093,0.0111 -0.30725,0.119999 -0.54622,0.277411 -0.21628,0.142473 -0.63559,0.417671 -0.9318,0.611559 l -0.53854,0.352515 -0.49581,0.07925 c -0.37134,0.05935 -0.54875,0.06625 -0.70668,0.02748 l -0.21085,-0.05181 z m 17.79456,3.447719 c -0.19648,-0.767881 -0.98377,-2.241939 -1.7311,-3.241127 -0.13063,-0.174669 -0.22911,-0.342472 -0.21885,-0.37289 0.0103,-0.03043 0.0316,-0.05068 0.0474,-0.04506 0.0514,0.01826 0.72436,0.975186 0.9646,1.371391 0.74095,1.222008 1.32352,2.668919 1.03353,2.566975 -0.0147,-0.0051 -0.0576,-0.13081 -0.0956,-0.279299 z m -2.67492,-2.42038 c -0.12701,-0.18384 -0.23101,-0.348656 -0.23115,-0.366235 -1.1e-4,-0.01754 0.0727,-0.0723 0.1618,-0.1216 l 0.16204,-0.08962 0.0811,0.151015 c 0.11835,0.220449 0.19187,0.552374 0.14992,0.676728 -0.0201,0.05954 -0.0492,0.102719 -0.0647,0.09606 -0.0154,-0.0071 -0.13205,-0.162514 -0.25904,-0.346355 z m 0.45841,-0.14899 c 0.0111,-0.03299 -0.0152,-0.164507 -0.0584,-0.292206 -0.0855,-0.252357 -0.0582,-0.315803 0.14895,-0.345723 0.0888,-0.01291 0.11535,-0.0017 0.1468,0.06178 0.0485,0.09785 -0.0983,0.557288 -0.19301,0.604227 -0.0516,0.02552 -0.0604,0.01994 -0.0442,-0.02802 z M 68.911546,8.051349 C 68.517356,7.732811 67.927825,7.353379 67.453736,7.113067 66.999715,6.882923 65.784045,6.483818 65.524665,6.479749 c -0.10414,-0.0017 -0.13635,-0.01552 -0.13816,-0.05921 -0.003,-0.07796 0.0966,-0.06744 0.68872,0.07258 0.88009,0.208135 1.93168,0.728648 2.78256,1.377299 0.41399,0.315605 0.44394,0.346148 0.370921,0.37838 -0.0267,0.01176 -0.164211,-0.07381 -0.317171,-0.197449 z M 60.137105,4.520034 c 0.14656,-0.18684 0.35619,-0.454432 0.46583,-0.594655 0.10964,-0.140219 0.22322,-0.27106 0.2524,-0.290753 0.0742,-0.05009 0.19975,3.71e-4 0.20308,0.08162 0.002,0.05571 -0.50697,1.094351 -0.54219,1.105801 -0.006,0.0019 -0.0624,-0.0011 -0.12547,-0.0069 l -0.11466,-0.01029 0.0985,-0.300546 c 0.10652,-0.32491 0.081,-0.321256 -0.1545,0.02223 -0.0724,0.105543 -0.18061,0.223679 -0.24053,0.262532 -0.0854,0.05534 -0.0512,-0.003 0.15753,-0.269059 z"
       id="path832"
       inkscape:connector-curvature="0" />
    <circle
       style="opacity:1;fill:#6e3b54;fill-opacity:1;stroke:none;stroke-width:0.16419084;stroke-miterlimit:4;stroke-dasharray:none;stroke-dashoffset:0;stroke-opacity:1"
       id="path944"
       cx="48.728561"
       cy="5.1838598"
       r="1.7801679" />
    <path
       style="fill:#00008a;fill-opacity:1;stroke:#0000c6;stroke-width:0.02075469;stroke-opacity:1"
       d="m 63.422815,14.155619 c 0.19369,0.311058 0.27361,0.646931 0.2576,1.08249 -0.0202,0.548766 -0.2383,1.157967 -0.57552,1.604025 -0.17598,0.233156 -0.47376,0.487775 -0.68626,0.586787 -0.36507,0.170083 -0.7141,0.177267 -1.1267,0.02307 -0.20421,-0.07622 -0.32368,-0.143466 -0.53749,-0.302158 l -0.16017,-0.118988 0.0549,0.132059 c 0.0695,0.166884 0.12685,0.511643 0.11479,0.689746 -0.0314,0.462375 -0.22148,0.867089 -0.55432,1.179428 -0.48386,0.454339 -0.9981,0.492149 -1.59246,0.117525 l -0.11659,-0.07359 0.0901,0.161088 c 0.34785,0.621916 0.24059,1.178356 -0.30527,1.585972 -0.16648,0.124179 -0.41536,0.252235 -0.58855,0.302802 -0.0596,0.01738 -0.1085,0.03737 -0.10864,0.0442 -4.23e-4,0.0077 0.14812,0.137049 0.3297,0.288899 0.34959,0.292589 0.37272,0.320432 0.36285,0.436838 -0.003,0.03599 -0.0822,0.387561 -0.17442,0.781285 -0.13452,0.570005 -0.17915,0.725231 -0.21925,0.762691 -0.12277,0.114892 -0.27483,0.0808 -0.32654,-0.07294 -0.0108,-0.03187 0.0426,-0.314806 0.139,-0.73288 0.13224,-0.576855 0.15085,-0.686488 0.12186,-0.717505 -0.0381,-0.04069 -0.69113,-0.589549 -0.70045,-0.588676 -0.004,2.59e-4 -0.0548,0.0236 -0.11448,0.05161 -0.26044,0.122661 -0.53202,0.169408 -0.89948,0.154911 -0.15033,-0.0044 -0.2792,-0.01831 -0.28687,-0.02691 -0.009,-0.0087 0.0786,-0.101605 0.2285,-0.241837 0.13336,-0.124835 0.23766,-0.231896 0.2317,-0.238051 -0.006,-0.0064 -0.056,-0.03931 -0.11117,-0.07358 -0.12849,-0.07998 -0.29741,-0.260557 -0.3686,-0.394103 -0.0306,-0.05747 -0.0603,-0.109574 -0.066,-0.115863 -0.006,-0.0064 -0.11956,0.09055 -0.25299,0.215298 -0.14981,0.140085 -0.24789,0.221087 -0.25655,0.211827 -0.008,-0.0087 -0.0106,-0.137856 -0.006,-0.288059 0.0102,-0.367599 0.0749,-0.635456 0.214591,-0.887156 0.032,-0.05775 0.0587,-0.107471 0.0592,-0.110541 0.002,-0.0095 -0.502391,-0.697383 -0.540361,-0.737973 -0.0287,-0.03066 -0.14209,-0.0194 -0.72508,0.07329 -0.41372,0.06564 -0.71105,0.101403 -0.74083,0.08899 -0.083,-0.03419 -0.10811,-0.07818 -0.104659,-0.182403 0.006,-0.176336 0.0154,-0.179828 0.830299,-0.315526 0.39894,-0.06644 0.75498,-0.121274 0.791191,-0.121913 0.1167,-0.0012 0.142999,0.02321 0.41163,0.39122 0.1395,0.191254 0.259299,0.348022 0.266229,0.348263 0.007,2.91e-4 0.03,-0.0472 0.0514,-0.105516 0.062,-0.169497 0.206401,-0.409176 0.34144,-0.567003 0.44308,-0.51784 1.00545,-0.587708 1.602761,-0.199107 l 0.15469,0.10078 -0.0656,-0.121291 c -0.263691,-0.487791 -0.27095,-0.906245 -0.0226,-1.303662 0.10705,-0.171289 0.37736,-0.416692 0.57831,-0.525026 0.2771,-0.149408 0.57672,-0.226426 0.88174,-0.226663 0.17838,-2.91e-4 0.51854,0.08003 0.68021,0.160467 l 0.1278,0.06346 -0.0812,-0.122772 c -0.32531,-0.491076 -0.43673,-1.065938 -0.28938,-1.492892 0.0958,-0.277505 0.16511,-0.377166 0.44229,-0.635631 0.22516,-0.210147 0.26931,-0.243435 0.43791,-0.331579 0.8672,-0.453383 1.84875,-0.49362 2.46747,-0.101147 0.15959,0.101312 0.34236,0.282776 0.43585,0.432925 z m -2.92304,-2.978084 c 0.0133,0.05403 0.0106,0.12376 -0.006,0.167706 -0.0155,0.04155 -0.33599,0.580874 -0.711341,1.198936 -0.375349,0.618058 -0.70821,1.166666 -0.739699,1.219139 l -0.0573,0.0953 0.0836,0.476742 c 0.0727,0.414394 0.0801,0.4992 0.0566,0.6483 -0.037,0.237406 -0.0399,0.516313 -0.006,0.684296 0.0155,0.07777 0.0255,0.144143 0.0219,0.147471 -0.003,0.0037 -0.0688,0.01006 -0.14507,0.01554 -0.0763,0.0055 -0.143199,0.01006 -0.14888,0.01115 -0.006,5.29e-4 -0.0681,-0.118039 -0.13886,-0.264483 L 58.580174,15.31125 58.452663,14.539015 c -0.0961,-0.582248 -0.121909,-0.794299 -0.104799,-0.86197 0.0155,-0.0605 0.20534,-0.382091 0.585989,-0.991503 0.309801,-0.495973 0.67527,-1.082694 0.812171,-1.303819 l 0.248899,-0.402046 0.088,-0.03589 c 0.182259,-0.07439 0.36663,0.02775 0.416839,0.234103 z m 5.53313,5.936249 c 0.0328,0.08625 -0.0187,0.259068 -0.0997,0.334847 -0.0277,0.02594 -2.02674,1.062644 -2.77104,1.437104 -0.0189,0.0099 -0.40022,-0.06822 -0.84724,-0.172806 l -0.81276,-0.190213 -0.21407,-0.143193 -0.21405,-0.143191 0.0131,-0.136063 c 0.007,-0.0749 0.0211,-0.143814 0.0303,-0.152991 0.01,-0.01079 0.066,-0.0025 0.12592,0.01554 0.18376,0.05603 0.45774,0.08577 0.66469,0.07242 0.17143,-0.01134 0.25592,0.0016 0.64633,0.09696 0.24702,0.06031 0.45901,0.110781 0.47114,0.111879 0.0119,0.0011 0.60236,-0.298773 1.31165,-0.666706 1.25568,-0.651337 1.29217,-0.668732 1.38664,-0.66172 0.1365,0.0106 0.27054,0.09568 0.3093,0.197656 z m -2.3811,3.434818 c 0.026,0.08591 0.0287,0.144673 0.009,0.198849 -0.0526,0.147233 -0.0948,0.161071 -0.92078,0.302197 -0.41978,0.07162 -0.80365,0.132389 -0.85298,0.134765 -0.18069,0.0087 -0.17652,0.01408 -0.7941,-0.998844 l -0.55191,-0.905092 0.0852,-0.07978 c 0.0468,-0.04383 0.13641,-0.159717 0.19914,-0.257329 0.0626,-0.09767 0.11581,-0.179351 0.11806,-0.181453 0.0221,-0.0207 0.20464,0.251912 0.59356,0.886341 0.2544,0.414997 0.47,0.769253 0.47912,0.787253 0.0124,0.02461 0.16836,0.01627 0.63004,-0.03445 0.337411,-0.03691 0.64393,-0.07287 0.68115,-0.0798 0.0843,-0.01572 0.20616,0.01645 0.25237,0.06734 0.0192,0.02163 0.0516,0.09317 0.0718,0.160285 z m -6.68371,-7.172106 c 0.009,0.04122 0.0101,0.101037 0.004,0.132974 -0.006,0.03197 -0.0635,0.33569 -0.12528,0.675233 -0.0876,0.477302 -0.10639,0.621278 -0.0811,0.635726 0.0179,0.0097 0.35376,0.242682 0.74618,0.516487 0.64096,0.447205 0.81983,0.585159 0.81829,0.631146 -3.18e-4,0.0077 -0.0595,0.04325 -0.13151,0.07831 -0.0721,0.03504 -0.19539,0.111493 -0.27403,0.169881 -0.0786,0.0584 -0.14646,0.105827 -0.15072,0.105571 -0.0192,-0.0017 -1.70008,-1.195558 -1.73317,-1.230946 -0.0649,-0.06937 -0.0874,-0.185046 -0.0541,-0.277192 0.0166,-0.04768 0.10835,-0.413544 0.20265,-0.813293 0.15502,-0.657547 0.17741,-0.732551 0.23525,-0.786561 0.0917,-0.08553 0.19456,-0.09985 0.33135,-0.04578 0.13741,0.05433 0.19196,0.107947 0.21283,0.208559 z m 0.25774,3.594368 c -0.005,0.01718 -0.029,0.08508 -0.0541,0.15023 -0.025,0.06517 -0.0642,0.193846 -0.087,0.28614 -0.0294,0.118457 -0.0508,0.168363 -0.0738,0.169789 -0.0463,0.0028 -0.19049,-0.09409 -0.26259,-0.17639 -0.0823,-0.09374 -0.88674,-0.79952 -0.91329,-0.801076 -0.0119,-7.67e-4 -0.44301,0.162387 -0.95887,0.362289 -0.62865,0.243642 -0.9641,0.363231 -1.01731,0.362667 -0.23938,-0.0025 -0.37976,-0.317591 -0.22323,-0.500982 0.0556,-0.06519 0.16049,-0.11056 1.14004,-0.492488 0.59332,-0.231383 1.1032,-0.425169 1.13306,-0.430629 0.12275,-0.02252 0.1884,0.02228 0.70434,0.489562 0.26772,0.241944 0.51697,0.464485 0.55391,0.494519 0.0468,0.03811 0.0646,0.06428 0.0587,0.08654 z m 3.05753,3.389153 c 0.27865,0.355256 0.43236,0.565176 0.44779,0.611528 0.013,0.03894 0.0141,0.104966 0.002,0.146902 -0.0341,0.124016 -0.98994,2.147822 -1.03296,2.188052 -0.10632,0.09941 -0.33452,0.08587 -0.43914,-0.0259 -0.0605,-0.06464 -0.0915,-0.174141 -0.072,-0.254093 0.008,-0.03437 0.20594,-0.480943 0.43899,-0.992555 0.23309,-0.511622 0.4237,-0.933688 0.42356,-0.937951 -4.23e-4,-0.02312 -0.68038,-0.894086 -0.7869,-1.00835 -0.17692,-0.189625 -0.17562,-0.198676 0.0317,-0.233226 0.0939,-0.01554 0.24224,-0.04952 0.32963,-0.07509 0.141,-0.0413 0.16308,-0.04164 0.19596,-0.0034 0.0204,0.02373 0.22796,0.286596 0.46134,0.584102 z"
       id="path845"
       inkscape:connector-curvature="0" />
    <path
       style="fill:#00008a;fill-opacity:1;stroke:#0000c6;stroke-width:0.03472131;stroke-opacity:1"
       d="m 62.684605,34.388278 c 0.001,-0.0859 -0.1534,-0.226701 -0.38444,-0.349811 -0.12727,-0.0677 -0.2479,-0.14006 -0.26804,-0.160488 -0.0201,-0.02069 -0.0199,-0.499261 5.56e-4,-1.064062 0.0281,-0.776624 0.0515,-1.055267 0.0961,-1.143458 0.1148,-0.227303 -0.10441,-0.448519 -0.32194,-0.324858 -0.0687,0.03911 -0.22401,0.05215 -0.50588,0.04293 -0.22368,-0.0079 -0.42198,-0.01876 -0.44067,-0.02543 -0.0187,-0.0064 -0.0359,-0.113199 -0.0384,-0.237035 l -0.004,-0.225078 0.21671,-0.08665 c 0.2802,-0.112085 0.45709,-0.283205 0.49211,-0.476041 l 0.0257,-0.141499 0.0898,0.156763 c 0.11194,0.195252 0.28143,0.43906 0.3699,0.53205 0.0369,0.0388 0.0712,0.08252 0.0763,0.09698 0.0324,0.09413 0.38222,0.450302 0.5936,0.604488 0.33351,0.243364 0.74368,0.401524 0.87638,0.338138 0.26672,-0.127511 0.70384,-1.10794 0.69499,-1.558862 -0.006,-0.30575 -0.22711,-0.76473 -0.51314,-1.065202 l -0.20661,-0.21703 0.14387,-0.129891 c 0.33508,-0.302411 0.80414,-0.43887 1.12419,-0.327039 0.22922,0.07997 0.45204,0.282443 0.53859,0.489128 0.11439,0.273182 0.11008,0.403362 -0.0254,0.767236 -0.10302,0.277418 -0.11264,0.328057 -0.0759,0.404847 0.0676,0.141022 0.18283,0.198575 0.29212,0.14611 0.12876,-0.06169 0.25269,-0.416358 0.23113,-0.661087 -0.0248,-0.280663 -0.15313,-0.672243 -0.28541,-0.870564 -0.24692,-0.370189 -0.67135,-0.595027 -1.04609,-0.554117 -0.24567,0.0268 -0.72635,0.259114 -0.92613,0.447609 l -0.15627,0.147378 -0.41351,-0.145473 c -0.37671,-0.132438 -0.4321,-0.143727 -0.6235,-0.124013 -0.2281,0.02336 -0.51083,0.157718 -0.64501,0.306371 -0.0988,0.109541 -0.23474,0.472935 -0.23109,0.617869 0.004,0.138639 -0.0193,0.137525 -0.12594,-0.0064 -0.48233,-0.652751 -1.77849,-1.051825 -2.47244,-0.761212 l -0.1794,0.07505 -0.0493,-0.09205 c -0.14221,-0.265311 -0.44836,-0.415375 -0.75303,-0.369224 l -0.17753,0.02693 0.0197,-0.183652 c 0.0321,-0.299654 -0.0193,-0.549818 -0.18097,-0.880158 -0.29919,-0.611251 -0.81829,-1.040405 -1.58597,-1.311169 -0.61337,-0.216265 -1.21466,-0.240911 -1.63857,-0.067 -0.40403,0.165769 -0.96413,0.607602 -1.50038,1.183561 -0.32851,0.352824 -0.89262,1.055552 -0.8753,1.090377 0.0286,0.05746 1.17028,0.54611 1.75918,0.752951 1.15936,0.407175 1.89576,0.531503 2.62629,0.443077 0.29656,-0.03577 0.67992,-0.173218 0.87795,-0.31455 0.0673,-0.04801 0.0863,-0.04929 0.0863,-0.0064 -10e-6,0.03021 0.0525,0.162128 0.11671,0.292833 l 0.11678,0.237672 -0.19239,0.282964 c -0.10582,0.155649 -0.20243,0.287769 -0.21467,0.293635 -0.0371,0.01781 -0.16936,-0.313317 -0.14868,-0.37211 0.0288,-0.08188 -0.0534,-0.241393 -0.14008,-0.271902 -0.11149,-0.03911 -0.29117,0.03291 -0.32559,0.130847 -0.0282,0.08029 -0.33755,0.304239 -1.54006,1.11546 l -0.47294,0.319039 -0.16271,-0.03513 c -0.41079,-0.08871 -0.78698,-0.09158 -0.81705,-0.0064 -0.006,0.0159 0.22723,0.112403 0.5174,0.214474 0.46403,0.1632 0.52736,0.178638 0.52593,0.127666 -10e-4,-0.03785 0.32176,-0.277846 0.93756,-0.696748 0.51655,-0.351393 0.96956,-0.66317 1.00669,-0.692851 0.129,-0.103026 0.2481,-0.0159 0.39712,0.291486 0.11202,0.230915 0.14571,0.274174 0.20353,0.261329 0.0611,-0.01429 0.20399,-0.205682 0.59971,-0.80645 0.0412,-0.06248 0.0739,-0.0752 0.1367,-0.0531 0.096,0.03371 0.32874,0.0079 0.46272,-0.0523 l 0.093,-0.0415 0.0595,0.131164 c 0.0814,0.179544 0.39536,0.492067 0.64664,0.643581 0.11438,0.06901 0.21296,0.135776 0.21904,0.148497 0.006,0.01273 -0.0739,0.158192 -0.17772,0.323334 -0.10382,0.165172 -0.18801,0.326813 -0.1871,0.359201 0.002,0.07886 0.0651,0.09683 0.49584,0.142452 0.35061,0.03704 0.37112,0.04293 0.46263,0.13371 0.0922,0.09141 0.096,0.122737 0.10162,0.836099 0.004,0.476782 -0.0114,0.790241 -0.0426,0.878893 l -0.0485,0.13784 0.51043,0.17953 c 0.39311,0.138319 0.511,0.168778 0.51244,0.134189 0.004,-0.0812 -0.23444,-0.29283 -0.43825,-0.38935 -0.10957,-0.0521 -0.21139,-0.119399 -0.22603,-0.149929 -0.0146,-0.0305 -0.0293,-0.385165 -0.0327,-0.788041 -0.004,-0.532942 0.009,-0.769262 0.049,-0.867375 0.10118,-0.247957 -0.086,-0.439044 -0.32931,-0.336114 -0.10595,0.04484 -0.64919,0.01273 -0.67443,-0.04006 -0.006,-0.01273 0.0518,-0.12401 0.12883,-0.247592 l 0.13988,-0.224539 0.3074,0.0868 c 0.16925,0.04721 0.40588,0.08824 0.52624,0.09015 0.12037,0.0013 0.21932,0.0064 0.21992,0.0095 5.29e-4,0.0031 0.002,0.135141 0.003,0.291171 8.73e-4,0.156125 0.0168,0.309197 0.0354,0.340265 0.0271,0.0453 0.13085,0.05962 0.52203,0.07218 0.44808,0.01429 0.49642,0.02241 0.58861,0.09778 0.0964,0.07886 0.0999,0.09809 0.0864,0.48423 -0.0486,1.390663 -0.0649,1.627714 -0.12035,1.747515 l -0.0576,0.124489 0.51948,0.182671 c 0.39898,0.140388 0.51976,0.171889 0.52022,0.137369 z"
       id="path858"
       inkscape:connector-curvature="0"
       sodipodi:nodetypes="cccscscsscccccccccsccccccccsccscccscsccccccscsccccccccccssscccsscccsccsccscccsccsscsccccscccccscscccsccscc"
       inkscape:transform-center-y="-11.320315"
       inkscape:transform-center-x="-4.3885364" />
  </g>
</svg>
