<?xml version="1.0" encoding="UTF-8" standalone="no"?>
<!-- Created with Inkscape (http://www.inkscape.org/) -->

<svg
   xmlns:dc="http://purl.org/dc/elements/1.1/"
   xmlns:cc="http://creativecommons.org/ns#"
   xmlns:rdf="http://www.w3.org/1999/02/22-rdf-syntax-ns#"
   xmlns:svg="http://www.w3.org/2000/svg"
   xmlns="http://www.w3.org/2000/svg"
   xmlns:sodipodi="http://sodipodi.sourceforge.net/DTD/sodipodi-0.dtd"
   xmlns:inkscape="http://www.inkscape.org/namespaces/inkscape"
   width="45.90424mm"
   height="32.80093mm"
   viewBox="0 0 45.90424 32.80093"
   version="1.1"
   id="svg8"
   inkscape:version="0.92.3 (2405546, 2018-03-11)"
   sodipodi:docname="antani_move.svg">
  <defs
     id="defs2" />
  <sodipodi:namedview
     id="base"
     pagecolor="#ffffff"
     bordercolor="#666666"
     borderopacity="1.0"
     inkscape:pageopacity="0.0"
     inkscape:pageshadow="2"
     inkscape:zoom="1.4"
     inkscape:cx="75.412179"
     inkscape:cy="71.402509"
     inkscape:document-units="mm"
     inkscape:current-layer="layer1"
     showgrid="false"
     fit-margin-top="0"
     fit-margin-left="0"
     fit-margin-right="0"
     fit-margin-bottom="0"
     inkscape:window-width="1158"
     inkscape:window-height="1644"
     inkscape:window-x="20"
     inkscape:window-y="66"
     inkscape:window-maximized="0" />
  <metadata
     id="metadata5">
    <rdf:RDF>
      <cc:Work
         rdf:about="">
        <dc:format>image/svg+xml</dc:format>
        <dc:type
           rdf:resource="http://purl.org/dc/dcmitype/StillImage" />
        <dc:title></dc:title>
      </cc:Work>
    </rdf:RDF>
  </metadata>
  <g
     inkscape:label="Layer 1"
     inkscape:groupmode="layer"
     id="layer1"
     transform="translate(-61.389499,-14.691244)">
    <path
       style="fill:#000000;stroke-width:0.12826161"
       d="m 90.141919,47.40448 c -1.604829,-0.959049 -0.830438,-3.379257 -0.674842,-4.956819 1.053461,-1.829212 -2.022055,-2.121822 -0.846671,-4.135868 0.722499,-1.560893 0.480324,-3.485117 -1.070523,-1.60052 -1.250255,-0.0692 -0.680852,-3.364902 -1.673986,-1.098621 -0.837946,0.6634 -1.833523,0.511974 -1.125778,1.847494 -0.162998,1.145754 0.633931,3.078651 0.984331,3.206511 -1.883411,0.872898 -1.498496,-2.829619 -1.582232,-4.065662 0.376194,-1.155876 -1.010626,-1.91354 -0.80001,-0.226074 -0.212818,1.969112 -0.345582,3.900606 -1.138436,5.718176 -0.462855,1.384171 -0.209685,3.602502 -1.965336,3.932659 -1.293237,-0.413783 -0.47147,-0.670787 0.454956,-0.896628 1.227002,-2.061926 1.423125,-4.530808 1.818203,-6.854227 0.06943,-1.201605 1.383047,-3.670207 -0.85354,-2.558283 -1.529638,-0.147054 -4.505679,-1.119709 -4.026056,1.531552 -0.372741,1.759823 -1.09373,3.13462 -1.285573,5.010847 -0.279294,1.152206 -2.433213,1.914499 -2.63408,0.882951 2.670923,0.389119 1.918386,-2.613434 2.535141,-4.204579 0.825186,-1.395019 0.654901,-4.436474 2.862405,-4.225246 1.366142,-0.185161 5.357662,0.652996 3.614201,-1.784699 -0.673448,-1.434202 -1.304071,-2.994884 -3.111559,-2.134003 -1.438144,0.577202 -3.837292,-0.873669 -4.558924,0.187265 -1.220594,-0.970949 0.717024,-2.358347 1.004533,-2.974638 -1.670871,-1.075453 -3.79333,-0.421685 -5.631817,-0.310495 -2.547164,-0.772743 -5.476683,-1.767515 -8.016427,-0.436765 -0.704561,0.863781 -1.645753,0.552116 -0.479649,-0.342805 1.708902,-1.170932 4.037373,-0.808536 5.955302,-0.422457 1.831229,0.985281 3.692856,0.335651 5.672171,0.447683 1.163561,-0.445812 2.186696,0.810523 3.165281,0.581737 1.92263,-0.534769 1.41809,-2.800699 1.177448,-4.274996 -0.183103,-1.848593 -1.57369,-3.097494 -2.394261,-4.667201 -0.437242,-1.338302 -2.00239,-2.608711 -1.988075,-3.889525 1.871084,1.86919 2.470395,4.71452 4.406893,6.5305 0.521773,1.681948 0.799487,3.504544 0.562499,5.264836 0.826253,0.0023 1.737815,-0.227243 2.511451,-0.08136 0.668578,0.777839 1.905112,1.379893 1.753785,2.552322 1.12604,0.07996 2.696123,-1.273122 2.63949,0.592725 1.243379,0.613883 2.427859,2.317037 3.012942,2.918225 0.02864,-1.427422 3.225363,-3.17759 2.078088,-0.680911 0.0096,0.70782 1.599236,0.497831 1.579207,1.565616 1.756867,-0.681683 3.090271,-2.536471 4.958028,-2.824827 1.482882,1.164457 2.270335,3.05214 3.366641,4.57925 1.38696,2.02314 2.44809,4.241728 3.49527,6.445213 1.035,1.341575 2.42376,0.103335 3.40133,0.103335 -0.81963,1.168805 -2.32531,1.457955 -3.52653,0.339859 -1.42674,-1.235856 -1.49861,-3.60629 -3.00872,-4.733036 0.0101,1.698571 -0.56846,-1.569613 -1.146801,-1.94101 -0.803395,-1.330049 -1.449032,-2.911749 -2.440234,-4.033001 -1.172003,0.06803 -3.920149,1.649171 -1.839141,2.446719 1.523528,0.955659 3.258231,2.137393 3.348277,4.234293 0.645721,1.396422 -0.759891,4.24907 -1.856549,3.92927 -0.900186,-1.731278 -2.295631,-3.191455 -3.047578,-4.983775 -0.485753,-0.723156 -1.555184,-1.557503 -2.193086,-1.871107 -2.786001,0.372472 -0.899953,3.41671 -1.368847,5.237155 -0.103498,1.97526 -0.975319,4.029167 -0.308985,5.969593 0.309661,0.565839 1.83058,0.903735 0.336271,1.241045 l -0.101044,-0.09094 z m -0.518675,-7.314113 c 0.126339,-1.059486 -0.230306,-2.3255 -0.206997,-3.487338 -0.101184,-0.853143 -0.53858,2.019096 -0.454535,2.604503 0.01216,0.363706 0.03675,1.666425 0.661532,0.882835 z m 0.9952,-5.411539 c 1.077489,-0.769353 -1.641714,-0.09211 -0.383908,0.17955 l 0.383983,-0.17955 z m -5.674577,-0.49091 c -0.933665,-0.432112 0.337292,0.507907 0,0 z m 5.13047,-2.43697 c -0.281767,-0.848397 -0.393752,0.869321 0,0 z"
       id="path1019"
       inkscape:connector-curvature="0" />
  </g>
</svg>
