<?xml version="1.0" encoding="UTF-8" standalone="no"?>
<!-- Created with Inkscape (http://www.inkscape.org/) -->

<svg
   xmlns:dc="http://purl.org/dc/elements/1.1/"
   xmlns:cc="http://creativecommons.org/ns#"
   xmlns:rdf="http://www.w3.org/1999/02/22-rdf-syntax-ns#"
   xmlns:svg="http://www.w3.org/2000/svg"
   xmlns="http://www.w3.org/2000/svg"
   xmlns:sodipodi="http://sodipodi.sourceforge.net/DTD/sodipodi-0.dtd"
   xmlns:inkscape="http://www.inkscape.org/namespaces/inkscape"
   width="138.5294mm"
   height="89.547729mm"
   viewBox="0 0 138.5294 89.547729"
   version="1.1"
   id="svg874"
   inkscape:version="0.92.3 (2405546, 2018-03-11)"
   sodipodi:docname="engine_design_old.svg">
  <defs
     id="defs868">
    <marker
       inkscape:stockid="Arrow1Lstart"
       orient="auto"
       refY="0"
       refX="0"
       id="Arrow1Lstart"
       style="overflow:visible"
       inkscape:isstock="true">
      <path
         id="path1596"
         d="M 0,0 5,-5 -12.5,0 5,5 Z"
         style="fill:#000000;fill-opacity:1;fill-rule:evenodd;stroke:#000000;stroke-width:1.00000003pt;stroke-opacity:1"
         transform="matrix(0.8,0,0,0.8,10,0)"
         inkscape:connector-curvature="0" />
    </marker>
    <marker
       inkscape:stockid="Arrow1Lend"
       orient="auto"
       refY="0"
       refX="0"
       id="Arrow1Lend"
       style="overflow:visible"
       inkscape:isstock="true">
      <path
         id="path1599"
         d="M 0,0 5,-5 -12.5,0 5,5 Z"
         style="fill:#000000;fill-opacity:1;fill-rule:evenodd;stroke:#000000;stroke-width:1.00000003pt;stroke-opacity:1"
         transform="matrix(-0.8,0,0,-0.8,-10,0)"
         inkscape:connector-curvature="0" />
    </marker>
    <marker
       inkscape:stockid="Arrow1Lend"
       orient="auto"
       refY="0"
       refX="0"
       id="Arrow1Lend-0"
       style="overflow:visible"
       inkscape:isstock="true">
      <path
         inkscape:connector-curvature="0"
         id="path1599-2"
         d="M 0,0 5,-5 -12.5,0 5,5 Z"
         style="fill:#000000;fill-opacity:1;fill-rule:evenodd;stroke:#000000;stroke-width:1.00000003pt;stroke-opacity:1"
         transform="matrix(-0.8,0,0,-0.8,-10,0)" />
    </marker>
    <marker
       inkscape:stockid="Arrow1Lend"
       orient="auto"
       refY="0"
       refX="0"
       id="Arrow1Lend-3"
       style="overflow:visible"
       inkscape:isstock="true">
      <path
         inkscape:connector-curvature="0"
         id="path1599-8"
         d="M 0,0 5,-5 -12.5,0 5,5 Z"
         style="fill:#000000;fill-opacity:1;fill-rule:evenodd;stroke:#000000;stroke-width:1.00000003pt;stroke-opacity:1"
         transform="matrix(-0.8,0,0,-0.8,-10,0)" />
    </marker>
    <marker
       inkscape:stockid="Arrow1Lend"
       orient="auto"
       refY="0"
       refX="0"
       id="Arrow1Lend-3-4"
       style="overflow:visible"
       inkscape:isstock="true">
      <path
         inkscape:connector-curvature="0"
         id="path1599-8-3"
         d="M 0,0 5,-5 -12.5,0 5,5 Z"
         style="fill:#000000;fill-opacity:1;fill-rule:evenodd;stroke:#000000;stroke-width:1.00000003pt;stroke-opacity:1"
         transform="matrix(-0.8,0,0,-0.8,-10,0)" />
    </marker>
    <marker
       inkscape:stockid="Arrow1Lend"
       orient="auto"
       refY="0"
       refX="0"
       id="Arrow1Lend-3-0"
       style="overflow:visible"
       inkscape:isstock="true">
      <path
         inkscape:connector-curvature="0"
         id="path1599-8-8"
         d="M 0,0 5,-5 -12.5,0 5,5 Z"
         style="fill:#000000;fill-opacity:1;fill-rule:evenodd;stroke:#000000;stroke-width:1.00000003pt;stroke-opacity:1"
         transform="matrix(-0.8,0,0,-0.8,-10,0)" />
    </marker>
    <marker
       inkscape:stockid="Arrow1Lend"
       orient="auto"
       refY="0"
       refX="0"
       id="Arrow1Lend-3-0-5"
       style="overflow:visible"
       inkscape:isstock="true">
      <path
         inkscape:connector-curvature="0"
         id="path1599-8-8-2"
         d="M 0,0 5,-5 -12.5,0 5,5 Z"
         style="fill:#000000;fill-opacity:1;fill-rule:evenodd;stroke:#000000;stroke-width:1.00000003pt;stroke-opacity:1"
         transform="matrix(-0.8,0,0,-0.8,-10,0)" />
    </marker>
    <marker
       inkscape:stockid="Arrow1Lend"
       orient="auto"
       refY="0"
       refX="0"
       id="Arrow1Lend-3-4-2"
       style="overflow:visible"
       inkscape:isstock="true">
      <path
         inkscape:connector-curvature="0"
         id="path1599-8-3-2"
         d="M 0,0 5,-5 -12.5,0 5,5 Z"
         style="fill:#000000;fill-opacity:1;fill-rule:evenodd;stroke:#000000;stroke-width:1.00000003pt;stroke-opacity:1"
         transform="matrix(-0.8,0,0,-0.8,-10,0)" />
    </marker>
    <marker
       inkscape:stockid="Arrow1Lend"
       orient="auto"
       refY="0"
       refX="0"
       id="Arrow1Lend-3-7"
       style="overflow:visible"
       inkscape:isstock="true">
      <path
         inkscape:connector-curvature="0"
         id="path1599-8-0"
         d="M 0,0 5,-5 -12.5,0 5,5 Z"
         style="fill:#000000;fill-opacity:1;fill-rule:evenodd;stroke:#000000;stroke-width:1.00000003pt;stroke-opacity:1"
         transform="matrix(-0.8,0,0,-0.8,-10,0)" />
    </marker>
    <marker
       inkscape:stockid="Arrow1Lend"
       orient="auto"
       refY="0"
       refX="0"
       id="Arrow1Lend-0-3"
       style="overflow:visible"
       inkscape:isstock="true">
      <path
         inkscape:connector-curvature="0"
         id="path1599-2-4"
         d="M 0,0 5,-5 -12.5,0 5,5 Z"
         style="fill:#000000;fill-opacity:1;fill-rule:evenodd;stroke:#000000;stroke-width:1.00000003pt;stroke-opacity:1"
         transform="matrix(-0.8,0,0,-0.8,-10,0)" />
    </marker>
    <marker
       inkscape:stockid="Arrow1Lend"
       orient="auto"
       refY="0"
       refX="0"
       id="Arrow1Lend-6"
       style="overflow:visible"
       inkscape:isstock="true">
      <path
         inkscape:connector-curvature="0"
         id="path1599-3"
         d="M 0,0 5,-5 -12.5,0 5,5 Z"
         style="fill:#000000;fill-opacity:1;fill-rule:evenodd;stroke:#000000;stroke-width:1.00000003pt;stroke-opacity:1"
         transform="matrix(-0.8,0,0,-0.8,-10,0)" />
    </marker>
    <marker
       inkscape:stockid="Arrow1Lend"
       orient="auto"
       refY="0"
       refX="0"
       id="Arrow1Lend-3-0-5-0"
       style="overflow:visible"
       inkscape:isstock="true">
      <path
         inkscape:connector-curvature="0"
         id="path1599-8-8-2-9"
         d="M 0,0 5,-5 -12.5,0 5,5 Z"
         style="fill:#000000;fill-opacity:1;fill-rule:evenodd;stroke:#000000;stroke-width:1.00000003pt;stroke-opacity:1"
         transform="matrix(-0.8,0,0,-0.8,-10,0)" />
    </marker>
    <marker
       inkscape:stockid="Arrow1Lend"
       orient="auto"
       refY="0"
       refX="0"
       id="Arrow1Lend-3-0-5-0-6"
       style="overflow:visible"
       inkscape:isstock="true">
      <path
         inkscape:connector-curvature="0"
         id="path1599-8-8-2-9-4"
         d="M 0,0 5,-5 -12.5,0 5,5 Z"
         style="fill:#000000;fill-opacity:1;fill-rule:evenodd;stroke:#000000;stroke-width:1.00000003pt;stroke-opacity:1"
         transform="matrix(-0.8,0,0,-0.8,-10,0)" />
    </marker>
    <marker
       inkscape:stockid="Arrow1Lend"
       orient="auto"
       refY="0"
       refX="0"
       id="Arrow1Lend-3-0-5-0-5"
       style="overflow:visible"
       inkscape:isstock="true">
      <path
         inkscape:connector-curvature="0"
         id="path1599-8-8-2-9-6"
         d="M 0,0 5,-5 -12.5,0 5,5 Z"
         style="fill:#000000;fill-opacity:1;fill-rule:evenodd;stroke:#000000;stroke-width:1.00000003pt;stroke-opacity:1"
         transform="matrix(-0.8,0,0,-0.8,-10,0)" />
    </marker>
    <marker
       inkscape:stockid="Arrow1Lend"
       orient="auto"
       refY="0"
       refX="0"
       id="Arrow1Lend-3-0-5-0-60"
       style="overflow:visible"
       inkscape:isstock="true">
      <path
         inkscape:connector-curvature="0"
         id="path1599-8-8-2-9-2"
         d="M 0,0 5,-5 -12.5,0 5,5 Z"
         style="fill:#000000;fill-opacity:1;fill-rule:evenodd;stroke:#000000;stroke-width:1.00000003pt;stroke-opacity:1"
         transform="matrix(-0.8,0,0,-0.8,-10,0)" />
    </marker>
    <marker
       inkscape:stockid="Arrow1Lend"
       orient="auto"
       refY="0"
       refX="0"
       id="Arrow1Lend-3-0-5-0-7"
       style="overflow:visible"
       inkscape:isstock="true">
      <path
         inkscape:connector-curvature="0"
         id="path1599-8-8-2-9-8"
         d="M 0,0 5,-5 -12.5,0 5,5 Z"
         style="fill:#000000;fill-opacity:1;fill-rule:evenodd;stroke:#000000;stroke-width:1.00000003pt;stroke-opacity:1"
         transform="matrix(-0.8,0,0,-0.8,-10,0)" />
    </marker>
    <marker
       inkscape:stockid="Arrow1Lend"
       orient="auto"
       refY="0"
       refX="0"
       id="Arrow1Lend-6-0"
       style="overflow:visible"
       inkscape:isstock="true">
      <path
         inkscape:connector-curvature="0"
         id="path1599-3-6"
         d="M 0,0 5,-5 -12.5,0 5,5 Z"
         style="fill:#000000;fill-opacity:1;fill-rule:evenodd;stroke:#000000;stroke-width:1.00000003pt;stroke-opacity:1"
         transform="matrix(-0.8,0,0,-0.8,-10,0)" />
    </marker>
    <marker
       inkscape:stockid="Arrow1Lend"
       orient="auto"
       refY="0"
       refX="0"
       id="Arrow1Lend-6-5"
       style="overflow:visible"
       inkscape:isstock="true">
      <path
         inkscape:connector-curvature="0"
         id="path1599-3-1"
         d="M 0,0 5,-5 -12.5,0 5,5 Z"
         style="fill:#000000;fill-opacity:1;fill-rule:evenodd;stroke:#000000;stroke-width:1.00000003pt;stroke-opacity:1"
         transform="matrix(-0.8,0,0,-0.8,-10,0)" />
    </marker>
    <marker
       inkscape:stockid="Arrow1Lend"
       orient="auto"
       refY="0"
       refX="0"
       id="Arrow1Lend-6-4"
       style="overflow:visible"
       inkscape:isstock="true">
      <path
         inkscape:connector-curvature="0"
         id="path1599-3-2"
         d="M 0,0 5,-5 -12.5,0 5,5 Z"
         style="fill:#000000;fill-opacity:1;fill-rule:evenodd;stroke:#000000;stroke-width:1.00000003pt;stroke-opacity:1"
         transform="matrix(-0.8,0,0,-0.8,-10,0)" />
    </marker>
    <marker
       inkscape:stockid="Arrow1Lend"
       orient="auto"
       refY="0"
       refX="0"
       id="Arrow1Lend-6-1"
       style="overflow:visible"
       inkscape:isstock="true">
      <path
         inkscape:connector-curvature="0"
         id="path1599-3-5"
         d="M 0,0 5,-5 -12.5,0 5,5 Z"
         style="fill:#000000;fill-opacity:1;fill-rule:evenodd;stroke:#000000;stroke-width:1.00000003pt;stroke-opacity:1"
         transform="matrix(-0.8,0,0,-0.8,-10,0)" />
    </marker>
    <marker
       inkscape:stockid="Arrow1Lend"
       orient="auto"
       refY="0"
       refX="0"
       id="Arrow1Lend-6-0-3"
       style="overflow:visible"
       inkscape:isstock="true">
      <path
         inkscape:connector-curvature="0"
         id="path1599-3-6-7"
         d="M 0,0 5,-5 -12.5,0 5,5 Z"
         style="fill:#000000;fill-opacity:1;fill-rule:evenodd;stroke:#000000;stroke-width:1.00000003pt;stroke-opacity:1"
         transform="matrix(-0.8,0,0,-0.8,-10,0)" />
    </marker>
    <marker
       inkscape:stockid="Arrow1Lend"
       orient="auto"
       refY="0"
       refX="0"
       id="Arrow1Lend-6-0-3-5"
       style="overflow:visible"
       inkscape:isstock="true">
      <path
         inkscape:connector-curvature="0"
         id="path1599-3-6-7-9"
         d="M 0,0 5,-5 -12.5,0 5,5 Z"
         style="fill:#000000;fill-opacity:1;fill-rule:evenodd;stroke:#000000;stroke-width:1.00000003pt;stroke-opacity:1"
         transform="matrix(-0.8,0,0,-0.8,-10,0)" />
    </marker>
    <marker
       inkscape:stockid="Arrow1Lend"
       orient="auto"
       refY="0"
       refX="0"
       id="Arrow1Lend-6-0-5"
       style="overflow:visible"
       inkscape:isstock="true">
      <path
         inkscape:connector-curvature="0"
         id="path1599-3-6-6"
         d="M 0,0 5,-5 -12.5,0 5,5 Z"
         style="fill:#000000;fill-opacity:1;fill-rule:evenodd;stroke:#000000;stroke-width:1.00000003pt;stroke-opacity:1"
         transform="matrix(-0.8,0,0,-0.8,-10,0)" />
    </marker>
    <marker
       inkscape:stockid="Arrow1Lend"
       orient="auto"
       refY="0"
       refX="0"
       id="Arrow1Lend-6-0-3-4"
       style="overflow:visible"
       inkscape:isstock="true">
      <path
         inkscape:connector-curvature="0"
         id="path1599-3-6-7-4"
         d="M 0,0 5,-5 -12.5,0 5,5 Z"
         style="fill:#000000;fill-opacity:1;fill-rule:evenodd;stroke:#000000;stroke-width:1.00000003pt;stroke-opacity:1"
         transform="matrix(-0.8,0,0,-0.8,-10,0)" />
    </marker>
    <marker
       inkscape:stockid="Arrow1Lend"
       orient="auto"
       refY="0"
       refX="0"
       id="Arrow1Lend-6-0-4"
       style="overflow:visible"
       inkscape:isstock="true">
      <path
         inkscape:connector-curvature="0"
         id="path1599-3-6-9"
         d="M 0,0 5,-5 -12.5,0 5,5 Z"
         style="fill:#000000;fill-opacity:1;fill-rule:evenodd;stroke:#000000;stroke-width:1.00000003pt;stroke-opacity:1"
         transform="matrix(-0.8,0,0,-0.8,-10,0)" />
    </marker>
    <marker
       inkscape:stockid="Arrow1Lend"
       orient="auto"
       refY="0"
       refX="0"
       id="Arrow1Lend-6-0-7"
       style="overflow:visible"
       inkscape:isstock="true">
      <path
         inkscape:connector-curvature="0"
         id="path1599-3-6-0"
         d="M 0,0 5,-5 -12.5,0 5,5 Z"
         style="fill:#000000;fill-opacity:1;fill-rule:evenodd;stroke:#000000;stroke-width:1.00000003pt;stroke-opacity:1"
         transform="matrix(-0.8,0,0,-0.8,-10,0)" />
    </marker>
    <marker
       inkscape:stockid="Arrow1Lend"
       orient="auto"
       refY="0"
       refX="0"
       id="Arrow1Lend-6-0-3-52"
       style="overflow:visible"
       inkscape:isstock="true">
      <path
         inkscape:connector-curvature="0"
         id="path1599-3-6-7-7"
         d="M 0,0 5,-5 -12.5,0 5,5 Z"
         style="fill:#000000;fill-opacity:1;fill-rule:evenodd;stroke:#000000;stroke-width:1.00000003pt;stroke-opacity:1"
         transform="matrix(-0.8,0,0,-0.8,-10,0)" />
    </marker>
    <marker
       inkscape:stockid="Arrow1Lend"
       orient="auto"
       refY="0"
       refX="0"
       id="Arrow1Lend-3-4-4"
       style="overflow:visible"
       inkscape:isstock="true">
      <path
         inkscape:connector-curvature="0"
         id="path1599-8-3-1"
         d="M 0,0 5,-5 -12.5,0 5,5 Z"
         style="fill:#000000;fill-opacity:1;fill-rule:evenodd;stroke:#000000;stroke-width:1.00000003pt;stroke-opacity:1"
         transform="matrix(-0.8,0,0,-0.8,-10,0)" />
    </marker>
    <marker
       inkscape:stockid="Arrow1Lend"
       orient="auto"
       refY="0"
       refX="0"
       id="Arrow1Lend-3-4-4-0"
       style="overflow:visible"
       inkscape:isstock="true">
      <path
         inkscape:connector-curvature="0"
         id="path1599-8-3-1-7"
         d="M 0,0 5,-5 -12.5,0 5,5 Z"
         style="fill:#000000;fill-opacity:1;fill-rule:evenodd;stroke:#000000;stroke-width:1.00000003pt;stroke-opacity:1"
         transform="matrix(-0.8,0,0,-0.8,-10,0)" />
    </marker>
    <marker
       inkscape:stockid="Arrow1Lend"
       orient="auto"
       refY="0"
       refX="0"
       id="Arrow1Lend-3-4-0"
       style="overflow:visible"
       inkscape:isstock="true">
      <path
         inkscape:connector-curvature="0"
         id="path1599-8-3-29"
         d="M 0,0 5,-5 -12.5,0 5,5 Z"
         style="fill:#000000;fill-opacity:1;fill-rule:evenodd;stroke:#000000;stroke-width:1.00000003pt;stroke-opacity:1"
         transform="matrix(-0.8,0,0,-0.8,-10,0)" />
    </marker>
  </defs>
  <sodipodi:namedview
     id="base"
     pagecolor="#ffffff"
     bordercolor="#666666"
     borderopacity="1.0"
     inkscape:pageopacity="0.0"
     inkscape:pageshadow="2"
     inkscape:zoom="0.5782462"
     inkscape:cx="280.19314"
     inkscape:cy="413.19671"
     inkscape:document-units="mm"
     inkscape:current-layer="layer1"
     showgrid="false"
     inkscape:window-width="1191"
     inkscape:window-height="1719"
     inkscape:window-x="77"
     inkscape:window-y="76"
     inkscape:window-maximized="0"
     fit-margin-top="0"
     fit-margin-left="0"
     fit-margin-right="0"
     fit-margin-bottom="0">
    <inkscape:grid
       type="xygrid"
       id="grid1592"
       originx="-15.669235"
       originy="-106.78661" />
  </sodipodi:namedview>
  <metadata
     id="metadata871">
    <rdf:RDF>
      <cc:Work
         rdf:about="">
        <dc:format>image/svg+xml</dc:format>
        <dc:type
           rdf:resource="http://purl.org/dc/dcmitype/StillImage" />
        <dc:title></dc:title>
      </cc:Work>
    </rdf:RDF>
  </metadata>
  <g
     inkscape:label="Layer 1"
     inkscape:groupmode="layer"
     id="layer1"
     transform="translate(-15.669235,-100.66565)">
    <path
       style="opacity:0.547;fill:#0000ff;stroke-width:0.03928132"
       d="m 47.627912,145.08144 c -0.330383,-0.0867 -0.608951,-0.35446 -0.704846,-0.67737 -0.123563,-0.41609 -0.05216,-0.63037 0.391121,-1.17366 0.908833,-1.1139 1.43618,-2.18759 1.629321,-3.31734 0.169976,-0.99427 0.04529,-2.13158 -0.277756,-2.53357 -0.06329,-0.0788 -0.15477,-0.24843 -0.203285,-0.37703 -0.07831,-0.20761 -0.0876,-0.29992 -0.08276,-0.82305 0.0061,-0.65856 0.11233,-1.47087 0.268295,-2.05137 0.191071,-0.71115 0.603491,-1.68605 0.945186,-2.23428 0.379777,-0.60933 0.956065,-0.95841 1.582204,-0.95841 0.538186,0 0.83275,0.1654 1.038351,0.58303 0.119814,0.24338 0.12793,0.28608 0.12793,0.67315 0,0.36005 -0.01509,0.45501 -0.117171,0.73734 -0.06444,0.17825 -0.128328,0.32408 -0.141967,0.32408 -0.04349,0 -0.150229,-0.32336 -0.233585,-0.70768 -0.101716,-0.46897 -0.202146,-0.6266 -0.488471,-0.76668 -0.182502,-0.0893 -0.25027,-0.10301 -0.404636,-0.0819 -0.260911,0.0356 -0.512683,0.20288 -0.628014,0.41711 -0.08506,0.158 -0.0929,0.21012 -0.0739,0.49102 0.04491,0.66376 0.430378,1.60987 0.914333,2.24416 l 0.260231,0.34106 -0.08651,0.3572 c -0.04758,0.19646 -0.115472,0.55498 -0.150876,0.79671 l -0.06437,0.43951 0.392024,0.40504 c 1.244322,1.28565 2.134349,3.10511 2.568127,5.24995 0.149168,0.73756 0.254144,1.58055 0.224109,1.79968 -0.134335,0.98009 -1.505921,1.15676 -1.887653,0.24315 -0.03204,-0.0767 -0.0862,-0.36738 -0.120378,-0.64603 -0.167695,-1.3673 -0.520531,-2.56846 -1.070379,-3.64389 -0.143318,-0.28032 -0.228123,-0.40843 -0.247032,-0.37317 -0.01583,0.0295 -0.04146,0.15973 -0.05694,0.28936 -0.08159,0.68308 -0.429871,1.7397 -0.83185,2.5237 -0.499308,0.97384 -1.409487,2.17707 -1.795987,2.37425 -0.170033,0.0867 -0.492918,0.12318 -0.67286,0.076 z m 6.402854,-8.78243 c -1.513264,-0.23788 -2.613158,-1.04929 -3.24234,-2.39192 -0.193828,-0.41362 -0.348922,-0.95186 -0.374917,-1.3011 -0.01783,-0.23965 -0.0086,-0.29662 0.07,-0.43108 0.225913,-0.38655 0.794951,-0.42336 1.048129,-0.0678 0.044,0.0617 0.116257,0.2786 0.160585,0.4818 0.16534,0.75793 0.446036,1.27597 0.937753,1.73067 0.540591,0.4999 1.172481,0.72194 2.199918,0.77306 0.514494,0.0256 0.593056,0.0389 0.705595,0.11898 0.375006,0.26702 0.334306,0.85926 -0.07334,1.06724 -0.128043,0.0653 -0.226622,0.0768 -0.634361,0.0735 -0.265519,-0.003 -0.624174,-0.0261 -0.797012,-0.0533 z m -1.992674,-5.73072 c -0.96639,-0.32935 -1.460822,-1.3239 -1.132407,-2.27784 0.0959,-0.27855 0.201382,-0.44207 0.442578,-0.68605 0.383587,-0.38801 0.97886,-0.5808 1.511599,-0.48954 0.486698,0.0834 0.965679,0.38941 1.229942,0.78585 0.04615,0.0693 0.130646,0.10134 0.392696,0.14918 0.739718,0.13505 1.296286,0.32915 1.296286,0.45208 0,0.12593 -0.357991,0.16805 -1.217722,0.14322 -0.756038,-0.0218 -1.431963,-0.0899 -2.030511,-0.20441 -0.1687,-0.0323 -0.324404,-0.0576 -0.346008,-0.0563 -0.12385,0.008 0.764342,0.262 1.639994,0.4693 0.617156,0.14611 0.597345,0.12296 0.466112,0.54462 -0.09996,0.32116 -0.235627,0.54231 -0.463379,0.75535 -0.506394,0.47367 -1.166649,0.62661 -1.78918,0.41446 z"
       id="path1503"
       inkscape:connector-curvature="0"
       sodipodi:nodetypes="ccssccsscscscscccsssccccscccccccsccsssccssscccscccccsssccsscc" />
    <path
       style="opacity:0.48900003;fill:#980000;fill-opacity:1;stroke-width:0.03443659"
       d="m 82.537306,190.16286 c -0.576112,-0.15517 -1.084517,-0.57922 -1.360849,-1.13506 -0.165285,-0.33247 -0.215211,-0.56104 -0.210611,-0.96423 0.0065,-0.57128 0.20554,-1.03502 0.623954,-1.4539 0.830982,-0.8319 2.128373,-0.83601 2.966078,-0.009 0.809297,0.7986 0.871518,1.9983 0.148847,2.87 -0.260032,0.31366 -0.695846,0.59034 -1.090746,0.69248 -0.255687,0.0661 -0.831278,0.0662 -1.076673,1.1e-4 z m 1.014678,-0.68422 c 0.385185,-0.1359 0.723672,-0.45995 0.875539,-0.83819 0.06458,-0.16083 0.07953,-0.26283 0.07953,-0.54244 0,-0.43912 -0.0799,-0.65636 -0.34787,-0.9458 -0.317663,-0.34311 -0.62988,-0.48258 -1.080347,-0.48258 -0.304401,0 -0.534942,0.063 -0.76067,0.20785 -0.643847,0.41315 -0.865234,1.21474 -0.524842,1.90031 0.16688,0.33611 0.60229,0.66952 0.977301,0.74835 0.197621,0.0415 0.597937,0.0172 0.781357,-0.0475 z m 11.734626,0.67201 c -0.725243,-0.21163 -1.3161,-0.82646 -1.484716,-1.54493 -0.07159,-0.30506 -0.04898,-0.91515 0.04307,-1.16201 0.392951,-1.05391 1.413618,-1.63598 2.474759,-1.41132 0.7642,0.16179 1.456154,0.85374 1.617946,1.61794 0.202153,0.95485 -0.25977,1.9204 -1.122598,2.34654 -0.158801,0.0784 -0.370847,0.15979 -0.471211,0.1808 -0.274211,0.0574 -0.815405,0.0436 -1.057236,-0.027 z m 0.861812,-0.62661 c 0.396532,-0.0733 0.743094,-0.31977 0.958661,-0.68178 0.161425,-0.2711 0.205214,-0.46342 0.187914,-0.8253 -0.01241,-0.25918 -0.03209,-0.34186 -0.127439,-0.53559 -0.143676,-0.29185 -0.38735,-0.53536 -0.679753,-0.67932 -0.198047,-0.0975 -0.274163,-0.11514 -0.548438,-0.12713 -0.241181,-0.0105 -0.363225,5.9e-4 -0.502835,0.0468 -1.041188,0.3429 -1.361019,1.6385 -0.593853,2.40567 0.357594,0.35759 0.796272,0.49086 1.305743,0.39668 z M 80.0312,187.91962 c -0.204456,-0.0458 -0.406874,-0.12967 -0.532335,-0.22056 -0.171187,-0.124 -0.354982,-0.40409 -0.409192,-0.62357 -0.05616,-0.22737 -0.05695,-7.90361 -8.27e-4,-8.1467 0.07773,-0.33673 0.404834,-0.6903 0.746707,-0.80713 0.09938,-0.034 1.384453,-0.0457 5.946566,-0.0543 5.90383,-0.0111 7.072087,0.006 7.518369,0.11296 0.58987,0.14082 0.918021,0.43666 1.416017,1.27655 0.17888,0.30169 0.389583,0.65701 0.46824,0.78959 0.07865,0.13258 0.302129,0.51224 0.496619,0.8437 0.19449,0.33145 0.387178,0.6552 0.428197,0.71944 0.06823,0.10686 0.124295,0.13368 0.658913,0.31526 1.288938,0.43775 2.283346,0.78683 2.495569,0.87605 0.416182,0.17497 0.668602,0.41819 0.754277,0.72679 0.0525,0.18914 0.0513,3.11807 -0.001,3.34629 -0.0814,0.35268 -0.414297,0.7039 -0.764753,0.80686 -0.07887,0.0232 -0.343939,0.0427 -0.590237,0.0435 l -0.447074,0.001 -0.06391,-0.30993 c -0.10544,-0.51135 -0.350101,-0.93894 -0.737333,-1.28864 -0.430601,-0.38885 -0.984263,-0.59486 -1.588107,-0.5909 -0.615277,0.004 -1.146971,0.22371 -1.590282,0.65704 -0.388106,0.37937 -0.569307,0.71588 -0.686087,1.27415 l -0.05401,0.25828 -4.016857,0.009 -4.016855,0.009 -0.02374,-0.18094 c -0.06162,-0.46978 -0.309173,-0.9611 -0.670934,-1.33158 -0.442429,-0.45308 -1.015518,-0.69377 -1.65352,-0.69445 -0.847561,-0.001 -1.55062,0.40168 -2.025629,1.15987 -0.137313,0.21917 -0.273411,0.60326 -0.303015,0.85514 l -0.02253,0.19168 -0.331015,-0.004 c -0.182058,-0.002 -0.362008,-0.0109 -0.399888,-0.0194 z M 99.699075,185.988 c 0.13337,-0.10803 0.15038,-0.19157 0.15038,-0.73831 0,-0.78205 -0.003,-0.78474 -0.947006,-0.78474 -0.947115,0 -0.947003,-1.1e-4 -0.947003,0.80314 v 0.54677 l 0.117086,0.11709 0.117081,0.11708 0.718006,-5.9e-4 c 0.628259,-5.9e-4 0.727182,-0.008 0.791456,-0.0603 z m -4.884249,-3.80276 c 0.02275,-0.0228 0.0413,-0.0601 0.0413,-0.0831 0,-0.0825 -1.344315,-2.75232 -1.415556,-2.81126 -0.06743,-0.0558 -0.214054,-0.0603 -1.973373,-0.0603 -1.432274,0 -1.91071,0.0102 -1.941853,0.0413 -0.05939,0.0594 -0.05939,2.85394 0,2.91333 0.05982,0.0598 5.229643,0.0598 5.289463,0 z"
       id="path1505"
       inkscape:connector-curvature="0" />
    <path
       style="opacity:0.51999996;fill:#a429bb;fill-opacity:1;stroke-width:0.03252465"
       d="m 139.58652,148.17945 c -0.92118,-0.155 -1.68866,-0.85821 -1.94871,-1.78554 -0.0564,-0.20124 -0.0593,-0.51436 -0.0593,-6.50494 0,-5.99059 0.003,-6.3037 0.0593,-6.50493 0.23783,-0.84809 0.89774,-1.508 1.74583,-1.74583 0.20124,-0.0564 0.51435,-0.0593 6.50493,-0.0593 5.99059,0 6.30371,0.003 6.50493,0.0593 0.84809,0.23783 1.50801,0.89774 1.74584,1.74583 0.0564,0.20123 0.0593,0.51434 0.0593,6.50493 0,5.99058 -0.003,6.3037 -0.0593,6.50494 -0.23562,0.84017 -0.87956,1.48985 -1.72957,1.74496 -0.18473,0.0554 -0.52779,0.0589 -6.42362,0.064 -3.49343,0.003 -6.30364,-0.007 -6.39963,-0.0234 z m 12.53053,-0.69611 c 0.69454,-0.14582 1.22007,-0.67135 1.36589,-1.36589 0.0719,-0.34239 0.0719,-12.11458 0,-12.45695 -0.13429,-0.63958 -0.56876,-1.11614 -1.21954,-1.33767 -0.17235,-0.0587 -0.40521,-0.0609 -6.37483,-0.0609 -5.96961,0 -6.20248,0.002 -6.37483,0.0609 -0.59769,0.20346 -0.98785,0.59362 -1.19131,1.19131 -0.0586,0.17235 -0.0609,0.40521 -0.0609,6.37483 0,5.96961 0.002,6.20248 0.0609,6.37483 0.19141,0.5623 0.55133,0.94748 1.06951,1.14458 0.0938,0.0357 0.22913,0.0766 0.30068,0.0908 0.0715,0.0143 2.8451,0.0272 6.16343,0.0289 5.19077,0.002 6.06512,-0.004 6.261,-0.0448 z m -11.69261,-0.3765 c -0.44977,-0.0511 -0.82785,-0.23915 -1.17122,-0.58252 -0.45492,-0.45492 -0.64939,-1.00285 -0.58447,-1.64681 0.099,-0.98194 0.87512,-1.71829 1.88687,-1.79015 0.97928,-0.0695 1.85836,0.55947 2.09646,1.50013 0.0993,0.39239 0.051,0.97028 -0.11183,1.33848 l -0.061,0.13786 0.12852,0.0891 c 0.33278,0.23061 0.41607,0.47622 0.22596,0.66633 -0.0758,0.0758 -0.12361,0.0951 -0.2358,0.0951 -0.11747,-2e-5 -0.17154,-0.0243 -0.32714,-0.14637 -0.10253,-0.0805 -0.19366,-0.14634 -0.20251,-0.14634 -0.009,0 -0.1142,0.0658 -0.23409,0.14621 -0.41921,0.28115 -0.90061,0.39692 -1.40978,0.33906 z m 0.59585,-0.72905 c 0.20619,-0.0537 0.44493,-0.16514 0.44493,-0.20767 0,-0.015 -0.17198,-0.16221 -0.38217,-0.32709 -0.39883,-0.31285 -0.46041,-0.38332 -0.46232,-0.52905 -0.002,-0.20278 0.14662,-0.35117 0.35329,-0.35117 0.0973,0 0.19566,0.0654 0.72675,0.48344 l 0.2193,0.1726 0.0397,-0.0922 c 0.0226,-0.0525 0.0403,-0.2394 0.0409,-0.43373 7.6e-4,-0.31638 -0.006,-0.35705 -0.1,-0.55291 -0.14822,-0.30975 -0.32976,-0.49674 -0.62295,-0.64164 -0.23971,-0.11847 -0.26006,-0.12269 -0.59145,-0.12269 -0.31785,0 -0.35925,0.008 -0.56044,0.10292 -0.30109,0.14265 -0.49082,0.32785 -0.63528,0.62013 -0.26667,0.53959 -0.14961,1.19118 0.28447,1.58335 0.33322,0.30104 0.7996,0.4118 1.24523,0.29572 z m 4.27486,0.72847 c -0.83493,-0.0911 -1.52334,-0.70882 -1.73578,-1.55759 -0.0779,-0.31113 -0.0487,-0.81991 0.0645,-1.12645 0.047,-0.12738 0.0856,-0.23903 0.0856,-0.2481 0,-0.009 -0.0803,-0.0718 -0.17853,-0.13945 -0.2173,-0.14966 -0.27704,-0.23537 -0.27609,-0.39609 7.6e-4,-0.19278 0.15,-0.33452 0.35133,-0.33452 0.0628,0 0.16507,0.0508 0.29495,0.14636 0.10935,0.0805 0.21328,0.14637 0.23097,0.14637 0.0177,0 0.0946,-0.0476 0.17094,-0.10571 0.30657,-0.23349 0.85729,-0.41469 1.26033,-0.41469 1.25654,0 2.21709,1.1746 1.96993,2.4089 -0.0842,0.42067 -0.24231,0.7132 -0.55335,1.02397 -0.47567,0.47525 -1.02296,0.66918 -1.68476,0.597 z m 0.58203,-0.7252 c 0.52411,-0.13955 0.89637,-0.5488 0.99176,-1.0903 0.0981,-0.55668 -0.22793,-1.15371 -0.77716,-1.42333 -0.17068,-0.0838 -0.21808,-0.0918 -0.54472,-0.0918 -0.32558,0 -0.37601,0.008 -0.56057,0.0937 -0.11155,0.0515 -0.21889,0.11306 -0.23856,0.13675 -0.0281,0.0338 0.0504,0.10654 0.36488,0.33837 0.22034,0.16242 0.41864,0.32775 0.44067,0.36739 0.022,0.0397 0.0406,0.12841 0.0412,0.19726 0.002,0.17051 -0.14614,0.3139 -0.32336,0.3139 -0.12181,0 -0.26668,-0.0895 -0.82168,-0.5076 l -0.1542,-0.11616 -0.0368,0.0923 c -0.0202,0.0508 -0.0442,0.19709 -0.0532,0.32513 -0.0629,0.89323 0.799,1.5967 1.67166,1.36434 z m 4.28838,0.72803 c -0.45294,-0.0533 -0.82067,-0.22578 -1.15626,-0.54236 -0.26749,-0.25234 -0.45034,-0.54398 -0.55701,-0.88837 -0.1104,-0.35651 -0.10482,-0.86358 0.0133,-1.20341 0.12625,-0.36334 0.23835,-0.54255 0.5108,-0.81665 0.19521,-0.19636 0.30306,-0.2745 0.52245,-0.37845 0.15205,-0.072 0.348,-0.14803 0.43545,-0.16883 0.22327,-0.0531 0.74781,-0.0458 0.97378,0.0136 0.40956,0.10767 0.82737,0.37492 1.06815,0.6832 l 0.13442,0.17212 0.20953,-0.094 c 0.26806,-0.12027 0.39971,-0.1214 0.52932,-0.005 0.23102,0.20825 0.13459,0.47529 -0.22684,0.62821 l -0.20997,0.0888 -0.004,0.46678 c -0.004,0.49831 -0.03,0.61512 -0.22175,0.99342 -0.35962,0.70968 -1.20121,1.14699 -2.02161,1.05046 z m 0.62506,-0.73174 c 0.54004,-0.16037 0.95239,-0.71797 0.95239,-1.28786 0,-0.10545 -0.005,-0.19172 -0.0107,-0.19172 -0.006,0 -0.21329,0.0878 -0.4609,0.19514 -0.50381,0.2184 -0.64352,0.24 -0.78197,0.1209 -0.0622,-0.0534 -0.091,-0.11542 -0.10287,-0.22104 -0.0258,-0.2283 0.0577,-0.302 0.6017,-0.5314 l 0.4564,-0.19246 -0.0495,-0.0756 c -0.0751,-0.11461 -0.41896,-0.33059 -0.61889,-0.38871 -0.24276,-0.0706 -0.64678,-0.0483 -0.89643,0.0493 -0.53973,0.2111 -0.92069,0.89638 -0.8086,1.45454 0.10363,0.51598 0.41646,0.87412 0.91076,1.04259 0.25622,0.0873 0.56877,0.0975 0.80861,0.0262 z m -10.29734,-4.81761 c -0.16291,-0.11412 -0.16642,-0.15325 -0.16642,-1.85764 v -1.58751 l -0.21536,-0.0938 c -1.06176,-0.46255 -1.06288,-2.04529 -0.002,-2.50756 l 0.21358,-0.0931 0.01,-0.94488 c 0.0106,-1.00966 0.0153,-1.03964 0.17899,-1.12723 0.0954,-0.0511 0.24943,-0.0511 0.34485,0 0.16364,0.0876 0.1684,0.11757 0.17898,1.12723 l 0.01,0.94488 0.21357,0.0931 c 1.06112,0.46227 1.06001,2.04501 -0.002,2.50756 l -0.21535,0.0938 v 1.58751 c 0,1.70439 -0.004,1.74352 -0.16642,1.85764 -0.0416,0.0292 -0.12776,0.0531 -0.19135,0.0531 -0.0636,0 -0.1497,-0.0239 -0.19135,-0.0531 z m 0.58588,-4.22494 c 0.20727,-0.14599 0.29623,-0.33772 0.28187,-0.60745 -0.0142,-0.26687 -0.12764,-0.4512 -0.35115,-0.57059 -0.12221,-0.0653 -0.18237,-0.0763 -0.3645,-0.0666 -0.26689,0.0142 -0.4512,0.12765 -0.57059,0.35116 -0.0653,0.1222 -0.0763,0.18236 -0.0666,0.3645 0.0142,0.26687 0.12765,0.4512 0.35116,0.57059 0.1222,0.0653 0.18237,0.0763 0.3645,0.0666 0.1783,-0.009 0.24319,-0.0292 0.35528,-0.1082 z m 4.22146,4.1829 -0.0951,-0.0951 v -0.95475 -0.95474 l -0.21382,-0.0932 c -0.30334,-0.13214 -0.53789,-0.35791 -0.68844,-0.66267 -0.11914,-0.24119 -0.12225,-0.25667 -0.12187,-0.60684 3.7e-4,-0.34221 0.005,-0.37021 0.11121,-0.58702 0.16702,-0.34314 0.43884,-0.58376 0.82348,-0.72896 l 0.0894,-0.0338 v -1.64149 -1.64149 l 0.0732,-0.0837 c 0.152,-0.17384 0.43269,-0.16129 0.54592,0.0244 0.061,0.10005 0.0637,0.17345 0.0638,1.73881 1e-4,1.44679 0.006,1.63437 0.0499,1.63437 0.098,0 0.38669,0.17193 0.55321,0.32942 0.70445,0.66624 0.51269,1.83307 -0.36872,2.24373 l -0.23436,0.10918 v 0.93881 0.93882 l -0.11058,0.11058 c -0.15001,0.15001 -0.3368,0.15608 -0.47737,0.0155 z m 0.55279,-2.75561 c 0.3065,-0.15273 0.44424,-0.46884 0.34821,-0.79916 -0.16515,-0.56811 -0.94717,-0.67442 -1.24335,-0.16902 -0.17233,0.29406 -0.13484,0.6088 0.10055,0.84419 0.22685,0.22685 0.50201,0.26979 0.79459,0.12399 z m 4.3089,2.7401 -0.11058,-0.11058 v -2.34503 c 0,-2.134 -0.005,-2.34502 -0.0524,-2.34502 -0.10645,0 -0.4386,-0.2084 -0.59396,-0.37267 -0.65681,-0.69447 -0.45005,-1.79887 0.41197,-2.20049 l 0.23435,-0.10918 v -0.22163 c 0,-0.27158 0.0601,-0.40122 0.21636,-0.4665 0.14216,-0.0594 0.30334,-0.0158 0.4011,0.10848 0.0528,0.067 0.0656,0.13194 0.0656,0.33192 v 0.24857 l 0.21383,0.0931 c 0.30333,0.13215 0.53788,0.35792 0.68843,0.66267 0.11915,0.24119 0.12226,0.25668 0.12188,0.60685 -3.8e-4,0.3422 -0.005,0.37021 -0.11122,0.58702 -0.16702,0.34314 -0.43884,0.58376 -0.82348,0.72895 l -0.0894,0.0338 v 2.34508 2.34509 l -0.0951,0.0951 c -0.14057,0.14057 -0.32736,0.1345 -0.47737,-0.0155 z m 0.60352,-5.54218 c 0.10235,-0.0628 0.17254,-0.14125 0.23893,-0.26723 0.0816,-0.15479 0.0918,-0.20339 0.0775,-0.36756 -0.0301,-0.34579 -0.27477,-0.59479 -0.61922,-0.63034 -0.15463,-0.0159 -0.20803,-0.005 -0.36453,0.071 -0.44686,0.21863 -0.52923,0.77931 -0.16395,1.11601 0.0946,0.0872 0.18663,0.13977 0.26874,0.15354 0.0687,0.0115 0.13952,0.0246 0.15741,0.0291 0.09,0.0227 0.27571,-0.0252 0.40511,-0.10458 z"
       id="path1486"
       inkscape:connector-curvature="0" />
    <path
       style="fill:#a54b00;fill-opacity:1;stroke-width:0.02496186"
       d="m 89.057131,103.98328 c -0.992216,0.0415 -1.918171,0.77099 -2.901428,0.30445 -0.676893,-0.22135 -1.550733,-0.0385 -1.758104,0.68587 -0.729246,0.56226 -2.050678,0.0358 -2.464684,1.05462 -0.208906,0.81378 0.881229,1.03702 1.436341,0.70349 0.365411,-0.0177 1.019585,-0.51375 1.323215,-0.16599 -0.601377,4.60908 -1.278958,9.23475 -2.025468,13.8256 -0.420901,0.9061 -0.05815,1.92109 -0.372762,2.86218 0.01451,0.78104 -0.762271,1.23513 -0.988306,1.95761 -0.976653,1.18332 -0.912261,3.40825 0.646452,4.06408 1.302742,0.54827 2.66395,-0.61767 2.792011,-1.92069 0.146758,-0.27605 -0.07545,-0.99527 0.142799,-0.97796 1.673116,0.4287 3.294046,-0.64757 4.969859,-0.51587 1.826937,-0.0109 3.675576,-0.27855 5.482021,-0.16536 0.53225,0.42543 0.46741,1.50182 1.289216,1.70988 1.14008,0.42234 2.286675,-0.61443 2.279848,-1.76583 -0.04218,-0.61597 -0.0145,-1.44597 -0.641982,-1.78685 0.294897,-1.09367 -1.79911,-1.23099 -2.297775,-0.4352 -0.398902,0.44833 -0.52976,1.31446 -1.336059,1.06658 -2.76101,0.15802 -5.535014,0.27077 -8.301368,0.33267 -0.413781,-0.79437 -0.514096,-1.69159 -0.747689,-2.5231 -0.18884,-0.3938 -0.646336,0.053 -0.679998,-0.40583 -0.161684,-0.27111 -0.680134,-0.18204 -0.406637,-0.60104 0.664876,-4.94893 1.367401,-9.92779 2.106941,-14.84852 0.258919,-0.85261 1.438074,-0.59727 2.119509,-0.90472 0.54427,-0.10175 1.273571,-0.15578 1.185591,-0.86729 0.02196,-0.46595 -0.420999,-0.73899 -0.851543,-0.68278 z m 7.947015,20.46979 c 0.85387,0.49675 -0.631799,0.37954 0,0 z m 0.808579,0.18268 c -0.238829,0.6624 -0.889784,-0.0737 0,0 z m -8.409104,0.18112 c 0.249155,0.74679 -0.189787,0.47167 -0.03925,-0.013 z m 7.54118,0.82651 c 0.293022,1.15019 -1.34097,-0.25492 0,0 z m 1.026487,0.13075 c 0.103072,1.08887 -1.345659,-0.41992 0,0 z m -0.721725,0.5001 c 0.142367,0.10905 -0.209924,0.11393 0,0 z"
       id="path4550-3"
       inkscape:connector-curvature="0" />
    <path
       sodipodi:type="inkscape:offset"
       inkscape:radius="0"
       inkscape:original="M -97.734375 116.84961 C -98.744512 116.7648 -99.754242 117.29767 -100.77148 118.83594 C -97.691196 122.31118 -101.71967 122.0512 -103.81055 124.19922 C -105.86696 131.03464 -109.68708 121.39076 -112.66406 124.02734 C -114.31328 129.88669 -123.23333 133.03572 -127.47461 127.96094 C -124.8698 123.45641 -131.32953 115.72069 -134.02734 121.2207 C -132.508 125.98751 -138.15072 124.0579 -137.53125 127.91211 C -139.621 131.2735 -147.79896 126.69298 -148.4668 133.45508 C -152.70449 137.19052 -142.78187 141.81396 -149.06641 142.66406 C -152.44476 139.9856 -157.5729 137.20727 -161.29688 141.90039 C -165.60955 142.13099 -164.40391 147.36592 -160.49805 145.18359 C -158.57305 145.47944 -159.21638 155.32191 -162.80664 152.2207 C -165.17961 154.09409 -165.49602 158.53843 -166.36719 161.62891 C -166.3947 167.61636 -159.29095 163.72813 -156.95117 167.70703 C -159.66882 172.5977 -163.9172 176.14718 -167.21289 180.57812 C -170.44104 185.12428 -162.45997 190.94594 -168.4043 193.35156 C -172.54763 194.71865 -173.31135 201.07858 -167.86719 199.27148 C -167.0377 203.23902 -160.60276 204.2325 -156.66992 204.72852 C -158.35363 201.09868 -155.19073 201.00811 -152.14062 200.22852 C -148.78323 198.70033 -144.78185 195.90358 -141.06836 197.02734 C -142.27032 201.52892 -136.26131 203.09544 -133.53906 200.95312 C -130.8769 195.04785 -129.95835 203.46272 -126.17773 202.15234 C -121.6227 196.82486 -119.06745 203.86987 -115.85742 206.63867 C -112.49227 206.19059 -114.82456 209.94 -111.78906 209.8457 C -104.97676 212.61514 -103.39283 204.31223 -106.78711 200.10938 C -104.96864 197.11076 -96.617392 194.81256 -97.402344 200.89844 C -96.612553 208.39309 -89.513126 198.84496 -85.585938 202.97266 C -84.6678 207.71581 -78.402376 207.58188 -74.554688 206.05469 C -71.565753 206.65369 -70.573043 214.50018 -66.445312 209.31836 C -61.241557 212.09914 -67.498235 218.4979 -63.550781 222.04102 L -63.488281 222.10547 C -59.225518 224.83248 -60.985201 217.874 -57.996094 216.28711 C -57.486061 212.06837 -53.199795 212.87584 -52.103516 209.30469 C -56.712429 207.43193 -51.809589 205.2472 -49.259766 203.42578 C -41.513737 202.96068 -49.194585 194.52527 -43.287109 191.62695 C -40.764401 185.88078 -49.280841 183.65598 -52.53125 180.62305 C -52.580841 187.68886 -57.338547 180.00492 -60.525391 179.53125 C -63.531828 175.11688 -71.704332 184.48155 -68.798828 177.3457 C -66.513489 172.85689 -68.259724 169.02606 -64.201172 165.18359 C -59.705371 162.90999 -62.337592 159.3995 -66.482422 159.50586 C -63.416394 157.40895 -64.353191 156.2056 -67.878906 156.02344 C -73.07893 153.75268 -78.463899 149.84539 -80.138672 144.12305 C -81.979105 139.0175 -90.854756 140.59777 -91.363281 135.29102 C -91.236967 131.3682 -83.340302 127.33468 -88.427734 123.9043 C -91.670848 122.92567 -94.703965 117.10405 -97.734375 116.84961 z M -98.347656 118.24414 C -95.314612 117.30649 -92.819419 124.05331 -89.314453 124.73047 C -84.707523 128.64218 -94.856841 131.7649 -92.380859 136.92383 C -88.812311 140.45334 -98.107589 144.69385 -95.140625 149.78516 C -90.200223 154.6671 -97.287635 154.61899 -98.941406 158.48828 C -95.995805 163.46532 -103.05966 159.72104 -105.25977 161.85547 C -106.20719 162.21441 -107.1703 161.90125 -107.99414 161.41797 C -112.11771 158.5562 -108.78558 151.89799 -112.70703 148.67578 C -114.9568 146.97862 -121.08802 143.01072 -118.27734 140.73047 C -118.50748 140.8184 -118.68581 140.9891 -118.94336 141.0293 C -122.71379 143.72928 -112.34485 147.11576 -114.42578 150 C -117.0337 154.76663 -121.68194 148.31373 -124.92773 151.03516 C -127.97025 151.38005 -129.36119 153.70443 -131.76172 155.27539 C -133.97502 156.26915 -138.91498 155.72159 -140.41406 153.63867 C -142.63991 149.55863 -148.3594 145.2029 -145.55664 140.83789 C -150.28313 137.39978 -147.26453 128.87268 -141.12305 130.08984 C -135.96257 132.94247 -137.70468 125.36816 -133.65039 125.50391 C -133.69359 122.25218 -131.92248 118.26722 -128.81445 122.01172 C -129.85112 127.58164 -126.45532 132.99332 -120.10547 131.53516 C -114.95198 128.8398 -113.8508 137.33809 -117.15039 140.17383 C -116.85755 140.04962 -116.67869 139.90311 -116.29883 139.79688 C -114.05653 138.63423 -115.40713 135.83861 -115.04688 133.82617 C -116.53236 130.30759 -116.69073 129.59066 -112.6875 127.02734 C -111.57475 121.20056 -108.07822 129.45095 -105.25977 127.77734 C -104.02542 124.13182 -95.606032 123.38751 -99.685547 119.15625 C -99.225844 118.6686 -98.780948 118.37809 -98.347656 118.24414 z M -117.15039 140.17383 C -117.56897 140.35136 -118.01966 140.52142 -118.27734 140.73047 C -117.87781 140.57781 -117.46783 140.44664 -117.15039 140.17383 z M -89.890625 139.75195 C -87.305288 139.65018 -84.070206 141.92721 -81.935547 143.54102 C -78.837824 147.3536 -79.607423 148.88227 -83.810547 150.54492 C -89.831424 151.77053 -83.865509 157.40427 -87.457031 159.625 C -87.412924 161.20123 -89.197873 167.64646 -84.962891 166.92773 C -83.385599 169.88066 -80.193097 177.32638 -84.158203 178.75586 C -89.699762 179.01743 -94.153947 174.12503 -97.246094 170.16016 C -93.221957 166.97907 -101.07105 163.72789 -97.685547 160.76562 C -99.273459 156.81227 -95.471923 155.70854 -92.726562 154.19922 C -93.725484 150.7845 -96.551278 146.93232 -93.464844 143.16211 C -92.759919 140.73009 -91.441827 139.81302 -89.890625 139.75195 z M -155.0918 140.55664 C -153.31302 140.5992 -151.63169 141.44987 -150.46289 143.69922 C -145.64447 141.92024 -146.07736 148.60747 -142.67773 151.17383 C -141.51775 156.5681 -134.29498 154.33981 -134.35547 160.16211 C -134.44522 158.45456 -135.64086 156.01587 -134.4375 156.22461 C -131.12188 156.6416 -127.46949 152.13574 -125.49023 157.50391 C -127.76183 158.27358 -129.13397 161.07114 -127.80078 164.19531 C -123.78943 162.53117 -123.44997 167.76573 -122.62695 170.23242 C -125.38403 169.71022 -128.88589 172.69666 -131.37305 170.19141 C -136.25702 169.41545 -133.03325 173.64265 -137.27539 173.80078 L -137.92383 173.98828 L -138.14453 173.25 C -137.65573 170.51592 -139.16593 169.72614 -141.13086 169.52539 C -138.2967 169.67076 -139.76925 176.11485 -136.125 173.88867 C -132.54118 173.84669 -135.18572 171.22233 -132.98242 170.72656 C -129.92355 171.73284 -127.76372 171.81486 -124.60742 170.98047 C -121.50654 170.15676 -121.91697 178.57796 -125.3418 177.1875 C -125.9508 177.46375 -126.56117 177.65808 -127.16992 177.89453 C -121.75017 179.02937 -122.31862 174.72331 -122.30273 170.87109 C -120.13815 169.07155 -115.27612 171.99315 -115.42773 175.54297 C -112.52586 174.83528 -110.58797 177.28258 -108.67383 174.57031 C -109.08414 177.8291 -106.76292 183.14151 -108.57812 187.1582 C -110.55448 190.55258 -114.3558 198.79521 -107.8125 198.95703 C -107.2597 201.68605 -103.72734 210.05354 -109.69922 208.71875 L -110.96094 208.74414 L -111.84766 208.79102 C -112.35457 205.86191 -116.47619 206.01638 -118.16602 202.25195 C -124.85586 198.40245 -115.21885 195.97839 -116.35938 190.92773 C -119.63095 188.42787 -117.29292 183.267 -121.68164 182.3418 C -123.75035 179.64942 -133.45947 181.0095 -127.19336 177.90234 C -131.56158 179.59535 -135.96924 180.32262 -141.07812 179.87891 C -143.95518 179.37758 -152.81159 182.02558 -151.97266 177.44336 C -154.45795 172.19576 -147.67011 167.79813 -143.01758 170.04883 C -142.38371 169.70341 -141.88304 169.55783 -141.44922 169.50977 C -144.39381 169.30378 -148.1574 170.2268 -148.04102 168.2168 C -145.58355 163.80785 -141.48217 161.63982 -136.45312 161.60742 C -134.66743 162.05688 -134.35058 161.29337 -134.35742 160.30664 C -137.39331 162.47825 -143.4384 160.51706 -145.79883 164.57031 C -147.68861 168.90503 -154.67387 171.97784 -152.51172 177.1875 C -151.88692 183.38731 -158.10235 187.93926 -163.45508 189.17969 C -165.81356 190.06554 -164.98672 188.10709 -166.15039 186.92773 C -169.34914 180.20022 -160.79702 177.11116 -158.6582 171.97266 C -154.61944 169.3048 -155.59895 164.9077 -160.39258 164.41406 C -165.33456 165.65292 -166.80343 159.8911 -163.68555 156.88281 C -165.0386 151.02826 -159.43416 156.03598 -158.77734 151.50391 C -158.37752 147.82166 -157.45618 142.16401 -162.87109 144.36719 C -161.29127 142.66316 -158.05642 140.48571 -155.0918 140.55664 z M -134.35742 160.30664 C -134.35195 160.30272 -134.34335 160.30277 -134.33789 160.29883 C -134.33613 160.24463 -134.35602 160.21496 -134.35547 160.16211 C -134.35281 160.21261 -134.35776 160.2577 -134.35742 160.30664 z M -141.44922 169.50977 C -141.34424 169.51711 -141.23348 169.51491 -141.13086 169.52539 C -141.23692 169.51995 -141.33049 169.49661 -141.44922 169.50977 z M -127.19336 177.90234 C -127.18569 177.89937 -127.17759 177.89751 -127.16992 177.89453 C -127.17339 177.8938 -127.17426 177.89526 -127.17773 177.89453 C -127.18487 177.89806 -127.18626 177.89883 -127.19336 177.90234 z M -79.669922 149.42969 C -76.103419 150.1138 -73.436758 156.31693 -69.09375 156.80078 C -65.308184 157.08748 -67.205352 157.8171 -67.521484 160.17969 C -63.06984 161.16159 -61.784386 162.00724 -65.560547 165.38477 C -69.864185 168.61194 -67.384633 172.9715 -69.925781 176.92383 C -69.600172 178.86153 -71.062973 178.56369 -72.242188 178.24805 C -69.659227 178.81049 -71.522731 183.43621 -67.345703 181.0332 C -62.060517 175.9806 -57.394972 185.46437 -52.576172 184.5 C -51.774935 180.15187 -48.704954 185.09011 -46.789062 186.42188 C -39.99164 187.98759 -47.24524 193.14968 -47.21875 196.61719 C -43.811621 202.22562 -51.233438 202.16452 -54.058594 205.46875 C -58.53368 207.62641 -51.410073 209.10741 -54.546875 211.1543 C -58.543596 211.41066 -59.897692 217.46762 -61.435547 220.58398 L -61.541016 221.63672 L -61.642578 221.87305 C -66.385516 219.53492 -61.555207 214.21169 -63.626953 210.58008 C -64.674803 204.97749 -70.030969 212.33785 -70.535156 208.19336 C -72.15289 203.15536 -75.415537 205.41458 -78.914062 205.79883 C -83.637525 206.94002 -83.044591 202.44292 -86.513672 201.29297 C -87.47532 200.33703 -86.777709 195.77023 -87.699219 193.33008 C -91.457439 190.85018 -97.037142 188.85938 -98.886719 184.91211 C -93.170844 182.70738 -97.031453 176.01475 -101.22656 174.6582 C -105.15666 173.88087 -98.113736 168.09072 -97.21875 171.28516 C -93.793165 174.60377 -90.074049 179.26509 -84.832031 179.30859 C -81.014913 180.27128 -77.013222 175.87346 -73.720703 178.29688 C -73.15068 178.17352 -72.705437 178.16987 -72.335938 178.23438 C -72.408774 178.21449 -72.485068 178.22249 -72.554688 178.20312 C -75.398372 174.99796 -79.230504 178.90182 -82.253906 178.35547 C -81.86866 174.34871 -81.705911 166.4707 -86.925781 166.12891 C -85.991689 163.36415 -88.875871 160.06851 -85.494141 158.60938 C -87.634334 154.0939 -85.800292 151.27081 -81.259766 149.50781 C -80.705995 149.34746 -80.179422 149.33196 -79.669922 149.42969 z M -72.335938 178.23438 C -72.304709 178.2429 -72.273873 178.23957 -72.242188 178.24805 C -72.271457 178.24167 -72.305509 178.23969 -72.335938 178.23438 z M -113.69727 149.7793 C -111.97515 149.30549 -110.57043 152.61443 -111.00391 155.02344 C -111.77955 159.95255 -107.02722 161.37174 -105.82422 164.86719 C -104.97658 172.96521 -114.7122 164.54378 -116.6582 170.76562 L -117.5293 170.72266 L -118.48047 170.58203 C -123.51826 170.73693 -121.78061 165.79268 -124.93359 163.58594 C -128.10455 164.64047 -127.73639 162.47084 -127.77539 159.66602 C -125.23313 158.6534 -122.77937 157.9935 -126.56836 155.00195 C -129.92943 155.30217 -129.61676 152.51804 -126.67188 152.34961 C -123.10989 149.1988 -118.99658 153.39791 -115.46875 151.6875 C -114.88044 150.51515 -114.2713 149.93723 -113.69727 149.7793 z M -103.03711 161.41602 C -98.983319 160.66393 -94.632215 167.73969 -98.523438 170.04883 C -101.36739 171.32102 -103.52506 168.77114 -105.89844 168.52344 C -104.40849 167.02292 -107.34503 162.3764 -104.73242 162.25391 C -104.19039 161.79025 -103.61622 161.52346 -103.03711 161.41602 z M -114.11719 168.93164 C -109.53451 169.06814 -105.70101 168.43226 -101.67578 170.7832 C -100.42316 174.76295 -108.62689 173.11634 -110.66406 175.35352 C -111.26259 176.45787 -111.87478 174.37498 -112.77344 174.95898 C -116.64001 176.71631 -117.64883 169.48235 -114.11719 168.93164 z M -105.12891 174.64453 C -101.10946 173.7349 -95.0485 178.3639 -96.886719 182.82422 C -101.55478 184.00174 -98.669933 186.81286 -96.103516 188.89062 C -93.715979 191.65423 -87.016116 191.61089 -87.943359 196.10156 C -84.463775 202.35678 -91.862817 200.16917 -94.876953 202.91992 C -95.50874 203.53765 -95.841963 202.57642 -95.962891 202.13281 C -95.053486 194.73999 -102.66222 195.08436 -107.17969 198.0332 C -113.1606 199.81762 -110.62535 190.86087 -108.35156 187.87305 C -104.47091 184.0569 -112.06637 174.65253 -105.12891 174.64453 z M -148.57422 180.21094 C -147.68985 180.28468 -146.74729 180.42315 -145.7793 180.5293 C -140.19743 180.46153 -134.52812 179.87788 -129.03516 180.58594 C -125.34712 180.75494 -118.91344 182.43371 -119.19336 186.97461 C -115.73802 190.30871 -116.75262 195.05751 -120.47266 197.6875 C -122.976 198.58518 -126.65492 203.01467 -129.08203 199.71484 C -131.58164 193.84669 -134.98146 203.77439 -139.46875 200.16211 C -138.38153 194.76085 -144.0362 194.90869 -147.54297 196.75 C -150.16345 199.72701 -159.94417 198.49392 -157.59375 203.60547 C -158.54874 204.1986 -161.07302 202.45626 -162.41602 201.97461 C -167.14928 202.86256 -165.11887 197.19851 -169.56641 198.20508 C -174.53588 197.04148 -163.42099 193.41248 -164.63867 190.49023 C -161.92953 189.00014 -156.33311 187.60523 -154.07422 183.92383 C -153.35683 180.35153 -151.22732 179.98971 -148.57422 180.21094 z "
       style="fill:#009400;fill-opacity:1;stroke-width:0.0954811"
       id="path1518"
       d="m -97.734375,116.84961 c -1.010137,-0.0848 -2.019867,0.44806 -3.037105,1.98633 3.080284,3.47524 -0.94819,3.21526 -3.03907,5.36328 -2.05641,6.83542 -5.87653,-2.80846 -8.85351,-0.17188 -1.64922,5.85935 -10.56927,9.00838 -14.81055,3.9336 2.60481,-4.50453 -3.85492,-12.24025 -6.55273,-6.74024 1.51934,4.76681 -4.12338,2.8372 -3.50391,6.69141 -2.08975,3.36139 -10.26771,-1.21913 -10.93555,5.54297 -4.23769,3.73544 5.68493,8.35888 -0.59961,9.20898 -3.37835,-2.67846 -8.50649,-5.45679 -12.23047,-0.76367 -4.31267,0.2306 -3.10703,5.46553 0.79883,3.2832 1.925,0.29585 1.28167,10.13832 -2.30859,7.03711 -2.37297,1.87339 -2.68938,6.31773 -3.56055,9.40821 -0.0275,5.98745 7.07624,2.09922 9.41602,6.07812 -2.71765,4.89067 -6.96603,8.44015 -10.26172,12.87109 -3.22815,4.54616 4.75292,10.36782 -1.19141,12.77344 -4.14333,1.36709 -4.90705,7.72702 0.53711,5.91992 0.82949,3.96754 7.26443,4.96102 11.19727,5.45704 -1.68371,-3.62984 1.47919,-3.72041 4.5293,-4.5 3.35739,-1.52819 7.35877,-4.32494 11.07226,-3.20118 -1.20196,4.50158 4.80705,6.0681 7.5293,3.92578 2.66216,-5.90527 3.58071,2.5096 7.36133,1.19922 4.55503,-5.32748 7.11028,1.71753 10.32031,4.48633 3.36515,-0.44808 1.03286,3.30133 4.06836,3.20703 6.8123,2.76944 8.39623,-5.53347 5.00195,-9.73632 1.81847,-2.99862 10.169718,-5.29682 9.384766,0.78906 0.789791,7.49465 7.889218,-2.05348 11.816406,2.07422 0.918138,4.74315 7.183562,4.60922 11.03125,3.08203 2.988935,0.599 3.981645,8.44549 8.109376,3.26367 5.203755,2.78078 -1.052923,9.17954 2.894531,12.72266 l 0.0625,0.0644 c 4.262763,2.72701 2.50308,-4.23147 5.492187,-5.81836 0.510033,-4.21874 4.796299,-3.41127 5.892578,-6.98242 -4.608913,-1.87276 0.293927,-4.05749 2.84375,-5.87891 7.746029,-0.4651 0.06518,-8.90051 5.972657,-11.79883 2.522708,-5.74617 -5.993732,-7.97097 -9.244141,-11.0039 -0.04959,7.06581 -4.807297,-0.61813 -7.994141,-1.0918 -3.006437,-4.41437 -11.178941,4.9503 -8.273437,-2.18555 2.285339,-4.48881 0.539104,-8.31964 4.597656,-12.16211 4.495801,-2.2736 1.86358,-5.78409 -2.28125,-5.67773 3.066028,-2.09691 2.129231,-3.30026 -1.396484,-3.48242 -5.200024,-2.27076 -10.584993,-6.17805 -12.259766,-11.90039 -1.840433,-5.10555 -10.716084,-3.52528 -11.224609,-8.83203 0.126314,-3.92282 8.022979,-7.95634 2.935547,-11.38672 -3.243114,-0.97863 -6.276231,-6.80025 -9.306641,-7.05469 z m -0.613281,1.39453 c 3.033044,-0.93765 5.528237,5.80917 9.033203,6.48633 4.60693,3.91171 -5.542388,7.03443 -3.066406,12.19336 3.568548,3.52951 -5.72673,7.77002 -2.759766,12.86133 4.940402,4.88194 -2.14701,4.83383 -3.800781,8.70312 2.945601,4.97704 -4.118254,1.23276 -6.318364,3.36719 -0.94742,0.35894 -1.91053,0.0458 -2.73437,-0.4375 -4.12357,-2.86177 -0.79144,-9.51998 -4.71289,-12.74219 -2.24977,-1.69716 -8.38099,-5.66506 -5.57031,-7.94531 -0.23014,0.0879 -0.40847,0.25863 -0.66602,0.29883 -3.77043,2.69998 6.59851,6.08646 4.51758,8.9707 -2.60792,4.76663 -7.25616,-1.68627 -10.50195,1.03516 -3.04252,0.34489 -4.43346,2.66927 -6.83399,4.24023 -2.2133,0.99376 -7.15326,0.4462 -8.65234,-1.63672 -2.22585,-4.08004 -7.94534,-8.43577 -5.14258,-12.80078 -4.72649,-3.43811 -1.70789,-11.96521 4.43359,-10.74805 5.16048,2.85263 3.41837,-4.72168 7.47266,-4.58593 -0.0432,-3.25173 1.72791,-7.23669 4.83594,-3.49219 -1.03667,5.56992 2.35913,10.9816 8.70898,9.52344 5.15349,-2.69536 6.25467,5.80293 2.95508,8.63867 0.29284,-0.12421 0.4717,-0.27072 0.85156,-0.37695 2.2423,-1.16265 0.8917,-3.95827 1.25195,-5.97071 -1.48548,-3.51858 -1.64385,-4.23551 2.35938,-6.79883 1.11275,-5.82678 4.60928,2.42361 7.42773,0.75 1.23435,-3.64552 9.653738,-4.38983 5.574223,-8.62109 0.459703,-0.48765 0.904599,-0.77816 1.337891,-0.91211 z m -18.802734,21.92969 c -0.41858,0.17753 -0.86927,0.34759 -1.12695,0.55664 0.39953,-0.15266 0.80951,-0.28383 1.12695,-0.55664 z m 27.259765,-0.42188 c 2.585337,-0.10177 5.820419,2.17526 7.955078,3.78907 3.097723,3.81258 2.328124,5.34125 -1.875,7.0039 -6.020877,1.22561 -0.05496,6.85935 -3.646484,9.08008 0.04411,1.57623 -1.740842,8.02146 2.49414,7.30273 1.577292,2.95293 4.769794,10.39865 0.804688,11.82813 -5.541559,0.26157 -9.995744,-4.63083 -13.087891,-8.5957 4.024137,-3.18109 -3.824956,-6.43227 -0.439453,-9.39454 -1.587912,-3.95335 2.213624,-5.05708 4.958985,-6.5664 -0.998922,-3.41472 -3.824716,-7.2669 -0.738282,-11.03711 0.704925,-2.43202 2.023017,-3.34909 3.574219,-3.41016 z m -65.201175,0.80469 c 1.77878,0.0426 3.46011,0.89323 4.62891,3.14258 4.81842,-1.77898 4.38553,4.90825 7.78516,7.47461 1.15998,5.39427 8.38275,3.16598 8.32226,8.98828 -0.0898,-1.70755 -1.28539,-4.14624 -0.082,-3.9375 3.31562,0.41699 6.96801,-4.08887 8.94727,1.2793 -2.2716,0.76967 -3.64374,3.56723 -2.31055,6.6914 4.01135,-1.66414 4.35081,3.57042 5.17383,6.03711 -2.75708,-0.5222 -6.25894,2.46424 -8.7461,-0.041 -4.88397,-0.77596 -1.6602,3.45124 -5.90234,3.60937 l -0.64844,0.1875 -0.2207,-0.73828 c 0.4888,-2.73408 -1.0214,-3.52386 -2.98633,-3.72461 2.83416,0.14537 1.36161,6.58946 5.00586,4.36328 3.58382,-0.042 0.93928,-2.66634 3.14258,-3.16211 3.05887,1.00628 5.2187,1.0883 8.375,0.25391 3.10088,-0.82371 2.69045,7.59749 -0.73438,6.20703 -0.609,0.27625 -1.21937,0.47058 -1.82812,0.70703 5.41975,1.13484 4.8513,-3.17122 4.86719,-7.02344 2.16458,-1.79954 7.02661,1.12206 6.875,4.67188 2.90187,-0.70769 4.83976,1.73961 6.7539,-0.97266 -0.41031,3.25879 1.91091,8.5712 0.0957,12.58789 -1.97636,3.39438 -5.77768,11.63701 0.76562,11.79883 0.5528,2.72902 4.08516,11.09651 -1.88672,9.76172 l -1.26172,0.0254 -0.88672,0.0469 c -0.50691,-2.92911 -4.62853,-2.77464 -6.31836,-6.53907 -6.68984,-3.8495 2.94717,-6.27356 1.80664,-11.32422 -3.27157,-2.49986 -0.93354,-7.66073 -5.32226,-8.58593 -2.06871,-2.69238 -11.77783,-1.3323 -5.51172,-4.43946 -4.36822,1.69301 -8.77588,2.42028 -13.88476,1.97657 -2.87706,-0.50133 -11.73347,2.14667 -10.89454,-2.43555 -2.48529,-5.2476 4.30255,-9.64523 8.95508,-7.39453 0.63387,-0.34542 1.13454,-0.491 1.56836,-0.53906 -2.94459,-0.20599 -6.70818,0.71703 -6.5918,-1.29297 2.45747,-4.40895 6.55885,-6.57698 11.5879,-6.60938 1.78569,0.44946 2.10254,-0.31405 2.0957,-1.30078 -3.03589,2.17161 -9.08098,0.21042 -11.44141,4.26367 -1.88978,4.33472 -8.87504,7.40753 -6.71289,12.61719 0.6248,6.19981 -5.59063,10.75176 -10.94336,11.99219 -2.35848,0.88585 -1.53164,-1.0726 -2.69531,-2.25196 -3.19875,-6.72751 5.35337,-9.81657 7.49219,-14.95507 4.03876,-2.66786 3.05925,-7.06496 -1.73438,-7.5586 -4.94198,1.23886 -6.41085,-4.52296 -3.29297,-7.53125 -1.35305,-5.85455 4.25139,-0.84683 4.90821,-5.3789 0.39982,-3.68225 1.32116,-9.3399 -4.09375,-7.13672 1.57982,-1.70403 4.81467,-3.88148 7.77929,-3.81055 z m 20.73438,19.75 c 0.005,-0.004 0.0141,-0.004 0.0195,-0.008 0.002,-0.0542 -0.0181,-0.0839 -0.0176,-0.13672 0.003,0.0505 -0.002,0.0956 -0.002,0.14453 z m -7.0918,9.20313 c 0.10498,0.007 0.21574,0.005 0.31836,0.0156 -0.10606,-0.005 -0.19963,-0.0288 -0.31836,-0.0156 z m 14.25586,8.39257 c 0.008,-0.003 0.0158,-0.005 0.0234,-0.008 -0.003,-7.3e-4 -0.004,7.3e-4 -0.008,0 -0.007,0.004 -0.009,0.004 -0.0156,0.008 z m 47.523438,-28.47265 c 3.566503,0.68411 6.233164,6.88724 10.576172,7.37109 3.785566,0.2867 1.888398,1.01632 1.572266,3.37891 4.451644,0.9819 5.737098,1.82755 1.960937,5.20508 -4.303638,3.22717 -1.824086,7.58673 -4.365234,11.53906 0.325609,1.9377 -1.137192,1.63986 -2.316407,1.32422 2.582961,0.56244 0.719457,5.18816 4.896485,2.78515 5.285186,-5.0526 9.950731,4.43117 14.769531,3.4668 0.801237,-4.34813 3.871218,0.59011 5.78711,1.92188 6.797422,1.56571 -0.456178,6.7278 -0.429688,10.19531 3.407129,5.60843 -4.014688,5.54733 -6.839844,8.85156 -4.475086,2.15766 2.648521,3.63866 -0.488281,5.68555 -3.996721,0.25636 -5.350817,6.31332 -6.888672,9.42968 l -0.105469,1.05274 -0.101562,0.23633 c -4.742938,-2.33813 0.08737,-7.66136 -1.984375,-11.29297 -1.04785,-5.60259 -6.404016,1.75777 -6.908203,-2.38672 -1.617734,-5.038 -4.880381,-2.77878 -8.378906,-2.39453 -4.723463,1.14119 -4.130529,-3.35591 -7.59961,-4.50586 -0.961648,-0.95594 -0.264037,-5.52274 -1.185547,-7.96289 -3.75822,-2.4799 -9.337923,-4.4707 -11.1875,-8.41797 5.715875,-2.20473 1.855266,-8.89736 -2.339841,-10.25391 -3.9301,-0.77733 3.112824,-6.56748 4.00781,-3.37304 3.425585,3.31861 7.144701,7.97993 12.386719,8.02343 3.817118,0.96269 7.818809,-3.43513 11.111328,-1.01171 0.570023,-0.12336 1.015266,-0.12701 1.384765,-0.0625 -0.07284,-0.0199 -0.14913,-0.0119 -0.21875,-0.0313 -2.843684,-3.20516 -6.675816,0.6987 -9.699218,0.15235 0.385246,-4.00676 0.547995,-11.88477 -4.671875,-12.22656 0.934092,-2.76476 -1.95009,-6.0604 1.43164,-7.51953 -2.140193,-4.51548 -0.306151,-7.33857 4.234375,-9.10157 0.553771,-0.16035 1.080344,-0.17585 1.589844,-0.0781 z m 7.333984,28.80469 c 0.03123,0.009 0.06207,0.005 0.09375,0.0137 -0.02927,-0.006 -0.06332,-0.008 -0.09375,-0.0137 z M -113.69727,149.7793 c 1.72212,-0.47381 3.12684,2.83513 2.69336,5.24414 -0.77564,4.92911 3.97669,6.3483 5.17969,9.84375 0.84764,8.09802 -8.88798,-0.32341 -10.83398,5.89843 l -0.8711,-0.043 -0.95117,-0.14063 c -5.03779,0.1549 -3.30014,-4.78935 -6.45312,-6.99609 -3.17096,1.05453 -2.8028,-1.1151 -2.8418,-3.91992 2.54226,-1.01262 4.99602,-1.67252 1.20703,-4.66407 -3.36107,0.30022 -3.0484,-2.48391 -0.10352,-2.65234 3.56199,-3.15081 7.6753,1.0483 11.20313,-0.66211 0.58831,-1.17235 1.19745,-1.75027 1.77148,-1.9082 z m 10.66016,11.63672 c 4.053791,-0.75209 8.404895,6.32367 4.513672,8.63281 -2.843952,1.27219 -5.001622,-1.27769 -7.375002,-1.52539 1.48995,-1.50052 -1.44659,-6.14704 1.16602,-6.26953 0.54203,-0.46366 1.1162,-0.73045 1.69531,-0.83789 z m -11.08008,7.51562 c 4.58268,0.1365 8.41618,-0.49938 12.44141,1.85156 1.25262,3.97975 -6.95111,2.33314 -8.98828,4.57032 -0.59853,1.10435 -1.21072,-0.97854 -2.10938,-0.39454 -3.86657,1.75733 -4.87539,-5.47663 -1.34375,-6.02734 z m 8.98828,5.71289 c 4.01945,-0.90963 10.08041,3.71937 8.242191,8.17969 -4.668061,1.17752 -1.783214,3.98864 0.783203,6.0664 2.387537,2.76361 9.0874,2.72027 8.160157,7.21094 3.479584,6.25522 -3.919458,4.06761 -6.933594,6.81836 -0.631787,0.61773 -0.96501,-0.3435 -1.085938,-0.78711 0.909405,-7.39282 -6.699329,-7.04845 -11.216799,-4.09961 -5.98091,1.78442 -3.44566,-7.17233 -1.17187,-10.16015 3.88065,-3.81615 -3.71481,-13.22052 3.22265,-13.22852 z m -43.44531,5.56641 c 0.88437,0.0737 1.82693,0.21221 2.79492,0.31836 5.58187,-0.0678 11.25118,-0.65142 16.74414,0.0566 3.68804,0.169 10.12172,1.84777 9.8418,6.38867 3.45534,3.3341 2.44074,8.0829 -1.2793,10.71289 -2.50334,0.89768 -6.18226,5.32717 -8.60937,2.02734 -2.49961,-5.86815 -5.89943,4.05955 -10.38672,0.44727 1.08722,-5.40126 -4.56745,-5.25342 -8.07422,-3.41211 -2.62048,2.97701 -12.4012,1.74392 -10.05078,6.85547 -0.95499,0.59313 -3.47927,-1.14921 -4.82227,-1.63086 -4.73326,0.88795 -2.70285,-4.7761 -7.15039,-3.76953 -4.96947,-1.1636 6.14542,-4.7926 4.92774,-7.71485 2.70914,-1.49009 8.30556,-2.885 10.56445,-6.5664 0.71739,-3.5723 2.8469,-3.93412 5.5,-3.71289 z"
       transform="matrix(0.17673585,0,0,0.17673585,46.020357,122.90349)" />
    <rect
       style="opacity:1;fill:#ffffff;fill-opacity:1;stroke:#000000;stroke-width:0.74599999;stroke-miterlimit:4;stroke-dasharray:none;stroke-opacity:1"
       id="rect1525"
       width="20.896694"
       height="8.5115433"
       x="39.957474"
       y="148.25929" />
    <text
       xml:space="preserve"
       style="font-style:normal;font-variant:normal;font-weight:normal;font-stretch:normal;font-size:4.93888855px;line-height:1.25;font-family:Chandas;-inkscape-font-specification:'Chandas, Normal';font-variant-ligatures:normal;font-variant-caps:normal;font-variant-numeric:normal;font-feature-settings:normal;text-align:start;letter-spacing:0px;word-spacing:0px;writing-mode:lr-tb;text-anchor:start;fill:#000000;fill-opacity:1;stroke:none;stroke-width:0.26458332"
       x="42.228966"
       y="154.28867"
       id="text1529"><tspan
         sodipodi:role="line"
         id="tspan1527"
         x="42.228966"
         y="154.28867"
         style="stroke-width:0.26458332">Shift</tspan></text>
    <rect
       style="opacity:1;fill:#ffffff;fill-opacity:1;stroke:#000000;stroke-width:0.77705151;stroke-miterlimit:4;stroke-dasharray:none;stroke-opacity:1"
       id="rect1525-0"
       width="22.755524"
       height="8.4804916"
       x="75.40625"
       y="148.29033" />
    <text
       xml:space="preserve"
       style="font-style:normal;font-variant:normal;font-weight:normal;font-stretch:normal;font-size:4.93888855px;line-height:1.25;font-family:Chandas;-inkscape-font-specification:'Chandas, Normal';font-variant-ligatures:normal;font-variant-caps:normal;font-variant-numeric:normal;font-feature-settings:normal;text-align:start;letter-spacing:0px;word-spacing:0px;writing-mode:lr-tb;text-anchor:start;fill:#000000;fill-opacity:1;stroke:none;stroke-width:0.26458332"
       x="77.662216"
       y="154.30418"
       id="text1529-4"><tspan
         sodipodi:role="line"
         id="tspan1527-7"
         x="77.662216"
         y="154.30418"
         style="stroke-width:0.26458332">routing</tspan></text>
    <rect
       style="opacity:1;fill:#ffffff;fill-opacity:1;stroke:#000000;stroke-width:0.74599999;stroke-miterlimit:4;stroke-dasharray:none;stroke-opacity:1"
       id="rect1525-6"
       width="20.896694"
       height="8.5115433"
       x="112.44791"
       y="148.25929" />
    <text
       xml:space="preserve"
       style="font-style:normal;font-variant:normal;font-weight:normal;font-stretch:normal;font-size:4.93888855px;line-height:1.25;font-family:Chandas;-inkscape-font-specification:'Chandas, Normal';font-variant-ligatures:normal;font-variant-caps:normal;font-variant-numeric:normal;font-feature-settings:normal;text-align:start;letter-spacing:0px;word-spacing:0px;writing-mode:lr-tb;text-anchor:start;fill:#000000;fill-opacity:1;stroke:none;stroke-width:0.26458332"
       x="114.71941"
       y="154.28867"
       id="text1529-8"><tspan
         sodipodi:role="line"
         id="tspan1527-9"
         x="114.71941"
         y="154.28867"
         style="stroke-width:0.26458332">prio</tspan></text>
    <rect
       style="opacity:1;fill:#ffffff;fill-opacity:1;stroke:#000000;stroke-width:0.8380965;stroke-miterlimit:4;stroke-dasharray:none;stroke-opacity:1"
       id="rect1525-06"
       width="26.663229"
       height="8.4194469"
       x="75.40625"
       y="164.70833" />
    <text
       xml:space="preserve"
       style="font-style:normal;font-variant:normal;font-weight:normal;font-stretch:normal;font-size:4.93888855px;line-height:1.25;font-family:Chandas;-inkscape-font-specification:'Chandas, Normal';font-variant-ligatures:normal;font-variant-caps:normal;font-variant-numeric:normal;font-feature-settings:normal;text-align:start;letter-spacing:0px;word-spacing:0px;writing-mode:lr-tb;text-anchor:start;fill:#000000;fill-opacity:1;stroke:none;stroke-width:0.26458332"
       x="77.631691"
       y="170.69165"
       id="text1529-87"><tspan
         sodipodi:role="line"
         id="tspan1527-90"
         x="77.631691"
         y="170.69165"
         style="stroke-width:0.26458332">task ass.</tspan></text>
    <rect
       style="opacity:1;fill:#ffffff;fill-opacity:1;stroke:#000000;stroke-width:0.85463679;stroke-miterlimit:4;stroke-dasharray:none;stroke-opacity:1"
       id="rect1525-3"
       width="27.780617"
       height="8.4029064"
       x="75.40625"
       y="132.49294" />
    <text
       xml:space="preserve"
       style="font-style:normal;font-variant:normal;font-weight:normal;font-stretch:normal;font-size:4.93888855px;line-height:1.25;font-family:Chandas;-inkscape-font-specification:'Chandas, Normal';font-variant-ligatures:normal;font-variant-caps:normal;font-variant-numeric:normal;font-feature-settings:normal;text-align:start;letter-spacing:0px;word-spacing:0px;writing-mode:lr-tb;text-anchor:start;fill:#000000;fill-opacity:1;stroke:none;stroke-width:0.26458332"
       x="77.623421"
       y="138.46797"
       id="text1529-3"><tspan
         sodipodi:role="line"
         id="tspan1527-3"
         x="77.623421"
         y="138.46797"
         style="stroke-width:0.26458332">task pool</tspan></text>
    <rect
       style="opacity:1;fill:#ffffff;fill-opacity:1;stroke:#000000;stroke-width:0.76788342;stroke-miterlimit:4;stroke-dasharray:none;stroke-opacity:1"
       id="rect1525-7"
       width="22.197727"
       height="8.4896603"
       x="112.44791"
       y="132.40617" />
    <text
       xml:space="preserve"
       style="font-style:normal;font-variant:normal;font-weight:normal;font-stretch:normal;font-size:4.93888855px;line-height:1.25;font-family:Chandas;-inkscape-font-specification:'Chandas, Normal';font-variant-ligatures:normal;font-variant-caps:normal;font-variant-numeric:normal;font-feature-settings:normal;text-align:start;letter-spacing:0px;word-spacing:0px;writing-mode:lr-tb;text-anchor:start;fill:#000000;fill-opacity:1;stroke:none;stroke-width:0.26458332"
       x="114.70846"
       y="138.42461"
       id="text1529-32"><tspan
         sodipodi:role="line"
         id="tspan1527-6"
         x="114.70846"
         y="138.42461"
         style="stroke-width:0.26458332">ruleset</tspan></text>
    <path
       style="fill:none;stroke:#000000;stroke-width:0.26458332px;stroke-linecap:butt;stroke-linejoin:miter;stroke-opacity:1;marker-end:url(#Arrow1Lend)"
       d="m 63.499999,152.80208 h 9.260417"
       id="path1594"
       inkscape:connector-curvature="0" />
    <path
       style="fill:none;stroke:#000000;stroke-width:0.26499999;stroke-linecap:butt;stroke-linejoin:miter;stroke-miterlimit:4;stroke-dasharray:none;stroke-opacity:1;marker-start:url(#Arrow1Lstart);marker-end:url(#Arrow1Lend-0)"
       d="M 99.21875,152.80208 H 111.125"
       id="path1594-9"
       inkscape:connector-curvature="0"
       sodipodi:nodetypes="cc" />
    <path
       style="fill:none;stroke:#000000;stroke-width:0.26458332px;stroke-linecap:butt;stroke-linejoin:miter;stroke-opacity:1;marker-end:url(#Arrow1Lend-3)"
       d="m 87.356631,141.70543 -0.08045,5.29106"
       id="path1594-3"
       inkscape:connector-curvature="0"
       sodipodi:nodetypes="cc" />
    <path
       style="fill:none;stroke:#000000;stroke-width:0.26458332px;stroke-linecap:butt;stroke-linejoin:miter;stroke-opacity:1;marker-end:url(#Arrow1Lend-3-4)"
       d="m 123.03125,147.51042 v -5.29167"
       id="path1594-3-7"
       inkscape:connector-curvature="0"
       sodipodi:nodetypes="cc" />
    <path
       style="fill:none;stroke:#000000;stroke-width:0.26458332px;stroke-linecap:butt;stroke-linejoin:miter;stroke-opacity:1;marker-end:url(#Arrow1Lend-3-0)"
       d="m 87.3125,158.09375 v 5.29167"
       id="path1594-3-1"
       inkscape:connector-curvature="0"
       sodipodi:nodetypes="cc" />
    <text
       xml:space="preserve"
       style="font-style:normal;font-variant:normal;font-weight:normal;font-stretch:normal;font-size:4.93888855px;line-height:1.25;font-family:Chandas;-inkscape-font-specification:'Chandas, Normal';font-variant-ligatures:normal;font-variant-caps:normal;font-variant-numeric:normal;font-feature-settings:normal;text-align:start;letter-spacing:0px;word-spacing:0px;writing-mode:lr-tb;text-anchor:start;fill:#000000;fill-opacity:1;stroke:none;stroke-width:0.26458332"
       x="301.07562"
       y="194.96373"
       id="text3875"><tspan
         sodipodi:role="line"
         id="tspan3873"
         x="301.07562"
         y="198.54442"
         style="stroke-width:0.26458332" /></text>
    <rect
       style="opacity:1;fill:#ffffff;fill-opacity:1;stroke:#000000;stroke-width:0.94020385;stroke-miterlimit:4;stroke-dasharray:none;stroke-opacity:1"
       id="rect1525-6-00"
       width="33.967834"
       height="8.3173399"
       x="112.59243"
       y="116.9998" />
    <text
       xml:space="preserve"
       style="font-style:normal;font-variant:normal;font-weight:normal;font-stretch:normal;font-size:4.93888855px;line-height:1.25;font-family:Chandas;-inkscape-font-specification:'Chandas, Normal';font-variant-ligatures:normal;font-variant-caps:normal;font-variant-numeric:normal;font-feature-settings:normal;text-align:start;letter-spacing:0px;word-spacing:0px;writing-mode:lr-tb;text-anchor:start;fill:#000000;fill-opacity:1;stroke:none;stroke-width:0.26458332"
       x="114.76683"
       y="122.93207"
       id="text1529-8-6"><tspan
         sodipodi:role="line"
         id="tspan1527-9-44"
         x="114.76683"
         y="122.93207"
         style="stroke-width:0.26458332">recommend</tspan></text>
    <rect
       style="opacity:1;fill:#ffffff;fill-opacity:1;stroke:#000000;stroke-width:0.82354647;stroke-miterlimit:4;stroke-dasharray:none;stroke-opacity:1"
       id="rect1525-7-37"
       width="25.701059"
       height="8.4339972"
       x="112.52316"
       y="101.07742" />
    <text
       xml:space="preserve"
       style="font-style:normal;font-variant:normal;font-weight:normal;font-stretch:normal;font-size:4.93888855px;line-height:1.25;font-family:Chandas;-inkscape-font-specification:'Chandas, Normal';font-variant-ligatures:normal;font-variant-caps:normal;font-variant-numeric:normal;font-feature-settings:normal;text-align:start;letter-spacing:0px;word-spacing:0px;writing-mode:lr-tb;text-anchor:start;fill:#000000;fill-opacity:1;stroke:none;stroke-width:0.26458332"
       x="114.75587"
       y="107.06801"
       id="text1529-32-34"><tspan
         sodipodi:role="line"
         id="tspan1527-6-7"
         x="114.75587"
         y="107.06801"
         style="stroke-width:0.26458332">forecast</tspan></text>
    <path
       style="fill:none;stroke:#000000;stroke-width:0.26458332px;stroke-linecap:butt;stroke-linejoin:miter;stroke-opacity:1;marker-end:url(#Arrow1Lend-3-4-4)"
       d="m 122.79189,110.55174 -0.14076,5.2898"
       id="path1594-3-7-2"
       inkscape:connector-curvature="0"
       sodipodi:nodetypes="cc" />
    <path
       style="fill:none;stroke:#000000;stroke-width:0.26458332px;stroke-linecap:butt;stroke-linejoin:miter;stroke-opacity:1;marker-end:url(#Arrow1Lend-3-4-4-0)"
       d="m 123.01687,126.0185 -0.14076,5.2898"
       id="path1594-3-7-2-4"
       inkscape:connector-curvature="0"
       sodipodi:nodetypes="cc" />
    <path
       style="fill:none;stroke:#000000;stroke-width:0.26458332px;stroke-linecap:butt;stroke-linejoin:miter;stroke-opacity:1;marker-end:url(#Arrow1Lend-3-4-0)"
       d="m 110.48056,136.93835 -5.29019,0.12515"
       id="path1594-3-7-6"
       inkscape:connector-curvature="0"
       sodipodi:nodetypes="cc" />
  </g>
</svg>
