<?xml version="1.0" encoding="UTF-8" standalone="no"?>
<!-- Created with Inkscape (http://www.inkscape.org/) -->

<svg
   xmlns:dc="http://purl.org/dc/elements/1.1/"
   xmlns:cc="http://creativecommons.org/ns#"
   xmlns:rdf="http://www.w3.org/1999/02/22-rdf-syntax-ns#"
   xmlns:svg="http://www.w3.org/2000/svg"
   xmlns="http://www.w3.org/2000/svg"
   xmlns:sodipodi="http://sodipodi.sourceforge.net/DTD/sodipodi-0.dtd"
   xmlns:inkscape="http://www.inkscape.org/namespaces/inkscape"
   width="218.62567mm"
   height="146.19562mm"
   viewBox="0 0 218.62567 146.19562"
   version="1.1"
   id="svg8"
   inkscape:version="0.92.4 (5da689c313, 2019-01-14)"
   sodipodi:docname="infra_design.svg">
  <defs
     id="defs2">
    <marker
       inkscape:isstock="true"
       style="overflow:visible"
       id="marker10980"
       refX="0"
       refY="0"
       orient="auto"
       inkscape:stockid="Arrow1Lend">
      <path
         transform="matrix(-0.8,0,0,-0.8,-10,0)"
         style="fill:#000000;fill-opacity:1;fill-rule:evenodd;stroke:#000000;stroke-width:1.00000003pt;stroke-opacity:1"
         d="M 0,0 5,-5 -12.5,0 5,5 Z"
         id="path10978"
         inkscape:connector-curvature="0" />
    </marker>
    <marker
       inkscape:stockid="Arrow1Lend"
       orient="auto"
       refY="0"
       refX="0"
       id="Arrow1Lend"
       style="overflow:visible"
       inkscape:isstock="true"
       inkscape:collect="always">
      <path
         id="path980"
         d="M 0,0 5,-5 -12.5,0 5,5 Z"
         style="fill:#000000;fill-opacity:1;fill-rule:evenodd;stroke:#000000;stroke-width:1.00000003pt;stroke-opacity:1"
         transform="matrix(-0.8,0,0,-0.8,-10,0)"
         inkscape:connector-curvature="0" />
    </marker>
    <marker
       inkscape:stockid="Arrow1Lend"
       orient="auto"
       refY="0"
       refX="0"
       id="Arrow1Lend-0"
       style="overflow:visible"
       inkscape:isstock="true">
      <path
         inkscape:connector-curvature="0"
         id="path980-1"
         d="M 0,0 5,-5 -12.5,0 5,5 Z"
         style="fill:#000000;fill-opacity:1;fill-rule:evenodd;stroke:#000000;stroke-width:1.00000003pt;stroke-opacity:1"
         transform="matrix(-0.8,0,0,-0.8,-10,0)" />
    </marker>
    <marker
       inkscape:stockid="Arrow1Lend"
       orient="auto"
       refY="0"
       refX="0"
       id="Arrow1Lend-1"
       style="overflow:visible"
       inkscape:isstock="true">
      <path
         inkscape:connector-curvature="0"
         id="path980-3"
         d="M 0,0 5,-5 -12.5,0 5,5 Z"
         style="fill:#000000;fill-opacity:1;fill-rule:evenodd;stroke:#000000;stroke-width:1.00000003pt;stroke-opacity:1"
         transform="matrix(-0.8,0,0,-0.8,-10,0)" />
    </marker>
    <marker
       inkscape:stockid="Arrow1Lend"
       orient="auto"
       refY="0"
       refX="0"
       id="Arrow1Lend-1-7"
       style="overflow:visible"
       inkscape:isstock="true">
      <path
         inkscape:connector-curvature="0"
         id="path980-3-2"
         d="M 0,0 5,-5 -12.5,0 5,5 Z"
         style="fill:#000000;fill-opacity:1;fill-rule:evenodd;stroke:#000000;stroke-width:1.00000003pt;stroke-opacity:1"
         transform="matrix(-0.8,0,0,-0.8,-10,0)" />
    </marker>
    <marker
       inkscape:stockid="Arrow1Lend"
       orient="auto"
       refY="0"
       refX="0"
       id="Arrow1Lend-4"
       style="overflow:visible"
       inkscape:isstock="true">
      <path
         inkscape:connector-curvature="0"
         id="path980-5"
         d="M 0,0 5,-5 -12.5,0 5,5 Z"
         style="fill:#000000;fill-opacity:1;fill-rule:evenodd;stroke:#000000;stroke-width:1.00000003pt;stroke-opacity:1"
         transform="matrix(-0.8,0,0,-0.8,-10,0)" />
    </marker>
    <marker
       inkscape:stockid="Arrow1Lend"
       orient="auto"
       refY="0"
       refX="0"
       id="Arrow1Lend-4-0"
       style="overflow:visible"
       inkscape:isstock="true">
      <path
         inkscape:connector-curvature="0"
         id="path980-5-2"
         d="M 0,0 5,-5 -12.5,0 5,5 Z"
         style="fill:#000000;fill-opacity:1;fill-rule:evenodd;stroke:#000000;stroke-width:1.00000003pt;stroke-opacity:1"
         transform="matrix(-0.8,0,0,-0.8,-10,0)" />
    </marker>
    <marker
       inkscape:stockid="Arrow1Lend"
       orient="auto"
       refY="0"
       refX="0"
       id="Arrow1Lend-09"
       style="overflow:visible"
       inkscape:isstock="true">
      <path
         inkscape:connector-curvature="0"
         id="path980-9"
         d="M 0,0 5,-5 -12.5,0 5,5 Z"
         style="fill:#000000;fill-opacity:1;fill-rule:evenodd;stroke:#000000;stroke-width:1.00000003pt;stroke-opacity:1"
         transform="matrix(-0.8,0,0,-0.8,-10,0)" />
    </marker>
    <marker
       inkscape:stockid="Arrow1Lend"
       orient="auto"
       refY="0"
       refX="0"
       id="Arrow1Lend-5"
       style="overflow:visible"
       inkscape:isstock="true">
      <path
         inkscape:connector-curvature="0"
         id="path980-10"
         d="M 0,0 5,-5 -12.5,0 5,5 Z"
         style="fill:#000000;fill-opacity:1;fill-rule:evenodd;stroke:#000000;stroke-width:1.00000003pt;stroke-opacity:1"
         transform="matrix(-0.8,0,0,-0.8,-10,0)" />
    </marker>
    <marker
       inkscape:stockid="Arrow1Lend"
       orient="auto"
       refY="0"
       refX="0"
       id="Arrow1Lend-5-0"
       style="overflow:visible"
       inkscape:isstock="true">
      <path
         inkscape:connector-curvature="0"
         id="path980-10-4"
         d="M 0,0 5,-5 -12.5,0 5,5 Z"
         style="fill:#000000;fill-opacity:1;fill-rule:evenodd;stroke:#000000;stroke-width:1.00000003pt;stroke-opacity:1"
         transform="matrix(-0.8,0,0,-0.8,-10,0)" />
    </marker>
    <marker
       inkscape:isstock="true"
       style="overflow:visible"
       id="marker10980-3"
       refX="0"
       refY="0"
       orient="auto"
       inkscape:stockid="Arrow1Lend">
      <path
         inkscape:connector-curvature="0"
         transform="matrix(-0.8,0,0,-0.8,-10,0)"
         style="fill:#000000;fill-opacity:1;fill-rule:evenodd;stroke:#000000;stroke-width:1.00000003pt;stroke-opacity:1"
         d="M 0,0 5,-5 -12.5,0 5,5 Z"
         id="path10978-8" />
    </marker>
    <marker
       inkscape:stockid="Arrow1Lend"
       orient="auto"
       refY="0"
       refX="0"
       id="Arrow1Lend-1-3"
       style="overflow:visible"
       inkscape:isstock="true">
      <path
         inkscape:connector-curvature="0"
         id="path980-3-3"
         d="M 0,0 5,-5 -12.5,0 5,5 Z"
         style="fill:#000000;fill-opacity:1;fill-rule:evenodd;stroke:#000000;stroke-width:1.00000003pt;stroke-opacity:1"
         transform="matrix(-0.8,0,0,-0.8,-10,0)" />
    </marker>
    <marker
       inkscape:stockid="Arrow1Lend"
       orient="auto"
       refY="0"
       refX="0"
       id="Arrow1Lend-5-3"
       style="overflow:visible"
       inkscape:isstock="true">
      <path
         inkscape:connector-curvature="0"
         id="path980-10-6"
         d="M 0,0 5,-5 -12.5,0 5,5 Z"
         style="fill:#000000;fill-opacity:1;fill-rule:evenodd;stroke:#000000;stroke-width:1.00000003pt;stroke-opacity:1"
         transform="matrix(-0.8,0,0,-0.8,-10,0)" />
    </marker>
    <marker
       inkscape:stockid="Arrow1Lend"
       orient="auto"
       refY="0"
       refX="0"
       id="Arrow1Lend-5-3-5"
       style="overflow:visible"
       inkscape:isstock="true">
      <path
         inkscape:connector-curvature="0"
         id="path980-10-6-3"
         d="M 0,0 5,-5 -12.5,0 5,5 Z"
         style="fill:#000000;fill-opacity:1;fill-rule:evenodd;stroke:#000000;stroke-width:1.00000003pt;stroke-opacity:1"
         transform="matrix(-0.8,0,0,-0.8,-10,0)" />
    </marker>
    <marker
       inkscape:stockid="Arrow1Lend"
       orient="auto"
       refY="0"
       refX="0"
       id="Arrow1Lend-5-3-6"
       style="overflow:visible"
       inkscape:isstock="true">
      <path
         inkscape:connector-curvature="0"
         id="path980-10-6-2"
         d="M 0,0 5,-5 -12.5,0 5,5 Z"
         style="fill:#000000;fill-opacity:1;fill-rule:evenodd;stroke:#000000;stroke-width:1.00000003pt;stroke-opacity:1"
         transform="matrix(-0.8,0,0,-0.8,-10,0)" />
    </marker>
    <marker
       inkscape:stockid="Arrow1Lend"
       orient="auto"
       refY="0"
       refX="0"
       id="Arrow1Lend-5-3-6-1"
       style="overflow:visible"
       inkscape:isstock="true">
      <path
         inkscape:connector-curvature="0"
         id="path980-10-6-2-2"
         d="M 0,0 5,-5 -12.5,0 5,5 Z"
         style="fill:#000000;fill-opacity:1;fill-rule:evenodd;stroke:#000000;stroke-width:1.00000003pt;stroke-opacity:1"
         transform="matrix(-0.8,0,0,-0.8,-10,0)" />
    </marker>
  </defs>
  <sodipodi:namedview
     id="base"
     pagecolor="#ffffff"
     bordercolor="#666666"
     borderopacity="1.0"
     inkscape:pageopacity="0.0"
     inkscape:pageshadow="2"
     inkscape:zoom="0.98994949"
     inkscape:cx="107.51429"
     inkscape:cy="277.39378"
     inkscape:document-units="mm"
     inkscape:current-layer="layer1"
     showgrid="false"
     inkscape:window-width="1850"
     inkscape:window-height="1016"
     inkscape:window-x="70"
     inkscape:window-y="27"
     inkscape:window-maximized="1"
     fit-margin-top="0"
     fit-margin-left="0"
     fit-margin-right="0"
     fit-margin-bottom="0">
    <inkscape:grid
       type="xygrid"
       id="grid2818"
       originx="-17.870227"
       originy="-192.3999" />
  </sodipodi:namedview>
  <metadata
     id="metadata5">
    <rdf:RDF>
      <cc:Work
         rdf:about="">
        <dc:format>image/svg+xml</dc:format>
        <dc:type
           rdf:resource="http://purl.org/dc/dcmitype/StillImage" />
        <dc:title></dc:title>
      </cc:Work>
    </rdf:RDF>
  </metadata>
  <g
     inkscape:label="Layer 1"
     inkscape:groupmode="layer"
     id="layer1"
     transform="translate(-17.870227,41.595515)">
    <rect
       style="opacity:0.51999996;fill:none;fill-opacity:1;stroke:#6a0000;stroke-width:0.87;stroke-miterlimit:4;stroke-dasharray:none;stroke-opacity:1"
       id="rect815"
       width="24.207537"
       height="8.7105131"
       x="28.717663"
       y="66.463829" />
    <rect
       style="opacity:0.51999996;fill:none;fill-opacity:1;stroke:#000000;stroke-width:0.86500001;stroke-miterlimit:4;stroke-dasharray:none;stroke-opacity:1"
       id="rect825"
       width="34.962795"
       height="11.528275"
       x="122.46428"
       y="38.842258" />
    <text
       xml:space="preserve"
       style="font-style:normal;font-variant:normal;font-weight:normal;font-stretch:normal;font-size:4.93888855px;line-height:1.25;font-family:Chandas;-inkscape-font-specification:'Chandas, Normal';font-variant-ligatures:normal;font-variant-caps:normal;font-variant-numeric:normal;font-feature-settings:normal;text-align:start;letter-spacing:0px;word-spacing:0px;writing-mode:lr-tb;text-anchor:start;fill:#000000;fill-opacity:1;stroke:none;stroke-width:0.26458332"
       x="30.616072"
       y="72.519989"
       id="text829"><tspan
         sodipodi:role="line"
         id="tspan827"
         x="30.616072"
         y="72.519989"
         style="stroke-width:0.26458332">/devices</tspan></text>
    <text
       xml:space="preserve"
       style="font-style:normal;font-variant:normal;font-weight:normal;font-stretch:normal;font-size:4.93888855px;line-height:1.25;font-family:Chandas;-inkscape-font-specification:'Chandas, Normal';font-variant-ligatures:normal;font-variant-caps:normal;font-variant-numeric:normal;font-feature-settings:normal;text-align:start;letter-spacing:0px;word-spacing:0px;writing-mode:lr-tb;text-anchor:start;fill:#000000;fill-opacity:1;stroke:none;stroke-width:0.26458332"
       x="124.54314"
       y="46.023808"
       id="text833"><tspan
         sodipodi:role="line"
         id="tspan831"
         x="124.54314"
         y="46.023808"
         style="stroke-width:0.26458332">fleet_engine</tspan></text>
    <rect
       style="opacity:0.51999996;fill:none;fill-opacity:1;stroke:#e25434;stroke-width:0.87;stroke-miterlimit:4;stroke-dasharray:none;stroke-opacity:1"
       id="rect815-8"
       width="24.207537"
       height="8.7105131"
       x="76.45607"
       y="48.661137" />
    <text
       xml:space="preserve"
       style="font-style:normal;font-variant:normal;font-weight:normal;font-stretch:normal;font-size:4.93888855px;line-height:1.25;font-family:Chandas;-inkscape-font-specification:'Chandas, Normal';font-variant-ligatures:normal;font-variant-caps:normal;font-variant-numeric:normal;font-feature-settings:normal;text-align:start;letter-spacing:0px;word-spacing:0px;writing-mode:lr-tb;text-anchor:start;fill:#000000;fill-opacity:1;stroke:none;stroke-width:0.26458332"
       x="79.186028"
       y="55.057476"
       id="text852"><tspan
         sodipodi:role="line"
         id="tspan850"
         x="79.186028"
         y="55.057476"
         style="stroke-width:0.26458332">/ruleset</tspan></text>
    <rect
       style="opacity:0.51999996;fill:none;fill-opacity:1;stroke:#e25434;stroke-width:0.82300001;stroke-miterlimit:4;stroke-dasharray:none;stroke-opacity:1"
       id="rect815-8-2"
       width="41.530556"
       height="8.4576406"
       x="94.611946"
       y="9.1000481" />
    <text
       xml:space="preserve"
       style="font-style:normal;font-variant:normal;font-weight:normal;font-stretch:normal;font-size:4.93888855px;line-height:1.25;font-family:Chandas;-inkscape-font-specification:'Chandas, Normal';font-variant-ligatures:normal;font-variant-caps:normal;font-variant-numeric:normal;font-feature-settings:normal;text-align:start;letter-spacing:0px;word-spacing:0px;writing-mode:lr-tb;text-anchor:start;fill:#000000;fill-opacity:1;stroke:none;stroke-width:0.26458332"
       x="98.273804"
       y="15.369939"
       id="text852-6"><tspan
         sodipodi:role="line"
         id="tspan850-0"
         x="98.273804"
         y="15.369939"
         style="stroke-width:0.26458332">antani/jobs</tspan></text>
    <rect
       style="opacity:0.51999996;fill:none;fill-opacity:1;stroke:#6a72b8;stroke-width:0.82300007;stroke-miterlimit:4;stroke-dasharray:none;stroke-opacity:1"
       id="rect815-8-2-6"
       width="41.530556"
       height="8.4576406"
       x="93.982918"
       y="-29.990376" />
    <text
       xml:space="preserve"
       style="font-style:normal;font-variant:normal;font-weight:normal;font-stretch:normal;font-size:4.93888855px;line-height:1.25;font-family:Chandas;-inkscape-font-specification:'Chandas, Normal';font-variant-ligatures:normal;font-variant-caps:normal;font-variant-numeric:normal;font-feature-settings:normal;text-align:start;letter-spacing:0px;word-spacing:0px;writing-mode:lr-tb;text-anchor:start;fill:#000000;fill-opacity:1;stroke:none;stroke-width:0.26458332"
       x="97.644775"
       y="-23.72048"
       id="text852-6-6"><tspan
         sodipodi:role="line"
         id="tspan850-0-4"
         x="97.644775"
         y="-23.72048"
         style="stroke-width:0.26458332">antani/status</tspan></text>
    <rect
       style="opacity:0.51999996;fill:none;fill-opacity:1;stroke:#6a0000;stroke-width:0.82300007;stroke-miterlimit:4;stroke-dasharray:none;stroke-opacity:1"
       id="rect815-8-2-62"
       width="41.530556"
       height="8.4576406"
       x="142.52045"
       y="9.2890368" />
    <text
       xml:space="preserve"
       style="font-style:normal;font-variant:normal;font-weight:normal;font-stretch:normal;font-size:4.93888855px;line-height:1.25;font-family:Chandas;-inkscape-font-specification:'Chandas, Normal';font-variant-ligatures:normal;font-variant-caps:normal;font-variant-numeric:normal;font-feature-settings:normal;text-align:start;letter-spacing:0px;word-spacing:0px;writing-mode:lr-tb;text-anchor:start;fill:#000000;fill-opacity:1;stroke:none;stroke-width:0.26458332"
       x="145.12398"
       y="15.558928"
       id="text852-6-8"><tspan
         sodipodi:role="line"
         id="tspan850-0-9"
         x="145.12398"
         y="15.558928"
         style="stroke-width:0.26458332">antani/solve</tspan></text>
    <rect
       style="opacity:0.51999996;fill:none;fill-opacity:1;stroke:#6a72b8;stroke-width:0.82300013;stroke-miterlimit:4;stroke-dasharray:none;stroke-opacity:1"
       id="rect815-8-2-6-6"
       width="41.530556"
       height="8.4576406"
       x="142.74184"
       y="-30.179365" />
    <text
       xml:space="preserve"
       style="font-style:normal;font-variant:normal;font-weight:normal;font-stretch:normal;font-size:4.93888855px;line-height:1.25;font-family:Chandas;-inkscape-font-specification:'Chandas, Normal';font-variant-ligatures:normal;font-variant-caps:normal;font-variant-numeric:normal;font-feature-settings:normal;text-align:start;letter-spacing:0px;word-spacing:0px;writing-mode:lr-tb;text-anchor:start;fill:#000000;fill-opacity:1;stroke:none;stroke-width:0.26458332"
       x="143.22874"
       y="-23.90947"
       id="text852-6-6-0"><tspan
         sodipodi:role="line"
         id="tspan850-0-4-7"
         x="143.22874"
         y="-23.90947"
         style="stroke-width:0.26458332">antani/longtask</tspan></text>
    <path
       style="opacity:0.51999996;fill:#a429bb;fill-opacity:1;stroke-width:0.03252465"
       d="m 166.42558,53.38711 c -0.92118,-0.155 -1.68866,-0.85821 -1.94871,-1.78554 -0.0564,-0.20124 -0.0593,-0.51436 -0.0593,-6.50494 0,-5.990584 0.003,-6.303694 0.0593,-6.504924 0.23783,-0.84809 0.89774,-1.508 1.74583,-1.74583 0.20124,-0.0564 0.51435,-0.0593 6.50493,-0.0593 5.99059,0 6.30371,0.003 6.50493,0.0593 0.84809,0.23783 1.50801,0.89774 1.74584,1.74583 0.0564,0.20123 0.0593,0.51434 0.0593,6.504924 0,5.99058 -0.003,6.3037 -0.0593,6.50494 -0.23562,0.84017 -0.87956,1.48985 -1.72957,1.74496 -0.18473,0.0554 -0.52779,0.0589 -6.42362,0.064 -3.49343,0.003 -6.30364,-0.007 -6.39963,-0.0234 z M 178.95611,52.691 c 0.69454,-0.14582 1.22007,-0.67135 1.36589,-1.36589 0.0719,-0.34239 0.0719,-12.114574 0,-12.456944 -0.13429,-0.63958 -0.56876,-1.11614 -1.21954,-1.33767 -0.17235,-0.0587 -0.40521,-0.0609 -6.37483,-0.0609 -5.96961,0 -6.20248,0.002 -6.37483,0.0609 -0.59769,0.20346 -0.98785,0.59362 -1.19131,1.19131 -0.0586,0.17235 -0.0609,0.40521 -0.0609,6.374824 0,5.96961 0.002,6.20248 0.0609,6.37483 0.19141,0.5623 0.55133,0.94748 1.06951,1.14458 0.0938,0.0357 0.22913,0.0766 0.30067,0.0908 0.0715,0.0143 2.84511,0.0272 6.16344,0.0289 5.19077,0.002 6.06512,-0.004 6.261,-0.0448 z M 167.2635,52.3145 c -0.44977,-0.0511 -0.82785,-0.23915 -1.17122,-0.58252 -0.45492,-0.45492 -0.64939,-1.00285 -0.58447,-1.64681 0.099,-0.98194 0.87512,-1.71829 1.88687,-1.79015 0.97928,-0.0695 1.85836,0.55947 2.09646,1.50013 0.0993,0.39239 0.051,0.97028 -0.11183,1.33848 l -0.061,0.13786 0.12852,0.0891 c 0.33278,0.23061 0.41607,0.47622 0.22596,0.66633 -0.0758,0.0758 -0.12361,0.0951 -0.2358,0.0951 -0.11747,-2e-5 -0.17154,-0.0243 -0.32714,-0.14637 -0.10253,-0.0805 -0.19366,-0.14634 -0.20251,-0.14634 -0.009,0 -0.1142,0.0658 -0.23409,0.14621 -0.41921,0.28115 -0.90061,0.39692 -1.40978,0.33906 z m 0.59585,-0.72905 c 0.20619,-0.0537 0.44493,-0.16514 0.44493,-0.20767 0,-0.015 -0.17198,-0.16221 -0.38217,-0.32709 -0.39883,-0.31285 -0.46041,-0.38332 -0.46232,-0.52905 -0.002,-0.20278 0.14662,-0.35117 0.35329,-0.35117 0.0973,0 0.19566,0.0654 0.72675,0.48344 l 0.2193,0.1726 0.0397,-0.0922 c 0.0226,-0.0525 0.0403,-0.2394 0.0409,-0.43373 7.9e-4,-0.31638 -0.006,-0.35705 -0.1,-0.55291 -0.14822,-0.30975 -0.32976,-0.49674 -0.62295,-0.64164 -0.23971,-0.11847 -0.26006,-0.12269 -0.59145,-0.12269 -0.31785,0 -0.35925,0.008 -0.56044,0.10292 -0.30109,0.14265 -0.49082,0.32785 -0.63528,0.62013 -0.26667,0.53959 -0.14961,1.19118 0.28447,1.58335 0.33322,0.30104 0.7996,0.4118 1.24523,0.29572 z m 4.27486,0.72847 c -0.83493,-0.0911 -1.52334,-0.70882 -1.73578,-1.55759 -0.0779,-0.31113 -0.0487,-0.81991 0.0645,-1.12645 0.047,-0.12738 0.0856,-0.23903 0.0856,-0.2481 0,-0.009 -0.0803,-0.0718 -0.17853,-0.13945 -0.2173,-0.14966 -0.27704,-0.23537 -0.27609,-0.39609 7.9e-4,-0.19278 0.15,-0.33452 0.35133,-0.33452 0.0628,0 0.16507,0.0508 0.29495,0.14636 0.10935,0.0805 0.21328,0.14637 0.23097,0.14637 0.0177,0 0.0946,-0.0476 0.17094,-0.10571 0.30657,-0.23349 0.85729,-0.41469 1.26033,-0.41469 1.25654,0 2.21709,1.1746 1.96993,2.4089 -0.0842,0.42067 -0.24231,0.7132 -0.55335,1.02397 -0.47567,0.47525 -1.02296,0.66918 -1.68476,0.597 z m 0.58203,-0.7252 c 0.52411,-0.13955 0.89637,-0.5488 0.99176,-1.0903 0.0981,-0.55668 -0.22793,-1.15371 -0.77716,-1.42333 -0.17068,-0.0838 -0.21808,-0.0918 -0.54472,-0.0918 -0.32558,0 -0.37601,0.008 -0.56057,0.0937 -0.11155,0.0515 -0.21889,0.11306 -0.23856,0.13675 -0.0281,0.0338 0.0504,0.10654 0.36488,0.33837 0.22034,0.16242 0.41864,0.32775 0.44067,0.36739 0.022,0.0397 0.0406,0.12841 0.0412,0.19726 0.002,0.17051 -0.14614,0.3139 -0.32336,0.3139 -0.12181,0 -0.26668,-0.0895 -0.82168,-0.5076 l -0.1542,-0.11616 -0.0368,0.0923 c -0.0202,0.0508 -0.0442,0.19709 -0.0532,0.32513 -0.0629,0.89323 0.79899,1.5967 1.67166,1.36434 z m 4.28838,0.72803 c -0.45294,-0.0533 -0.82067,-0.22578 -1.15626,-0.54236 -0.26749,-0.25234 -0.45034,-0.54398 -0.55701,-0.88837 -0.1104,-0.35651 -0.10482,-0.86358 0.0133,-1.20341 0.12624,-0.36334 0.23834,-0.54255 0.51079,-0.81665 0.19521,-0.19636 0.30306,-0.2745 0.52245,-0.37845 0.15205,-0.072 0.348,-0.14803 0.43545,-0.16883 0.22327,-0.0531 0.74781,-0.0458 0.97378,0.0136 0.40956,0.10767 0.82738,0.374919 1.06815,0.6832 l 0.13442,0.172119 0.20953,-0.094 c 0.26806,-0.12027 0.39971,-0.1214 0.52932,-0.005 0.23102,0.20825 0.13459,0.47529 -0.22684,0.62821 l -0.20997,0.0888 -0.004,0.46678 c -0.004,0.49831 -0.03,0.61512 -0.22175,0.99342 -0.35962,0.70968 -1.20121,1.14699 -2.02161,1.05046 z m 0.62506,-0.73174 c 0.54004,-0.16037 0.95239,-0.71797 0.95239,-1.28786 0,-0.10545 -0.005,-0.19172 -0.0107,-0.19172 -0.006,0 -0.21329,0.0878 -0.4609,0.19514 -0.50381,0.2184 -0.64352,0.24 -0.78197,0.1209 -0.0622,-0.0534 -0.091,-0.11542 -0.10287,-0.22104 -0.0258,-0.2283 0.0577,-0.302 0.6017,-0.5314 l 0.4564,-0.19246 -0.0495,-0.0756 c -0.0751,-0.11461 -0.41896,-0.33059 -0.61889,-0.38871 -0.24276,-0.0706 -0.64678,-0.0483 -0.89643,0.0493 -0.53973,0.2111 -0.92069,0.89638 -0.8086,1.45454 0.10363,0.51598 0.41646,0.87412 0.91076,1.04259 0.25622,0.0873 0.56877,0.0975 0.80861,0.0262 z M 167.33234,46.7674 c -0.16291,-0.11412 -0.16642,-0.15325 -0.16642,-1.85764 v -1.58751 l -0.21536,-0.0938 c -1.06176,-0.46255 -1.06288,-2.04529 -0.002,-2.50755 l 0.21358,-0.0931 0.01,-0.94488 c 0.0106,-1.00966 0.0153,-1.03964 0.17899,-1.12723 0.0954,-0.0511 0.24943,-0.0511 0.34485,0 0.16364,0.0876 0.1684,0.11757 0.17898,1.12723 l 0.01,0.94488 0.21358,0.0931 c 1.06112,0.46226 1.06,2.045 -0.002,2.50755 l -0.21535,0.0938 v 1.58751 c 0,1.70439 -0.004,1.74352 -0.16642,1.85764 -0.0416,0.0292 -0.12776,0.0531 -0.19135,0.0531 -0.0636,0 -0.1497,-0.0239 -0.19135,-0.0531 z m 0.58588,-4.224941 c 0.20727,-0.145989 0.29623,-0.337719 0.28187,-0.60745 -0.0142,-0.266869 -0.12764,-0.451199 -0.35115,-0.570589 -0.12221,-0.0653 -0.18237,-0.0763 -0.3645,-0.0666 -0.26689,0.0142 -0.4512,0.12765 -0.57059,0.35116 -0.0653,0.1222 -0.0763,0.18236 -0.0666,0.3645 0.0142,0.26687 0.12765,0.4512 0.35116,0.57059 0.1222,0.0653 0.18237,0.0763 0.3645,0.0666 0.1783,-0.009 0.24319,-0.0292 0.35528,-0.1082 z m 4.22146,4.182901 -0.0951,-0.0951 v -0.95475 -0.95474 l -0.21382,-0.0932 c -0.30334,-0.13214 -0.53789,-0.35791 -0.68844,-0.66267 -0.11914,-0.24119 -0.12225,-0.25667 -0.12188,-0.60684 2.6e-4,-0.34221 0.005,-0.37021 0.11122,-0.58702 0.16702,-0.34314 0.43884,-0.58376 0.82348,-0.728961 l 0.0894,-0.0338 v -1.641483 -1.64149 l 0.0732,-0.0837 c 0.152,-0.17384 0.43269,-0.16129 0.54592,0.0244 0.061,0.10005 0.0637,0.17345 0.0638,1.73881 1e-4,1.446783 0.006,1.634363 0.0499,1.634363 0.098,0 0.38669,0.17193 0.55321,0.329421 0.70445,0.66624 0.51269,1.83307 -0.36872,2.243729 l -0.23436,0.10918 v 0.93881 0.93882 l -0.11058,0.11058 c -0.15001,0.150011 -0.3368,0.156081 -0.47737,0.0155 z m 0.55279,-2.75561 c 0.3065,-0.15273 0.44424,-0.46884 0.34821,-0.79916 -0.16515,-0.56811 -0.94717,-0.67442 -1.24335,-0.16902 -0.17233,0.29406 -0.13484,0.6088 0.10055,0.84419 0.22685,0.22685 0.50201,0.26979 0.79459,0.12399 z m 4.3089,2.7401 -0.11058,-0.11058 v -2.34503 c 0,-2.134 -0.005,-2.34502 -0.0524,-2.34502 -0.10645,0 -0.4386,-0.2084 -0.59396,-0.37267 -0.65681,-0.69446 -0.45006,-1.798864 0.41197,-2.200484 l 0.23435,-0.10918 v -0.22163 c 0,-0.27158 0.0601,-0.40122 0.21636,-0.4665 0.14216,-0.0594 0.30334,-0.0158 0.4011,0.10848 0.0528,0.067 0.0656,0.13194 0.0656,0.33192 v 0.24857 l 0.21383,0.0931 c 0.30333,0.132149 0.53788,0.357919 0.68843,0.662669 0.11915,0.241191 0.12226,0.256681 0.12188,0.606851 -2.7e-4,0.342204 -0.005,0.370214 -0.11122,0.587014 -0.16702,0.343139 -0.43884,0.58376 -0.82348,0.72895 l -0.0894,0.0338 v 2.34508 2.34509 l -0.0951,0.0951 c -0.14057,0.14057 -0.32736,0.1345 -0.47737,-0.0155 z m 0.60352,-5.54218 c 0.10235,-0.0628 0.17254,-0.14124 0.23893,-0.26722 0.0816,-0.15479 0.0918,-0.20339 0.0775,-0.367564 -0.0301,-0.34579 -0.27477,-0.59479 -0.61922,-0.63034 -0.15463,-0.0159 -0.20803,-0.005 -0.36453,0.071 -0.44686,0.21863 -0.52923,0.779314 -0.16395,1.116014 0.0946,0.0872 0.18663,0.13976 0.26874,0.15353 0.0687,0.0115 0.13952,0.0246 0.15741,0.0291 0.09,0.0227 0.27571,-0.0252 0.40511,-0.10458 z"
       id="path1486-3"
       inkscape:connector-curvature="0" />
    <path
       style="fill:#a54b00;fill-opacity:1;stroke-width:0.01920846"
       d="m 43.600487,41.76659 c -0.76353,0.03193 -1.47605,0.593286 -2.23269,0.234278 -0.52087,-0.170331 -1.1933,-0.02963 -1.35287,0.527785 -0.56117,0.432668 -1.57803,0.02755 -1.89661,0.811545 -0.16075,0.626213 0.67811,0.797999 1.10528,0.541344 0.28119,-0.01362 0.78458,-0.395337 1.01823,-0.127731 -0.46277,3.546743 -0.98417,7.106251 -1.55862,10.638966 -0.32389,0.697255 -0.0448,1.478303 -0.28685,2.202482 0.0112,0.601021 -0.58657,0.950448 -0.76051,1.506405 -0.75155,0.91058 -0.702,2.622695 0.49745,3.127365 1.00248,0.4219 2.04995,-0.47531 2.14849,-1.478 0.11293,-0.212424 -0.058,-0.765872 0.10989,-0.752552 1.28748,0.329889 2.5348,-0.498314 3.82437,-0.396969 1.40584,-0.0084 2.82839,-0.214348 4.21848,-0.127246 0.40957,0.327374 0.35967,1.155669 0.99206,1.315773 0.87731,0.324996 1.75963,-0.47281 1.75437,-1.358828 -0.0325,-0.473996 -0.0112,-1.11269 -0.49401,-1.375003 0.22693,-0.841592 -1.38444,-0.947261 -1.76817,-0.334891 -0.30696,0.344996 -0.40766,1.011493 -1.02811,0.820747 -2.12463,0.121598 -4.25926,0.208361 -6.388,0.255993 -0.31842,-0.611278 -0.39561,-1.301698 -0.57536,-1.941555 -0.14531,-0.303035 -0.49736,0.04078 -0.52327,-0.312293 -0.12441,-0.208621 -0.52337,-0.140081 -0.31291,-0.462507 0.51163,-3.808262 1.05223,-7.639554 1.62132,-11.426116 0.19924,-0.656093 1.10662,-0.459606 1.63098,-0.696193 0.41883,-0.0783 0.98003,-0.119874 0.91233,-0.667391 0.0169,-0.358554 -0.32396,-0.568662 -0.65527,-0.525408 z m 6.11532,15.751753 c 0.65707,0.382256 -0.48617,0.29206 0,0 z m 0.62221,0.140575 c -0.18377,0.509724 -0.68469,-0.05671 0,0 z m -6.4709,0.139374 c 0.19173,0.574663 -0.14605,0.362956 -0.0302,-0.01 z m 5.80303,0.63601 c 0.22548,0.885084 -1.03189,-0.196164 0,0 z m 0.78989,0.100613 c 0.0793,0.837899 -1.0355,-0.323134 0,0 z m -0.55538,0.384832 c 0.10956,0.08392 -0.16153,0.08767 0,0 z"
       id="path4550-3-4"
       inkscape:connector-curvature="0" />
    <path
       style="opacity:0.547;fill:#0000ff;stroke-width:0.03222327"
       d="m 183.32682,91.47559 c -0.27102,-0.07112 -0.49954,-0.290771 -0.57821,-0.55566 -0.10136,-0.341327 -0.0428,-0.517106 0.32085,-0.962777 0.74554,-0.913755 1.17813,-1.794525 1.33657,-2.721282 0.13943,-0.81562 0.0372,-1.748579 -0.22785,-2.078339 -0.0519,-0.06464 -0.12696,-0.203792 -0.16676,-0.309286 -0.0642,-0.170306 -0.0719,-0.24603 -0.0679,-0.675164 0.005,-0.54023 0.0921,-1.206585 0.22008,-1.682781 0.15674,-0.583371 0.49506,-1.383101 0.77536,-1.832825 0.31154,-0.499846 0.78428,-0.786203 1.29791,-0.786203 0.44149,0 0.68313,0.135681 0.85178,0.478271 0.0983,0.199649 0.10495,0.234677 0.10495,0.552199 0,0.295356 -0.0124,0.373254 -0.0961,0.604855 -0.0528,0.146222 -0.10527,0.265849 -0.11646,0.265849 -0.0357,0 -0.12323,-0.265259 -0.19161,-0.580524 -0.0834,-0.384706 -0.16582,-0.514013 -0.4007,-0.628924 -0.14971,-0.07325 -0.2053,-0.0845 -0.33194,-0.06718 -0.21403,0.0292 -0.42056,0.166427 -0.51517,0.342164 -0.0698,0.129611 -0.0762,0.172366 -0.0606,0.402793 0.0368,0.544497 0.35304,1.320609 0.75004,1.840931 l 0.21348,0.279778 -0.071,0.293019 c -0.0391,0.16116 -0.0947,0.455261 -0.12377,0.653557 l -0.0528,0.360539 0.32159,0.332263 c 1.02074,1.054645 1.75085,2.547185 2.10668,4.306641 0.12237,0.605035 0.20849,1.296557 0.18384,1.476314 -0.11019,0.803988 -1.23533,0.948914 -1.54847,0.199461 -0.0263,-0.06292 -0.0707,-0.301369 -0.0988,-0.529952 -0.13756,-1.121624 -0.42701,-2.10696 -0.87806,-2.989157 -0.11756,-0.229952 -0.18713,-0.335043 -0.20264,-0.306119 -0.013,0.0242 -0.0341,0.13103 -0.0467,0.237368 -0.0669,0.560344 -0.35263,1.427111 -0.68238,2.070243 -0.4096,0.79886 -1.15623,1.785894 -1.47328,1.947645 -0.13949,0.07112 -0.40435,0.101047 -0.55197,0.06235 z m 5.25239,-7.204406 c -1.24136,-0.195138 -2.14363,-0.860754 -2.65976,-1.962141 -0.15901,-0.339301 -0.28623,-0.78083 -0.30755,-1.067319 -0.0146,-0.196589 -0.007,-0.243323 0.0574,-0.353623 0.18532,-0.317095 0.65212,-0.347291 0.8598,-0.05562 0.0361,0.05061 0.0954,0.228541 0.13173,0.39523 0.13563,0.621746 0.3659,1.046704 0.76926,1.419704 0.44346,0.410078 0.96182,0.592222 1.80464,0.634157 0.42205,0.021 0.4865,0.03191 0.57882,0.0976 0.30762,0.219042 0.27423,0.704868 -0.0601,0.875478 -0.10505,0.05357 -0.18591,0.063 -0.52039,0.06029 -0.2178,-0.0025 -0.51202,-0.02141 -0.6538,-0.04372 z m -1.63463,-4.701026 c -0.79275,-0.270173 -1.19834,-1.086023 -0.92894,-1.868559 0.0787,-0.2285 0.16519,-0.362639 0.36306,-0.562781 0.31466,-0.318292 0.80297,-0.476442 1.23999,-0.401579 0.39925,0.06841 0.79217,0.31944 1.00895,0.644648 0.0378,0.05685 0.10717,0.08313 0.32214,0.122376 0.6068,0.110784 1.06337,0.270008 1.06337,0.37085 0,0.103303 -0.29368,0.137855 -0.99893,0.117486 -0.62019,-0.01788 -1.17467,-0.07375 -1.66567,-0.167681 -0.13839,-0.0265 -0.26611,-0.04725 -0.28384,-0.04618 -0.10159,0.0066 0.62701,0.214924 1.34533,0.384976 0.50626,0.119857 0.49001,0.100867 0.38236,0.446763 -0.082,0.263454 -0.19329,0.444868 -0.38012,0.619629 -0.41541,0.388561 -0.95703,0.514021 -1.4677,0.33999 z"
       id="path1503-6"
       inkscape:connector-curvature="0"
       sodipodi:nodetypes="ccssccsscscscscccsssccccscccccccsccsssccssscccscccccsssccsscc" />
    <path
       sodipodi:type="inkscape:offset"
       inkscape:radius="0"
       inkscape:original="M -97.734375 116.84961 C -98.744512 116.7648 -99.754242 117.29767 -100.77148 118.83594 C -97.691196 122.31118 -101.71967 122.0512 -103.81055 124.19922 C -105.86696 131.03464 -109.68708 121.39076 -112.66406 124.02734 C -114.31328 129.88669 -123.23333 133.03572 -127.47461 127.96094 C -124.8698 123.45641 -131.32953 115.72069 -134.02734 121.2207 C -132.508 125.98751 -138.15072 124.0579 -137.53125 127.91211 C -139.621 131.2735 -147.79896 126.69298 -148.4668 133.45508 C -152.70449 137.19052 -142.78187 141.81396 -149.06641 142.66406 C -152.44476 139.9856 -157.5729 137.20727 -161.29688 141.90039 C -165.60955 142.13099 -164.40391 147.36592 -160.49805 145.18359 C -158.57305 145.47944 -159.21638 155.32191 -162.80664 152.2207 C -165.17961 154.09409 -165.49602 158.53843 -166.36719 161.62891 C -166.3947 167.61636 -159.29095 163.72813 -156.95117 167.70703 C -159.66882 172.5977 -163.9172 176.14718 -167.21289 180.57812 C -170.44104 185.12428 -162.45997 190.94594 -168.4043 193.35156 C -172.54763 194.71865 -173.31135 201.07858 -167.86719 199.27148 C -167.0377 203.23902 -160.60276 204.2325 -156.66992 204.72852 C -158.35363 201.09868 -155.19073 201.00811 -152.14062 200.22852 C -148.78323 198.70033 -144.78185 195.90358 -141.06836 197.02734 C -142.27032 201.52892 -136.26131 203.09544 -133.53906 200.95312 C -130.8769 195.04785 -129.95835 203.46272 -126.17773 202.15234 C -121.6227 196.82486 -119.06745 203.86987 -115.85742 206.63867 C -112.49227 206.19059 -114.82456 209.94 -111.78906 209.8457 C -104.97676 212.61514 -103.39283 204.31223 -106.78711 200.10938 C -104.96864 197.11076 -96.617392 194.81256 -97.402344 200.89844 C -96.612553 208.39309 -89.513126 198.84496 -85.585938 202.97266 C -84.6678 207.71581 -78.402376 207.58188 -74.554688 206.05469 C -71.565753 206.65369 -70.573043 214.50018 -66.445312 209.31836 C -61.241557 212.09914 -67.498235 218.4979 -63.550781 222.04102 L -63.488281 222.10547 C -59.225518 224.83248 -60.985201 217.874 -57.996094 216.28711 C -57.486061 212.06837 -53.199795 212.87584 -52.103516 209.30469 C -56.712429 207.43193 -51.809589 205.2472 -49.259766 203.42578 C -41.513737 202.96068 -49.194585 194.52527 -43.287109 191.62695 C -40.764401 185.88078 -49.280841 183.65598 -52.53125 180.62305 C -52.580841 187.68886 -57.338547 180.00492 -60.525391 179.53125 C -63.531828 175.11688 -71.704332 184.48155 -68.798828 177.3457 C -66.513489 172.85689 -68.259724 169.02606 -64.201172 165.18359 C -59.705371 162.90999 -62.337592 159.3995 -66.482422 159.50586 C -63.416394 157.40895 -64.353191 156.2056 -67.878906 156.02344 C -73.07893 153.75268 -78.463899 149.84539 -80.138672 144.12305 C -81.979105 139.0175 -90.854756 140.59777 -91.363281 135.29102 C -91.236967 131.3682 -83.340302 127.33468 -88.427734 123.9043 C -91.670848 122.92567 -94.703965 117.10405 -97.734375 116.84961 z M -98.347656 118.24414 C -95.314612 117.30649 -92.819419 124.05331 -89.314453 124.73047 C -84.707523 128.64218 -94.856841 131.7649 -92.380859 136.92383 C -88.812311 140.45334 -98.107589 144.69385 -95.140625 149.78516 C -90.200223 154.6671 -97.287635 154.61899 -98.941406 158.48828 C -95.995805 163.46532 -103.05966 159.72104 -105.25977 161.85547 C -106.20719 162.21441 -107.1703 161.90125 -107.99414 161.41797 C -112.11771 158.5562 -108.78558 151.89799 -112.70703 148.67578 C -114.9568 146.97862 -121.08802 143.01072 -118.27734 140.73047 C -118.50748 140.8184 -118.68581 140.9891 -118.94336 141.0293 C -122.71379 143.72928 -112.34485 147.11576 -114.42578 150 C -117.0337 154.76663 -121.68194 148.31373 -124.92773 151.03516 C -127.97025 151.38005 -129.36119 153.70443 -131.76172 155.27539 C -133.97502 156.26915 -138.91498 155.72159 -140.41406 153.63867 C -142.63991 149.55863 -148.3594 145.2029 -145.55664 140.83789 C -150.28313 137.39978 -147.26453 128.87268 -141.12305 130.08984 C -135.96257 132.94247 -137.70468 125.36816 -133.65039 125.50391 C -133.69359 122.25218 -131.92248 118.26722 -128.81445 122.01172 C -129.85112 127.58164 -126.45532 132.99332 -120.10547 131.53516 C -114.95198 128.8398 -113.8508 137.33809 -117.15039 140.17383 C -116.85755 140.04962 -116.67869 139.90311 -116.29883 139.79688 C -114.05653 138.63423 -115.40713 135.83861 -115.04688 133.82617 C -116.53236 130.30759 -116.69073 129.59066 -112.6875 127.02734 C -111.57475 121.20056 -108.07822 129.45095 -105.25977 127.77734 C -104.02542 124.13182 -95.606032 123.38751 -99.685547 119.15625 C -99.225844 118.6686 -98.780948 118.37809 -98.347656 118.24414 z M -117.15039 140.17383 C -117.56897 140.35136 -118.01966 140.52142 -118.27734 140.73047 C -117.87781 140.57781 -117.46783 140.44664 -117.15039 140.17383 z M -89.890625 139.75195 C -87.305288 139.65018 -84.070206 141.92721 -81.935547 143.54102 C -78.837824 147.3536 -79.607423 148.88227 -83.810547 150.54492 C -89.831424 151.77053 -83.865509 157.40427 -87.457031 159.625 C -87.412924 161.20123 -89.197873 167.64646 -84.962891 166.92773 C -83.385599 169.88066 -80.193097 177.32638 -84.158203 178.75586 C -89.699762 179.01743 -94.153947 174.12503 -97.246094 170.16016 C -93.221957 166.97907 -101.07105 163.72789 -97.685547 160.76562 C -99.273459 156.81227 -95.471923 155.70854 -92.726562 154.19922 C -93.725484 150.7845 -96.551278 146.93232 -93.464844 143.16211 C -92.759919 140.73009 -91.441827 139.81302 -89.890625 139.75195 z M -155.0918 140.55664 C -153.31302 140.5992 -151.63169 141.44987 -150.46289 143.69922 C -145.64447 141.92024 -146.07736 148.60747 -142.67773 151.17383 C -141.51775 156.5681 -134.29498 154.33981 -134.35547 160.16211 C -134.44522 158.45456 -135.64086 156.01587 -134.4375 156.22461 C -131.12188 156.6416 -127.46949 152.13574 -125.49023 157.50391 C -127.76183 158.27358 -129.13397 161.07114 -127.80078 164.19531 C -123.78943 162.53117 -123.44997 167.76573 -122.62695 170.23242 C -125.38403 169.71022 -128.88589 172.69666 -131.37305 170.19141 C -136.25702 169.41545 -133.03325 173.64265 -137.27539 173.80078 L -137.92383 173.98828 L -138.14453 173.25 C -137.65573 170.51592 -139.16593 169.72614 -141.13086 169.52539 C -138.2967 169.67076 -139.76925 176.11485 -136.125 173.88867 C -132.54118 173.84669 -135.18572 171.22233 -132.98242 170.72656 C -129.92355 171.73284 -127.76372 171.81486 -124.60742 170.98047 C -121.50654 170.15676 -121.91697 178.57796 -125.3418 177.1875 C -125.9508 177.46375 -126.56117 177.65808 -127.16992 177.89453 C -121.75017 179.02937 -122.31862 174.72331 -122.30273 170.87109 C -120.13815 169.07155 -115.27612 171.99315 -115.42773 175.54297 C -112.52586 174.83528 -110.58797 177.28258 -108.67383 174.57031 C -109.08414 177.8291 -106.76292 183.14151 -108.57812 187.1582 C -110.55448 190.55258 -114.3558 198.79521 -107.8125 198.95703 C -107.2597 201.68605 -103.72734 210.05354 -109.69922 208.71875 L -110.96094 208.74414 L -111.84766 208.79102 C -112.35457 205.86191 -116.47619 206.01638 -118.16602 202.25195 C -124.85586 198.40245 -115.21885 195.97839 -116.35938 190.92773 C -119.63095 188.42787 -117.29292 183.267 -121.68164 182.3418 C -123.75035 179.64942 -133.45947 181.0095 -127.19336 177.90234 C -131.56158 179.59535 -135.96924 180.32262 -141.07812 179.87891 C -143.95518 179.37758 -152.81159 182.02558 -151.97266 177.44336 C -154.45795 172.19576 -147.67011 167.79813 -143.01758 170.04883 C -142.38371 169.70341 -141.88304 169.55783 -141.44922 169.50977 C -144.39381 169.30378 -148.1574 170.2268 -148.04102 168.2168 C -145.58355 163.80785 -141.48217 161.63982 -136.45312 161.60742 C -134.66743 162.05688 -134.35058 161.29337 -134.35742 160.30664 C -137.39331 162.47825 -143.4384 160.51706 -145.79883 164.57031 C -147.68861 168.90503 -154.67387 171.97784 -152.51172 177.1875 C -151.88692 183.38731 -158.10235 187.93926 -163.45508 189.17969 C -165.81356 190.06554 -164.98672 188.10709 -166.15039 186.92773 C -169.34914 180.20022 -160.79702 177.11116 -158.6582 171.97266 C -154.61944 169.3048 -155.59895 164.9077 -160.39258 164.41406 C -165.33456 165.65292 -166.80343 159.8911 -163.68555 156.88281 C -165.0386 151.02826 -159.43416 156.03598 -158.77734 151.50391 C -158.37752 147.82166 -157.45618 142.16401 -162.87109 144.36719 C -161.29127 142.66316 -158.05642 140.48571 -155.0918 140.55664 z M -134.35742 160.30664 C -134.35195 160.30272 -134.34335 160.30277 -134.33789 160.29883 C -134.33613 160.24463 -134.35602 160.21496 -134.35547 160.16211 C -134.35281 160.21261 -134.35776 160.2577 -134.35742 160.30664 z M -141.44922 169.50977 C -141.34424 169.51711 -141.23348 169.51491 -141.13086 169.52539 C -141.23692 169.51995 -141.33049 169.49661 -141.44922 169.50977 z M -127.19336 177.90234 C -127.18569 177.89937 -127.17759 177.89751 -127.16992 177.89453 C -127.17339 177.8938 -127.17426 177.89526 -127.17773 177.89453 C -127.18487 177.89806 -127.18626 177.89883 -127.19336 177.90234 z M -79.669922 149.42969 C -76.103419 150.1138 -73.436758 156.31693 -69.09375 156.80078 C -65.308184 157.08748 -67.205352 157.8171 -67.521484 160.17969 C -63.06984 161.16159 -61.784386 162.00724 -65.560547 165.38477 C -69.864185 168.61194 -67.384633 172.9715 -69.925781 176.92383 C -69.600172 178.86153 -71.062973 178.56369 -72.242188 178.24805 C -69.659227 178.81049 -71.522731 183.43621 -67.345703 181.0332 C -62.060517 175.9806 -57.394972 185.46437 -52.576172 184.5 C -51.774935 180.15187 -48.704954 185.09011 -46.789062 186.42188 C -39.99164 187.98759 -47.24524 193.14968 -47.21875 196.61719 C -43.811621 202.22562 -51.233438 202.16452 -54.058594 205.46875 C -58.53368 207.62641 -51.410073 209.10741 -54.546875 211.1543 C -58.543596 211.41066 -59.897692 217.46762 -61.435547 220.58398 L -61.541016 221.63672 L -61.642578 221.87305 C -66.385516 219.53492 -61.555207 214.21169 -63.626953 210.58008 C -64.674803 204.97749 -70.030969 212.33785 -70.535156 208.19336 C -72.15289 203.15536 -75.415537 205.41458 -78.914062 205.79883 C -83.637525 206.94002 -83.044591 202.44292 -86.513672 201.29297 C -87.47532 200.33703 -86.777709 195.77023 -87.699219 193.33008 C -91.457439 190.85018 -97.037142 188.85938 -98.886719 184.91211 C -93.170844 182.70738 -97.031453 176.01475 -101.22656 174.6582 C -105.15666 173.88087 -98.113736 168.09072 -97.21875 171.28516 C -93.793165 174.60377 -90.074049 179.26509 -84.832031 179.30859 C -81.014913 180.27128 -77.013222 175.87346 -73.720703 178.29688 C -73.15068 178.17352 -72.705437 178.16987 -72.335938 178.23438 C -72.408774 178.21449 -72.485068 178.22249 -72.554688 178.20312 C -75.398372 174.99796 -79.230504 178.90182 -82.253906 178.35547 C -81.86866 174.34871 -81.705911 166.4707 -86.925781 166.12891 C -85.991689 163.36415 -88.875871 160.06851 -85.494141 158.60938 C -87.634334 154.0939 -85.800292 151.27081 -81.259766 149.50781 C -80.705995 149.34746 -80.179422 149.33196 -79.669922 149.42969 z M -72.335938 178.23438 C -72.304709 178.2429 -72.273873 178.23957 -72.242188 178.24805 C -72.271457 178.24167 -72.305509 178.23969 -72.335938 178.23438 z M -113.69727 149.7793 C -111.97515 149.30549 -110.57043 152.61443 -111.00391 155.02344 C -111.77955 159.95255 -107.02722 161.37174 -105.82422 164.86719 C -104.97658 172.96521 -114.7122 164.54378 -116.6582 170.76562 L -117.5293 170.72266 L -118.48047 170.58203 C -123.51826 170.73693 -121.78061 165.79268 -124.93359 163.58594 C -128.10455 164.64047 -127.73639 162.47084 -127.77539 159.66602 C -125.23313 158.6534 -122.77937 157.9935 -126.56836 155.00195 C -129.92943 155.30217 -129.61676 152.51804 -126.67188 152.34961 C -123.10989 149.1988 -118.99658 153.39791 -115.46875 151.6875 C -114.88044 150.51515 -114.2713 149.93723 -113.69727 149.7793 z M -103.03711 161.41602 C -98.983319 160.66393 -94.632215 167.73969 -98.523438 170.04883 C -101.36739 171.32102 -103.52506 168.77114 -105.89844 168.52344 C -104.40849 167.02292 -107.34503 162.3764 -104.73242 162.25391 C -104.19039 161.79025 -103.61622 161.52346 -103.03711 161.41602 z M -114.11719 168.93164 C -109.53451 169.06814 -105.70101 168.43226 -101.67578 170.7832 C -100.42316 174.76295 -108.62689 173.11634 -110.66406 175.35352 C -111.26259 176.45787 -111.87478 174.37498 -112.77344 174.95898 C -116.64001 176.71631 -117.64883 169.48235 -114.11719 168.93164 z M -105.12891 174.64453 C -101.10946 173.7349 -95.0485 178.3639 -96.886719 182.82422 C -101.55478 184.00174 -98.669933 186.81286 -96.103516 188.89062 C -93.715979 191.65423 -87.016116 191.61089 -87.943359 196.10156 C -84.463775 202.35678 -91.862817 200.16917 -94.876953 202.91992 C -95.50874 203.53765 -95.841963 202.57642 -95.962891 202.13281 C -95.053486 194.73999 -102.66222 195.08436 -107.17969 198.0332 C -113.1606 199.81762 -110.62535 190.86087 -108.35156 187.87305 C -104.47091 184.0569 -112.06637 174.65253 -105.12891 174.64453 z M -148.57422 180.21094 C -147.68985 180.28468 -146.74729 180.42315 -145.7793 180.5293 C -140.19743 180.46153 -134.52812 179.87788 -129.03516 180.58594 C -125.34712 180.75494 -118.91344 182.43371 -119.19336 186.97461 C -115.73802 190.30871 -116.75262 195.05751 -120.47266 197.6875 C -122.976 198.58518 -126.65492 203.01467 -129.08203 199.71484 C -131.58164 193.84669 -134.98146 203.77439 -139.46875 200.16211 C -138.38153 194.76085 -144.0362 194.90869 -147.54297 196.75 C -150.16345 199.72701 -159.94417 198.49392 -157.59375 203.60547 C -158.54874 204.1986 -161.07302 202.45626 -162.41602 201.97461 C -167.14928 202.86256 -165.11887 197.19851 -169.56641 198.20508 C -174.53588 197.04148 -163.42099 193.41248 -164.63867 190.49023 C -161.92953 189.00014 -156.33311 187.60523 -154.07422 183.92383 C -153.35683 180.35153 -151.22732 179.98971 -148.57422 180.21094 z "
       style="fill:#009400;fill-opacity:1;stroke-width:0.0954811"
       id="path1518-4"
       d="m -97.734375,116.84961 c -1.010137,-0.0848 -2.019867,0.44806 -3.037105,1.98633 3.080284,3.47524 -0.94819,3.21526 -3.03907,5.36328 -2.05641,6.83542 -5.87653,-2.80846 -8.85351,-0.17188 -1.64922,5.85935 -10.56927,9.00838 -14.81055,3.9336 2.60481,-4.50453 -3.85492,-12.24025 -6.55273,-6.74024 1.51934,4.76681 -4.12338,2.8372 -3.50391,6.69141 -2.08975,3.36139 -10.26771,-1.21913 -10.93555,5.54297 -4.23769,3.73544 5.68493,8.35888 -0.59961,9.20898 -3.37835,-2.67846 -8.50649,-5.45679 -12.23047,-0.76367 -4.31267,0.2306 -3.10703,5.46553 0.79883,3.2832 1.925,0.29585 1.28167,10.13832 -2.30859,7.03711 -2.37297,1.87339 -2.68938,6.31773 -3.56055,9.40821 -0.0275,5.98745 7.07624,2.09922 9.41602,6.07812 -2.71765,4.89067 -6.96603,8.44015 -10.26172,12.87109 -3.22815,4.54616 4.75292,10.36782 -1.19141,12.77344 -4.14333,1.36709 -4.90705,7.72702 0.53711,5.91992 0.82949,3.96754 7.26443,4.96102 11.19727,5.45704 -1.68371,-3.62984 1.47919,-3.72041 4.5293,-4.5 3.35739,-1.52819 7.35877,-4.32494 11.07226,-3.20118 -1.20196,4.50158 4.80705,6.0681 7.5293,3.92578 2.66216,-5.90527 3.58071,2.5096 7.36133,1.19922 4.55503,-5.32748 7.11028,1.71753 10.32031,4.48633 3.36515,-0.44808 1.03286,3.30133 4.06836,3.20703 6.8123,2.76944 8.39623,-5.53347 5.00195,-9.73632 1.81847,-2.99862 10.169718,-5.29682 9.384766,0.78906 0.789791,7.49465 7.889218,-2.05348 11.816406,2.07422 0.918138,4.74315 7.183562,4.60922 11.03125,3.08203 2.988935,0.599 3.981645,8.44549 8.109376,3.26367 5.203755,2.78078 -1.052923,9.17954 2.894531,12.72266 l 0.0625,0.0644 c 4.262763,2.72701 2.50308,-4.23147 5.492187,-5.81836 0.510033,-4.21874 4.796299,-3.41127 5.892578,-6.98242 -4.608913,-1.87276 0.293927,-4.05749 2.84375,-5.87891 7.746029,-0.4651 0.06518,-8.90051 5.972657,-11.79883 2.522708,-5.74617 -5.993732,-7.97097 -9.244141,-11.0039 -0.04959,7.06581 -4.807297,-0.61813 -7.994141,-1.0918 -3.006437,-4.41437 -11.178941,4.9503 -8.273437,-2.18555 2.285339,-4.48881 0.539104,-8.31964 4.597656,-12.16211 4.495801,-2.2736 1.86358,-5.78409 -2.28125,-5.67773 3.066028,-2.09691 2.129231,-3.30026 -1.396484,-3.48242 -5.200024,-2.27076 -10.584993,-6.17805 -12.259766,-11.90039 -1.840433,-5.10555 -10.716084,-3.52528 -11.224609,-8.83203 0.126314,-3.92282 8.022979,-7.95634 2.935547,-11.38672 -3.243114,-0.97863 -6.276231,-6.80025 -9.306641,-7.05469 z m -0.613281,1.39453 c 3.033044,-0.93765 5.528237,5.80917 9.033203,6.48633 4.60693,3.91171 -5.542388,7.03443 -3.066406,12.19336 3.568548,3.52951 -5.72673,7.77002 -2.759766,12.86133 4.940402,4.88194 -2.14701,4.83383 -3.800781,8.70312 2.945601,4.97704 -4.118254,1.23276 -6.318364,3.36719 -0.94742,0.35894 -1.91053,0.0458 -2.73437,-0.4375 -4.12357,-2.86177 -0.79144,-9.51998 -4.71289,-12.74219 -2.24977,-1.69716 -8.38099,-5.66506 -5.57031,-7.94531 -0.23014,0.0879 -0.40847,0.25863 -0.66602,0.29883 -3.77043,2.69998 6.59851,6.08646 4.51758,8.9707 -2.60792,4.76663 -7.25616,-1.68627 -10.50195,1.03516 -3.04252,0.34489 -4.43346,2.66927 -6.83399,4.24023 -2.2133,0.99376 -7.15326,0.4462 -8.65234,-1.63672 -2.22585,-4.08004 -7.94534,-8.43577 -5.14258,-12.80078 -4.72649,-3.43811 -1.70789,-11.96521 4.43359,-10.74805 5.16048,2.85263 3.41837,-4.72168 7.47266,-4.58593 -0.0432,-3.25173 1.72791,-7.23669 4.83594,-3.49219 -1.03667,5.56992 2.35913,10.9816 8.70898,9.52344 5.15349,-2.69536 6.25467,5.80293 2.95508,8.63867 0.29284,-0.12421 0.4717,-0.27072 0.85156,-0.37695 2.2423,-1.16265 0.8917,-3.95827 1.25195,-5.97071 -1.48548,-3.51858 -1.64385,-4.23551 2.35938,-6.79883 1.11275,-5.82678 4.60928,2.42361 7.42773,0.75 1.23435,-3.64552 9.653738,-4.38983 5.574223,-8.62109 0.459703,-0.48765 0.904599,-0.77816 1.337891,-0.91211 z m -18.802734,21.92969 c -0.41858,0.17753 -0.86927,0.34759 -1.12695,0.55664 0.39953,-0.15266 0.80951,-0.28383 1.12695,-0.55664 z m 27.259765,-0.42188 c 2.585337,-0.10177 5.820419,2.17526 7.955078,3.78907 3.097723,3.81258 2.328124,5.34125 -1.875,7.0039 -6.020877,1.22561 -0.05496,6.85935 -3.646484,9.08008 0.04411,1.57623 -1.740842,8.02146 2.49414,7.30273 1.577292,2.95293 4.769794,10.39865 0.804688,11.82813 -5.541559,0.26157 -9.995744,-4.63083 -13.087891,-8.5957 4.024137,-3.18109 -3.824956,-6.43227 -0.439453,-9.39454 -1.587912,-3.95335 2.213624,-5.05708 4.958985,-6.5664 -0.998922,-3.41472 -3.824716,-7.2669 -0.738282,-11.03711 0.704925,-2.43202 2.023017,-3.34909 3.574219,-3.41016 z m -65.201175,0.80469 c 1.77878,0.0426 3.46011,0.89323 4.62891,3.14258 4.81842,-1.77898 4.38553,4.90825 7.78516,7.47461 1.15998,5.39427 8.38275,3.16598 8.32226,8.98828 -0.0898,-1.70755 -1.28539,-4.14624 -0.082,-3.9375 3.31562,0.41699 6.96801,-4.08887 8.94727,1.2793 -2.2716,0.76967 -3.64374,3.56723 -2.31055,6.6914 4.01135,-1.66414 4.35081,3.57042 5.17383,6.03711 -2.75708,-0.5222 -6.25894,2.46424 -8.7461,-0.041 -4.88397,-0.77596 -1.6602,3.45124 -5.90234,3.60937 l -0.64844,0.1875 -0.2207,-0.73828 c 0.4888,-2.73408 -1.0214,-3.52386 -2.98633,-3.72461 2.83416,0.14537 1.36161,6.58946 5.00586,4.36328 3.58382,-0.042 0.93928,-2.66634 3.14258,-3.16211 3.05887,1.00628 5.2187,1.0883 8.375,0.25391 3.10088,-0.82371 2.69045,7.59749 -0.73438,6.20703 -0.609,0.27625 -1.21937,0.47058 -1.82812,0.70703 5.41975,1.13484 4.8513,-3.17122 4.86719,-7.02344 2.16458,-1.79954 7.02661,1.12206 6.875,4.67188 2.90187,-0.70769 4.83976,1.73961 6.7539,-0.97266 -0.41031,3.25879 1.91091,8.5712 0.0957,12.58789 -1.97636,3.39438 -5.77768,11.63701 0.76562,11.79883 0.5528,2.72902 4.08516,11.09651 -1.88672,9.76172 l -1.26172,0.0254 -0.88672,0.0469 c -0.50691,-2.92911 -4.62853,-2.77464 -6.31836,-6.53907 -6.68984,-3.8495 2.94717,-6.27356 1.80664,-11.32422 -3.27157,-2.49986 -0.93354,-7.66073 -5.32226,-8.58593 -2.06871,-2.69238 -11.77783,-1.3323 -5.51172,-4.43946 -4.36822,1.69301 -8.77588,2.42028 -13.88476,1.97657 -2.87706,-0.50133 -11.73347,2.14667 -10.89454,-2.43555 -2.48529,-5.2476 4.30255,-9.64523 8.95508,-7.39453 0.63387,-0.34542 1.13454,-0.491 1.56836,-0.53906 -2.94459,-0.20599 -6.70818,0.71703 -6.5918,-1.29297 2.45747,-4.40895 6.55885,-6.57698 11.5879,-6.60938 1.78569,0.44946 2.10254,-0.31405 2.0957,-1.30078 -3.03589,2.17161 -9.08098,0.21042 -11.44141,4.26367 -1.88978,4.33472 -8.87504,7.40753 -6.71289,12.61719 0.6248,6.19981 -5.59063,10.75176 -10.94336,11.99219 -2.35848,0.88585 -1.53164,-1.0726 -2.69531,-2.25196 -3.19875,-6.72751 5.35337,-9.81657 7.49219,-14.95507 4.03876,-2.66786 3.05925,-7.06496 -1.73438,-7.5586 -4.94198,1.23886 -6.41085,-4.52296 -3.29297,-7.53125 -1.35305,-5.85455 4.25139,-0.84683 4.90821,-5.3789 0.39982,-3.68225 1.32116,-9.3399 -4.09375,-7.13672 1.57982,-1.70403 4.81467,-3.88148 7.77929,-3.81055 z m 20.73438,19.75 c 0.005,-0.004 0.0141,-0.004 0.0195,-0.008 0.002,-0.0542 -0.0181,-0.0839 -0.0176,-0.13672 0.003,0.0505 -0.002,0.0956 -0.002,0.14453 z m -7.0918,9.20313 c 0.10498,0.007 0.21574,0.005 0.31836,0.0156 -0.10606,-0.005 -0.19963,-0.0288 -0.31836,-0.0156 z m 14.25586,8.39257 c 0.008,-0.003 0.0158,-0.005 0.0234,-0.008 -0.003,-7.3e-4 -0.004,7.3e-4 -0.008,0 -0.007,0.004 -0.009,0.004 -0.0156,0.008 z m 47.523438,-28.47265 c 3.566503,0.68411 6.233164,6.88724 10.576172,7.37109 3.785566,0.2867 1.888398,1.01632 1.572266,3.37891 4.451644,0.9819 5.737098,1.82755 1.960937,5.20508 -4.303638,3.22717 -1.824086,7.58673 -4.365234,11.53906 0.325609,1.9377 -1.137192,1.63986 -2.316407,1.32422 2.582961,0.56244 0.719457,5.18816 4.896485,2.78515 5.285186,-5.0526 9.950731,4.43117 14.769531,3.4668 0.801237,-4.34813 3.871218,0.59011 5.78711,1.92188 6.797422,1.56571 -0.456178,6.7278 -0.429688,10.19531 3.407129,5.60843 -4.014688,5.54733 -6.839844,8.85156 -4.475086,2.15766 2.648521,3.63866 -0.488281,5.68555 -3.996721,0.25636 -5.350817,6.31332 -6.888672,9.42968 l -0.105469,1.05274 -0.101562,0.23633 c -4.742938,-2.33813 0.08737,-7.66136 -1.984375,-11.29297 -1.04785,-5.60259 -6.404016,1.75777 -6.908203,-2.38672 -1.617734,-5.038 -4.880381,-2.77878 -8.378906,-2.39453 -4.723463,1.14119 -4.130529,-3.35591 -7.59961,-4.50586 -0.961648,-0.95594 -0.264037,-5.52274 -1.185547,-7.96289 -3.75822,-2.4799 -9.337923,-4.4707 -11.1875,-8.41797 5.715875,-2.20473 1.855266,-8.89736 -2.339841,-10.25391 -3.9301,-0.77733 3.112824,-6.56748 4.00781,-3.37304 3.425585,3.31861 7.144701,7.97993 12.386719,8.02343 3.817118,0.96269 7.818809,-3.43513 11.111328,-1.01171 0.570023,-0.12336 1.015266,-0.12701 1.384765,-0.0625 -0.07284,-0.0199 -0.14913,-0.0119 -0.21875,-0.0313 -2.843684,-3.20516 -6.675816,0.6987 -9.699218,0.15235 0.385246,-4.00676 0.547995,-11.88477 -4.671875,-12.22656 0.934092,-2.76476 -1.95009,-6.0604 1.43164,-7.51953 -2.140193,-4.51548 -0.306151,-7.33857 4.234375,-9.10157 0.553771,-0.16035 1.080344,-0.17585 1.589844,-0.0781 z m 7.333984,28.80469 c 0.03123,0.009 0.06207,0.005 0.09375,0.0137 -0.02927,-0.006 -0.06332,-0.008 -0.09375,-0.0137 z M -113.69727,149.7793 c 1.72212,-0.47381 3.12684,2.83513 2.69336,5.24414 -0.77564,4.92911 3.97669,6.3483 5.17969,9.84375 0.84764,8.09802 -8.88798,-0.32341 -10.83398,5.89843 l -0.8711,-0.043 -0.95117,-0.14063 c -5.03779,0.1549 -3.30014,-4.78935 -6.45312,-6.99609 -3.17096,1.05453 -2.8028,-1.1151 -2.8418,-3.91992 2.54226,-1.01262 4.99602,-1.67252 1.20703,-4.66407 -3.36107,0.30022 -3.0484,-2.48391 -0.10352,-2.65234 3.56199,-3.15081 7.6753,1.0483 11.20313,-0.66211 0.58831,-1.17235 1.19745,-1.75027 1.77148,-1.9082 z m 10.66016,11.63672 c 4.053791,-0.75209 8.404895,6.32367 4.513672,8.63281 -2.843952,1.27219 -5.001622,-1.27769 -7.375002,-1.52539 1.48995,-1.50052 -1.44659,-6.14704 1.16602,-6.26953 0.54203,-0.46366 1.1162,-0.73045 1.69531,-0.83789 z m -11.08008,7.51562 c 4.58268,0.1365 8.41618,-0.49938 12.44141,1.85156 1.25262,3.97975 -6.95111,2.33314 -8.98828,4.57032 -0.59853,1.10435 -1.21072,-0.97854 -2.10938,-0.39454 -3.86657,1.75733 -4.87539,-5.47663 -1.34375,-6.02734 z m 8.98828,5.71289 c 4.01945,-0.90963 10.08041,3.71937 8.242191,8.17969 -4.668061,1.17752 -1.783214,3.98864 0.783203,6.0664 2.387537,2.76361 9.0874,2.72027 8.160157,7.21094 3.479584,6.25522 -3.919458,4.06761 -6.933594,6.81836 -0.631787,0.61773 -0.96501,-0.3435 -1.085938,-0.78711 0.909405,-7.39282 -6.699329,-7.04845 -11.216799,-4.09961 -5.98091,1.78442 -3.44566,-7.17233 -1.17187,-10.16015 3.88065,-3.81615 -3.71481,-13.22052 3.22265,-13.22852 z m -43.44531,5.56641 c 0.88437,0.0737 1.82693,0.21221 2.79492,0.31836 5.58187,-0.0678 11.25118,-0.65142 16.74414,0.0566 3.68804,0.169 10.12172,1.84777 9.8418,6.38867 3.45534,3.3341 2.44074,8.0829 -1.2793,10.71289 -2.50334,0.89768 -6.18226,5.32717 -8.60937,2.02734 -2.49961,-5.86815 -5.89943,4.05955 -10.38672,0.44727 1.08722,-5.40126 -4.56745,-5.25342 -8.07422,-3.41211 -2.62048,2.97701 -12.4012,1.74392 -10.05078,6.85547 -0.95499,0.59313 -3.47927,-1.14921 -4.82227,-1.63086 -4.73326,0.88795 -2.70285,-4.7761 -7.15039,-3.76953 -4.96947,-1.1636 6.14542,-4.7926 4.92774,-7.71485 2.70914,-1.49009 8.30556,-2.885 10.56445,-6.5664 0.71739,-3.5723 2.8469,-3.93412 5.5,-3.71289 z"
       transform="matrix(0.17673585,0,0,0.17673585,113.65097,51.897696)" />
    <path
       style="opacity:0.55;fill:#007500;fill-opacity:1;stroke-width:0.02502251"
       d="m 135.70265,97.005883 c -0.37421,-0.0636 -0.66883,-0.22065 -0.95974,-0.5115 -0.18435,-0.18431 -0.2472,-0.26765 -0.33142,-0.43943 -0.0572,-0.1166 -0.12369,-0.28518 -0.14784,-0.37464 -0.0416,-0.15389 -0.0439,-0.74096 -0.0439,-10.909823 V 74.02333 l 0.0576,-0.19906 c 0.094,-0.32469 0.21308,-0.52303 0.46729,-0.77836 0.24239,-0.24345 0.42211,-0.35474 0.75122,-0.46517 l 0.17516,-0.0588 5.39235,-0.007 c 6.0228,-0.008 5.60028,-0.0197 6.00022,0.16997 0.11413,0.0541 0.27426,0.14977 0.35585,0.21255 0.26949,0.20737 0.50928,0.56857 0.61971,0.93347 0.0402,0.13297 0.0435,0.63732 0.0495,7.74282 l 0.007,7.60059 h -0.0708 c -0.10009,0 -0.32067,0.0691 -0.4677,0.14652 -0.0688,0.0362 -0.1339,0.0698 -0.14465,0.0746 -0.0107,0.005 -0.15712,-0.271 -0.32529,-0.61291 l -0.30576,-0.62164 -0.0125,-6.31819 -0.0125,-6.31818 h -5.60504 -5.60505 l -0.006,8.42633 -0.006,8.426333 h 3.99113 c 2.19512,0 3.99101,0.008 3.99086,0.0188 -1.9e-4,0.0103 -0.017,0.074 -0.0375,0.1416 -0.084,0.27678 -0.0204,0.71231 0.1517,1.03988 0.0556,0.10581 0.19416,0.2871 0.36068,0.47195 0.3136,0.34809 0.44097,0.52159 0.63691,0.86758 0.2155,0.38055 0.4387,0.57441 0.9904,0.86025 0.14451,0.0749 0.37664,0.21174 0.51586,0.30415 0.30075,0.19964 0.60757,0.36945 0.92948,0.51443 0.12932,0.0582 0.24076,0.11153 0.24764,0.11841 0.0186,0.0186 -0.38299,0.21207 -0.54194,0.26116 -0.12752,0.0394 -0.53464,0.0428 -5.54249,0.0465 -2.97267,0.002 -5.4582,-0.005 -5.52338,-0.0162 z m 7.63194,-2.54542 -0.007,-0.66935 h -2.17696 -2.17695 l -0.007,0.66935 -0.007,0.66935 h 2.19028 2.19029 z M 145.342,74.48986 c 0.30404,-0.16305 0.33435,-0.56137 0.0587,-0.77161 -0.0796,-0.0607 -0.11471,-0.0703 -0.25854,-0.0703 -0.19508,0 -0.31407,0.0643 -0.39914,0.21567 -0.0981,0.17451 -0.0521,0.44702 0.0957,0.56714 0.13626,0.11075 0.35832,0.13682 0.5033,0.0591 z m -1.80138,-0.41649 v -0.26274 h -2.38965 -2.38965 v 0.26274 0.26274 h 2.38965 2.38965 z m 6.35572,22.794303 c 0,-0.27275 -0.27385,-0.44964 -0.75823,-0.48978 -0.85526,-0.0709 -1.73423,-0.33576 -2.41001,-0.72628 -0.081,-0.0468 -0.25985,-0.12861 -0.39747,-0.1818 -0.32577,-0.1259 -0.6563,-0.29533 -0.75068,-0.3848 -0.0413,-0.0391 -0.15952,-0.18864 -0.26273,-0.33222 -0.10322,-0.14358 -0.30309,-0.37581 -0.44415,-0.51608 -0.14107,-0.14027 -0.25684,-0.26413 -0.25728,-0.27525 -4.7e-4,-0.0111 -0.0503,-0.0503 -0.11088,-0.087 -0.22821,-0.13843 -0.40169,-0.47794 -0.40059,-0.78399 7.5e-4,-0.20474 0.0489,-0.3154 0.16942,-0.38886 0.14641,-0.0893 0.44622,-0.052 0.72036,0.0897 0.047,0.0243 0.33312,0.23167 0.6359,0.4609 0.65166,0.49337 0.8024,0.59733 1.03637,0.71475 0.33109,0.16617 0.44196,0.1195 0.41776,-0.17583 -0.0231,-0.28167 -0.24332,-0.80494 -0.64242,-1.52637 -0.099,-0.17891 -0.24433,-0.44916 -0.323,-0.60054 -0.0787,-0.15139 -0.26132,-0.48919 -0.40586,-0.75068 -0.68899,-1.246403 -1.65989,-3.182963 -1.77439,-3.539183 -0.13162,-0.40952 -0.12548,-0.69532 0.0178,-0.82982 0.0537,-0.0504 0.0887,-0.0598 0.21822,-0.0586 0.30982,0.003 0.62935,0.24004 0.93933,0.6972 0.0941,0.13872 0.47288,0.73641 0.84183,1.32819 0.67533,1.0832 0.95804,1.5212 1.09507,1.69656 l 0.0743,0.0951 0.0978,-0.14963 c 0.11953,-0.18293 0.32884,-0.37819 0.48938,-0.45652 0.25594,-0.12486 0.5862,-0.083 0.87624,0.11108 l 0.11903,0.0796 0.16279,-0.1647 c 0.10061,-0.1018 0.22013,-0.19259 0.31292,-0.23772 0.13222,-0.0643 0.17701,-0.073 0.37534,-0.0726 0.25116,4.7e-4 0.33511,0.0317 0.58319,0.21696 l 0.13279,0.0992 0.15497,-0.0415 c 0.2153,-0.0576 0.61335,-0.0768 0.78913,-0.0381 0.33296,0.0735 0.62539,0.29636 0.77436,0.59023 0.0414,0.0818 0.15635,0.28377 0.25534,0.44892 0.68902,1.149553 1.17568,2.593393 1.17631,3.489983 8e-5,0.0898 0.033,0.33775 0.0732,0.55095 0.0402,0.21321 0.0711,0.38932 0.0687,0.39136 -0.002,0.002 -0.82918,0.41596 -1.83727,0.91981 l -1.8329,0.91611 z M 136.82551,88.1369 c -0.11757,-0.0419 -0.22948,-0.14443 -0.29349,-0.26887 -0.0534,-0.10381 -0.064,-0.32359 -0.0212,-0.43726 0.0378,-0.10017 0.16922,-0.23135 0.28623,-0.28564 0.0957,-0.0444 0.2295,-0.0465 3.04223,-0.047 l 2.94213,-5.7e-4 0.0421,0.19393 c 0.0231,0.10665 0.0983,0.34456 0.16691,0.52869 0.0687,0.18412 0.12483,0.33894 0.12483,0.34406 0,0.005 -1.39344,0.009 -3.09654,0.008 -2.56401,-9.5e-4 -3.11315,-0.007 -3.19319,-0.0356 z m -0.0285,-2.33798 c -0.11701,-0.0543 -0.24846,-0.18547 -0.28623,-0.28563 -0.0431,-0.11443 -0.0322,-0.33341 0.022,-0.43964 0.0635,-0.12437 0.20149,-0.24377 0.31983,-0.27663 0.0642,-0.0178 1.45007,-0.0263 4.32467,-0.0264 l 4.23014,-1.4e-4 0.13291,0.0662 c 0.30402,0.1515 0.3862,0.51706 0.18017,0.80147 -0.13277,0.18328 -0.3825,0.24786 -0.66969,0.17318 -0.19333,-0.0503 -0.47072,-0.0514 -0.60944,-0.002 -0.0928,0.0327 -0.5826,0.0375 -3.82533,0.037 -3.56945,-5.3e-4 -3.72298,-0.002 -3.81905,-0.047 z m 0.05,-2.27096 c -0.3988,-0.20957 -0.41911,-0.74472 -0.0364,-0.95945 l 0.11149,-0.0626 4.20378,-0.007 c 2.31208,-0.004 4.25009,-7.6e-4 4.30669,0.007 0.21589,0.0307 0.41636,0.2335 0.44955,0.45487 0.0336,0.22384 -0.0978,0.46924 -0.30046,0.56129 -0.0978,0.0444 -0.27131,0.0463 -4.38071,0.0458 -3.8468,-4e-4 -4.28643,-0.004 -4.35392,-0.0399 z m 0.0361,-2.33328 -0.0736,-0.0736 v -1.95031 c 0,-1.93518 4e-4,-1.95082 0.0519,-2.01624 l 0.0519,-0.0659 h 1.84548 1.84549 l 0.0544,0.0579 0.0544,0.0579 v 1.96614 c 0,1.89846 -0.002,1.96817 -0.0478,2.02521 l -0.0478,0.0591 -1.83031,0.007 -1.8303,0.007 z m 3.62971,-2.01672 v -1.8892 h -1.75158 -1.75158 v 1.8892 1.8892 h 1.75158 1.75158 z m -3.28629,1.67234 c -0.009,-0.009 -0.0167,-0.76923 -0.0167,-1.68902 v -1.67234 h 1.55139 1.5514 v 1.68902 1.68902 h -1.53472 c -0.84409,0 -1.54222,-0.007 -1.55139,-0.0167 z"
       id="path973"
       inkscape:connector-curvature="0" />
    <path
       style="fill:none;stroke:#000000;stroke-width:0.565;stroke-linecap:butt;stroke-linejoin:miter;stroke-miterlimit:4;stroke-dasharray:none;stroke-opacity:1;marker-end:url(#Arrow1Lend)"
       d="m 118.51117,19.389526 21.64096,16.883835"
       id="path975"
       inkscape:connector-curvature="0"
       sodipodi:nodetypes="cc" />
    <path
       style="fill:none;stroke:#000000;stroke-width:0.56500006;stroke-linecap:butt;stroke-linejoin:miter;stroke-miterlimit:4;stroke-dasharray:none;stroke-opacity:1;marker-end:url(#Arrow1Lend-0)"
       d="M 140.84317,36.725335 162.78026,22.007779"
       id="path975-0"
       inkscape:connector-curvature="0"
       sodipodi:nodetypes="cc" />
    <path
       style="fill:none;stroke:#000000;stroke-width:0.4559699;stroke-linecap:butt;stroke-linejoin:miter;stroke-miterlimit:4;stroke-dasharray:1.8238796, 1.8238796;stroke-dashoffset:0;stroke-opacity:1;marker-end:url(#Arrow1Lend-4)"
       d="M 114.91217,-18.303358 V 5.888211"
       id="path975-2"
       inkscape:connector-curvature="0"
       sodipodi:nodetypes="cc" />
    <path
       style="fill:none;stroke:#000000;stroke-width:0.45112681;stroke-linecap:butt;stroke-linejoin:miter;stroke-miterlimit:4;stroke-dasharray:1.80450726, 1.80450726;stroke-dashoffset:0;stroke-opacity:1;marker-end:url(#Arrow1Lend-4-0)"
       d="M 165.17257,6.8323216 V -16.848074"
       id="path975-2-9"
       inkscape:connector-curvature="0"
       sodipodi:nodetypes="cc" />
    <path
       style="fill:none;stroke:#000000;stroke-width:0.56500006;stroke-linecap:butt;stroke-linejoin:miter;stroke-miterlimit:4;stroke-dasharray:none;stroke-opacity:1;marker-end:url(#Arrow1Lend-09)"
       d="M 141.118,70.131652 140.89479,53.537049"
       id="path975-4"
       inkscape:connector-curvature="0"
       sodipodi:nodetypes="cc" />
    <text
       xml:space="preserve"
       style="font-style:normal;font-variant:normal;font-weight:normal;font-stretch:normal;font-size:4.93888855px;line-height:1.25;font-family:Chandas;-inkscape-font-specification:'Chandas, Normal';font-variant-ligatures:normal;font-variant-caps:normal;font-variant-numeric:normal;font-feature-settings:normal;text-align:start;letter-spacing:0px;word-spacing:0px;writing-mode:lr-tb;text-anchor:start;fill:#000000;fill-opacity:1;stroke:none;stroke-width:0.26458332"
       x="130.96207"
       y="-14.63627"
       id="text12509"><tspan
         sodipodi:role="line"
         id="tspan12507"
         x="130.96207"
         y="-14.63627"
         style="font-style:normal;font-variant:normal;font-weight:normal;font-stretch:normal;font-size:4.23333311px;font-family:Chandas;-inkscape-font-specification:'Chandas, Normal';font-variant-ligatures:normal;font-variant-caps:normal;font-variant-numeric:normal;font-feature-settings:normal;text-align:start;writing-mode:lr-tb;text-anchor:start;stroke-width:0.26458332">worker</tspan></text>
    <rect
       style="opacity:0.55;fill:none;fill-opacity:1;stroke:#2472b8;stroke-width:0.66500002;stroke-miterlimit:4;stroke-dasharray:0.665, 1.33;stroke-dashoffset:0;stroke-opacity:1"
       id="rect12511"
       width="98.622452"
       height="20.312483"
       x="89.535286"
       y="-33.077866" />
    <path
       style="opacity:0.60399996;fill:#0000ad;fill-opacity:1;stroke-width:0.04357309"
       d="m 143.73494,8.4863013 c -0.65906,-0.2032449 -1.59043,-0.4886351 -2.06973,-0.6341967 -0.4793,-0.1454547 -1.19312,-0.3632628 -1.58624,-0.4838104 l -0.71479,-0.219179 -1.94319,0.043618 c -1.09294,0.024569 -1.9864,0.027239 -2.04197,0.00712 -0.0543,-0.020653 -0.11838,-0.089017 -0.14244,-0.152042 -0.0491,-0.1294316 -0.0352,-0.1652166 0.26023,-0.6618634 0.10378,-0.1744745 0.17554,-0.3305223 0.15934,-0.3466345 -0.016,-0.016023 -0.26872,-0.1011243 -0.56138,-0.1890376 -0.29264,-0.08795 -0.86539,-0.2620143 -1.27282,-0.3870127 -0.40741,-0.1249807 -1.05447,-0.3218715 -1.43791,-0.4375054 -0.38345,-0.1157229 -0.73221,-0.2241462 -0.77503,-0.2411308 -0.10615,-0.042194 -0.19718,-0.2385315 -0.16574,-0.3572809 0.016,-0.059997 0.50366,-0.4777213 1.27192,-1.0893253 3.75966,-2.992949 6.91545,-5.539225 6.89302,-5.561674 -0.0142,-0.01424 -1.83119,-0.02618 -4.03803,-0.02689 -3.75568,-0.0016 -4.01695,-0.0071 -4.08293,-0.07726 -0.0388,-0.04166 -0.15131,-0.327834 -0.25026,-0.63587 -0.2943,-0.916756 -0.6219,-1.431314 -1.4606,-2.293911 -0.88089,-0.906039 -1.12633,-1.320737 -1.31514,-2.222218 -0.0907,-0.432144 -0.0898,-1.174106 0.001,-1.526704 0.12748,-0.492053 0.34502,-0.855601 0.75685,-1.2650286 0.43781,-0.435225 0.7761,-0.651555 1.30318,-0.833311 0.32075,-0.110557 0.46779,-0.134595 0.94772,-0.154179 1.12669,-0.0461 1.91331,0.236343 2.63672,0.946986 0.69455,0.6823026 0.9867,1.5144036 0.86817,2.4727666 -0.13264,1.072893 -0.39214,1.56062 -1.37591,2.586387 -0.64805,0.675715 -0.93549,1.047096 -1.16617,1.506729 -0.13583,0.27081 -0.33262,0.784424 -0.33262,0.868509 0,0.05074 0.6659,0.06018 4.26195,0.06018 4.22885,0 4.26268,6.58e-4 4.3573,0.08884 0.0556,0.05181 0.0954,0.141359 0.0954,0.214639 0,0.108072 -0.0691,0.180831 -0.49019,0.516463 -0.44032,0.350906 -3.28714,2.625002 -3.9267,3.136728 -0.14064,0.112517 -0.31707,0.255303 -0.39215,0.317348 -0.0749,0.06195 -0.74435,0.597825 -1.48727,1.190645 -0.7429,0.592804 -1.46981,1.175193 -1.61529,1.294191 -0.14546,0.119106 -0.32654,0.259683 -0.40232,0.3126299 -0.0758,0.052877 -0.13815,0.1069987 -0.1385,0.1201736 -4.9e-4,0.012463 0.60218,0.2072686 1.33913,0.4313791 0.73692,0.2241285 1.55242,0.4732352 1.81222,0.5535824 0.2598,0.080294 0.48672,0.1372652 0.50426,0.126405 0.0179,-0.010677 0.21569,-0.3252168 0.44036,-0.6986276 0.42628,-0.7084374 0.50145,-0.7810934 0.71724,-0.6934114 0.0817,0.03311 0.53426,0.50489 2.13599,2.2259912 l 0.2615,0.2809929 0.63174,0.1895362 c 0.34747,0.1043288 1.24942,0.3781821 2.00431,0.6087377 0.75491,0.2305732 1.57366,0.4803565 1.81945,0.5551135 0.24579,0.074775 0.45874,0.1240911 0.47319,0.1096699 0.0417,-0.04166 -0.18338,-0.5904713 -0.39273,-0.9578468 -0.23065,-0.4048191 -0.4129,-0.6288584 -1.08489,-1.3337351 -0.53924,-0.5655999 -0.76018,-0.8572925 -0.97784,-1.2908972 -0.30234,-0.6022933 -0.43953,-1.6643793 -0.2975,-2.3028853 0.23238,-1.044477 1.12161,-1.929312 2.26867,-2.257467 0.50043,-0.14314 1.41561,-0.143496 1.91423,-8e-4 1.25707,0.359915 2.16296,1.318065 2.33495,2.469615 0.0848,0.56729 -0.0192,1.381161 -0.24748,1.9389969 -0.19046,0.4653838 -0.46734,0.8376018 -1.15591,1.5539814 -0.88166,0.917253 -1.16797,1.3778655 -1.47636,2.3750225 -0.13691,0.4425971 -0.23995,0.604269 -0.38297,0.600922 -0.0392,-7.995e-4 -0.61064,-0.1680652 -1.2697,-0.3712372 z m 1.78047,-4.8092097 c 0.46162,-0.235505 0.67891,-0.79117 0.5189,-1.327003 -0.0844,-0.282968 -0.43368,-0.612815 -0.74326,-0.702009 -0.84213,-0.242716 -1.65017,0.57897 -1.36248,1.385504 0.24494,0.686735 0.94535,0.970772 1.58684,0.643508 z m -13.44704,-11.026784 c 0.71982,-0.269313 0.9525,-1.160949 0.45151,-1.730127 -0.54602,-0.62031 -1.47954,-0.504018 -1.83815,0.228971 -0.10091,0.206361 -0.11452,0.278643 -0.0957,0.512367 0.0633,0.789853 0.76439,1.257426 1.48237,0.988789 z"
       id="path963"
       inkscape:connector-curvature="0" />
    <path
       style="fill:none;stroke:#000000;stroke-width:0.32690015;stroke-linecap:butt;stroke-linejoin:miter;stroke-miterlimit:4;stroke-dasharray:none;stroke-opacity:1;marker-end:url(#Arrow1Lend-1-3)"
       d="M 141.79256,-25.115838 H 136.9211"
       id="path975-7-3"
       inkscape:connector-curvature="0"
       sodipodi:nodetypes="cc" />
    <path
       style="fill:none;stroke:#000000;stroke-width:0.26499999;stroke-linecap:butt;stroke-linejoin:miter;stroke-miterlimit:4;stroke-dasharray:none;stroke-opacity:1;marker-end:url(#Arrow1Lend-5-3)"
       d="m 108.02217,81.072002 20.41697,0.08835"
       id="path975-3-7"
       inkscape:connector-curvature="0"
       sodipodi:nodetypes="cc" />
    <path
       style="fill:none;stroke:#000000;stroke-width:0.26499999;stroke-linecap:butt;stroke-linejoin:miter;stroke-miterlimit:4;stroke-dasharray:none;stroke-opacity:1;marker-end:url(#Arrow1Lend-5-3-5)"
       d="m 176.80347,80.876965 -20.41697,0.08835"
       id="path975-3-7-5"
       inkscape:connector-curvature="0"
       sodipodi:nodetypes="cc" />
    <path
       style="fill:none;stroke:#000000;stroke-width:0.26499999;stroke-linecap:butt;stroke-linejoin:miter;stroke-miterlimit:4;stroke-dasharray:none;stroke-opacity:1;marker-end:url(#Arrow1Lend-5-3-6)"
       d="m 119.89118,44.090473 -16.7128,9.61335"
       id="path975-3-7-9"
       inkscape:connector-curvature="0"
       sodipodi:nodetypes="cc" />
    <path
       style="fill:none;stroke:#000000;stroke-width:0.26499999;stroke-linecap:butt;stroke-linejoin:miter;stroke-miterlimit:4;stroke-dasharray:none;stroke-opacity:1;marker-end:url(#Arrow1Lend-5-3-6-1)"
       d="M 72.509415,56.80476 55.796614,66.41811"
       id="path975-3-7-9-7"
       inkscape:connector-curvature="0"
       sodipodi:nodetypes="cc" />
  </g>
</svg>
