<?xml version="1.0" encoding="UTF-8" standalone="no"?>
<!-- Created with Inkscape (http://www.inkscape.org/) -->

<svg
   xmlns:dc="http://purl.org/dc/elements/1.1/"
   xmlns:cc="http://creativecommons.org/ns#"
   xmlns:rdf="http://www.w3.org/1999/02/22-rdf-syntax-ns#"
   xmlns:svg="http://www.w3.org/2000/svg"
   xmlns="http://www.w3.org/2000/svg"
   xmlns:sodipodi="http://sodipodi.sourceforge.net/DTD/sodipodi-0.dtd"
   xmlns:inkscape="http://www.inkscape.org/namespaces/inkscape"
   width="21.010036mm"
   height="12.148936mm"
   viewBox="0 0 21.010036 12.148936"
   version="1.1"
   id="svg1145"
   inkscape:version="0.92.3 (2405546, 2018-03-11)"
   sodipodi:docname="van.svg">
  <defs
     id="defs1139" />
  <sodipodi:namedview
     id="base"
     pagecolor="#ffffff"
     bordercolor="#666666"
     borderopacity="1.0"
     inkscape:pageopacity="0.0"
     inkscape:pageshadow="2"
     inkscape:zoom="0.35"
     inkscape:cx="-97.438852"
     inkscape:cy="20.101488"
     inkscape:document-units="mm"
     inkscape:current-layer="layer1"
     showgrid="false"
     inkscape:window-width="719"
     inkscape:window-height="449"
     inkscape:window-x="28"
     inkscape:window-y="28"
     inkscape:window-maximized="0" />
  <metadata
     id="metadata1142">
    <rdf:RDF>
      <cc:Work
         rdf:about="">
        <dc:format>image/svg+xml</dc:format>
        <dc:type
           rdf:resource="http://purl.org/dc/dcmitype/StillImage" />
        <dc:title></dc:title>
      </cc:Work>
    </rdf:RDF>
  </metadata>
  <g
     inkscape:label="Layer 1"
     inkscape:groupmode="layer"
     id="layer1"
     transform="translate(-1.59022,-142.00292)">
    <path
       style="opacity:0.48900003;fill:#980000;fill-opacity:1;stroke-width:0.03443659"
       d="m 5.0804021,154.10133 c -0.5761101,-0.15517 -1.08452,-0.57922 -1.36085,-1.13506 -0.16529,-0.33247 -0.2152101,-0.56104 -0.21061,-0.96423 0.006,-0.57128 0.20554,-1.03502 0.62395,-1.4539 0.8309799,-0.8319 2.1283799,-0.83601 2.9660801,-0.009 0.8092998,0.7986 0.87152,1.9983 0.1488498,2.87 -0.2600299,0.31366 -0.6958499,0.59034 -1.0907498,0.69248 -0.2556801,0.0661 -0.8312801,0.0662 -1.0766701,1.1e-4 z m 1.01468,-0.68422 c 0.3851799,-0.1359 0.7236701,-0.45995 0.8755399,-0.83819 0.0646,-0.16083 0.0795,-0.26283 0.0795,-0.54244 0,-0.43912 -0.0799,-0.65636 -0.3478699,-0.9458 -0.3176701,-0.34311 -0.62988,-0.48258 -1.0803501,-0.48258 -0.3043999,0 -0.5349401,0.063 -0.7606699,0.20785 -0.6438501,0.41315 -0.8652301,1.21474 -0.5248402,1.90031 0.1668801,0.33611 0.6022901,0.66952 0.9773002,0.74835 0.1976199,0.0415 0.59793,0.0172 0.78135,-0.0475 z m 11.7346199,0.67201 c -0.72524,-0.21163 -1.3161,-0.82646 -1.48471,-1.54493 -0.0716,-0.30506 -0.049,-0.91515 0.0431,-1.16201 0.39295,-1.05391 1.41362,-1.63598 2.47476,-1.41132 0.7642,0.16179 1.45615,0.85374 1.61794,1.61794 0.20216,0.95485 -0.25977,1.9204 -1.1226,2.34654 -0.1588,0.0784 -0.37084,0.15979 -0.47121,0.1808 -0.27421,0.0574 -0.8154,0.0436 -1.05723,-0.027 z m 0.86182,-0.62661 c 0.39653,-0.0733 0.74309,-0.31977 0.95866,-0.68178 0.16142,-0.2711 0.20521,-0.46342 0.18791,-0.8253 -0.0124,-0.25918 -0.0321,-0.34186 -0.12744,-0.53559 -0.14367,-0.29185 -0.38735,-0.53536 -0.67975,-0.67932 -0.19805,-0.0975 -0.27416,-0.11514 -0.54844,-0.12713 -0.24118,-0.0105 -0.36322,5.3e-4 -0.50283,0.0468 -1.04119,0.3429 -1.36102,1.6385 -0.59386,2.40567 0.3576,0.35759 0.79628,0.49086 1.30575,0.39668 z M 2.5742921,151.85809 c -0.20445,-0.0458 -0.40687,-0.12967 -0.53233,-0.22056 -0.17119,-0.124 -0.35498,-0.40409 -0.40919,-0.62357 -0.0562,-0.22737 -0.057,-7.90361 -8e-4,-8.1467 0.0777,-0.33673 0.40484,-0.6903 0.74671,-0.80713 0.0994,-0.034 1.38445,-0.0457 5.94656,-0.0543 5.9038399,-0.0111 7.0720899,0.006 7.5183699,0.11296 0.58987,0.14082 0.91803,0.43666 1.41602,1.27655 0.17888,0.30169 0.38958,0.65701 0.46824,0.78959 0.0786,0.13258 0.30213,0.51224 0.49662,0.8437 0.19449,0.33145 0.38718,0.6552 0.4282,0.71944 0.0682,0.10686 0.12429,0.13368 0.65891,0.31526 1.28894,0.43775 2.28335,0.78683 2.49557,0.87605 0.41618,0.17497 0.6686,0.41819 0.75428,0.72679 0.0525,0.18914 0.0513,3.11807 -10e-4,3.34629 -0.0814,0.35268 -0.4143,0.7039 -0.76476,0.80686 -0.0789,0.0232 -0.34394,0.0427 -0.59024,0.0435 l -0.44707,0.001 -0.0639,-0.30993 c -0.10544,-0.51135 -0.3501,-0.93894 -0.73733,-1.28864 -0.4306,-0.38885 -0.98427,-0.59486 -1.58811,-0.5909 -0.61528,0.004 -1.14697,0.22371 -1.59028,0.65704 -0.38811,0.37937 -0.56931,0.71588 -0.68609,1.27415 l -0.054,0.25828 -4.01686,0.009 -4.0168502,0.009 -0.023699,-0.18094 c -0.0616,-0.46978 -0.3091699,-0.9611 -0.6709299,-1.33158 -0.4424302,-0.45308 -1.01552,-0.69377 -1.6535201,-0.69445 -0.8475599,-0.001 -1.55062,0.40168 -2.02563,1.15987 -0.13731,0.21917 -0.27341,0.60326 -0.30302,0.85514 l -0.0225,0.19168 -0.33101,-0.004 c -0.1820646,-0.002 -0.3620146,-0.0109 -0.3998946,-0.0194 z m 19.6678799,-1.93162 c 0.13337,-0.10803 0.15038,-0.19157 0.15038,-0.73831 0,-0.78205 -0.003,-0.78474 -0.94701,-0.78474 -0.94711,0 -0.947,-1.1e-4 -0.947,0.80314 v 0.54677 l 0.11708,0.11709 0.11709,0.11708 0.718,-5.3e-4 c 0.62826,-5.3e-4 0.72718,-0.008 0.79146,-0.0603 z m -4.88425,-3.80276 c 0.0228,-0.0228 0.0413,-0.0601 0.0413,-0.0831 0,-0.0825 -1.34432,-2.75232 -1.41556,-2.81126 -0.0674,-0.0558 -0.21405,-0.0603 -1.97337,-0.0603 -1.43228,0 -1.91071,0.0102 -1.94185,0.0413 -0.0594,0.0594 -0.0594,2.85394 0,2.91333 0.0598,0.0598 5.22964,0.0598 5.28946,0 z"
       id="path1505-3"
       inkscape:connector-curvature="0" />
  </g>
</svg>
