<?xml version="1.0" encoding="UTF-8" standalone="no"?>
<!-- Created with Inkscape (http://www.inkscape.org/) -->

<svg
   xmlns:dc="http://purl.org/dc/elements/1.1/"
   xmlns:cc="http://creativecommons.org/ns#"
   xmlns:rdf="http://www.w3.org/1999/02/22-rdf-syntax-ns#"
   xmlns:svg="http://www.w3.org/2000/svg"
   xmlns="http://www.w3.org/2000/svg"
   xmlns:sodipodi="http://sodipodi.sourceforge.net/DTD/sodipodi-0.dtd"
   xmlns:inkscape="http://www.inkscape.org/namespaces/inkscape"
   width="182.30894mm"
   height="46.577633mm"
   viewBox="0 0 182.30895 46.577634"
   version="1.1"
   id="svg8"
   inkscape:version="0.92.3 (2405546, 2018-03-11)"
   sodipodi:docname="antani_concept.svg">
  <defs
     id="defs2">
    <marker
       inkscape:isstock="true"
       style="overflow:visible"
       id="marker10980"
       refX="0"
       refY="0"
       orient="auto"
       inkscape:stockid="Arrow1Lend">
      <path
         transform="matrix(-0.8,0,0,-0.8,-10,0)"
         style="fill:#000000;fill-opacity:1;fill-rule:evenodd;stroke:#000000;stroke-width:1.00000003pt;stroke-opacity:1"
         d="M 0,0 5,-5 -12.5,0 5,5 Z"
         id="path10978"
         inkscape:connector-curvature="0" />
    </marker>
    <marker
       inkscape:stockid="Arrow1Lend"
       orient="auto"
       refY="0"
       refX="0"
       id="Arrow1Lend-0"
       style="overflow:visible"
       inkscape:isstock="true">
      <path
         inkscape:connector-curvature="0"
         id="path980-1"
         d="M 0,0 5,-5 -12.5,0 5,5 Z"
         style="fill:#000000;fill-opacity:1;fill-rule:evenodd;stroke:#000000;stroke-width:1.00000003pt;stroke-opacity:1"
         transform="matrix(-0.8,0,0,-0.8,-10,0)" />
    </marker>
    <marker
       inkscape:stockid="Arrow1Lend"
       orient="auto"
       refY="0"
       refX="0"
       id="Arrow1Lend-1"
       style="overflow:visible"
       inkscape:isstock="true">
      <path
         inkscape:connector-curvature="0"
         id="path980-3"
         d="M 0,0 5,-5 -12.5,0 5,5 Z"
         style="fill:#000000;fill-opacity:1;fill-rule:evenodd;stroke:#000000;stroke-width:1.00000003pt;stroke-opacity:1"
         transform="matrix(-0.8,0,0,-0.8,-10,0)" />
    </marker>
    <marker
       inkscape:stockid="Arrow1Lend"
       orient="auto"
       refY="0"
       refX="0"
       id="Arrow1Lend-1-7"
       style="overflow:visible"
       inkscape:isstock="true">
      <path
         inkscape:connector-curvature="0"
         id="path980-3-2"
         d="M 0,0 5,-5 -12.5,0 5,5 Z"
         style="fill:#000000;fill-opacity:1;fill-rule:evenodd;stroke:#000000;stroke-width:1.00000003pt;stroke-opacity:1"
         transform="matrix(-0.8,0,0,-0.8,-10,0)" />
    </marker>
    <marker
       inkscape:stockid="Arrow1Lend"
       orient="auto"
       refY="0"
       refX="0"
       id="Arrow1Lend-4"
       style="overflow:visible"
       inkscape:isstock="true">
      <path
         inkscape:connector-curvature="0"
         id="path980-5"
         d="M 0,0 5,-5 -12.5,0 5,5 Z"
         style="fill:#000000;fill-opacity:1;fill-rule:evenodd;stroke:#000000;stroke-width:1.00000003pt;stroke-opacity:1"
         transform="matrix(-0.8,0,0,-0.8,-10,0)" />
    </marker>
    <marker
       inkscape:stockid="Arrow1Lend"
       orient="auto"
       refY="0"
       refX="0"
       id="Arrow1Lend-4-0"
       style="overflow:visible"
       inkscape:isstock="true">
      <path
         inkscape:connector-curvature="0"
         id="path980-5-2"
         d="M 0,0 5,-5 -12.5,0 5,5 Z"
         style="fill:#000000;fill-opacity:1;fill-rule:evenodd;stroke:#000000;stroke-width:1.00000003pt;stroke-opacity:1"
         transform="matrix(-0.8,0,0,-0.8,-10,0)" />
    </marker>
    <marker
       inkscape:stockid="Arrow1Lend"
       orient="auto"
       refY="0"
       refX="0"
       id="Arrow1Lend-09"
       style="overflow:visible"
       inkscape:isstock="true">
      <path
         inkscape:connector-curvature="0"
         id="path980-9"
         d="M 0,0 5,-5 -12.5,0 5,5 Z"
         style="fill:#000000;fill-opacity:1;fill-rule:evenodd;stroke:#000000;stroke-width:1.00000003pt;stroke-opacity:1"
         transform="matrix(-0.8,0,0,-0.8,-10,0)" />
    </marker>
    <marker
       inkscape:stockid="Arrow1Lend"
       orient="auto"
       refY="0"
       refX="0"
       id="Arrow1Lend-5"
       style="overflow:visible"
       inkscape:isstock="true">
      <path
         inkscape:connector-curvature="0"
         id="path980-10"
         d="M 0,0 5,-5 -12.5,0 5,5 Z"
         style="fill:#000000;fill-opacity:1;fill-rule:evenodd;stroke:#000000;stroke-width:1.00000003pt;stroke-opacity:1"
         transform="matrix(-0.8,0,0,-0.8,-10,0)" />
    </marker>
    <marker
       inkscape:stockid="Arrow1Lend"
       orient="auto"
       refY="0"
       refX="0"
       id="Arrow1Lend-5-0"
       style="overflow:visible"
       inkscape:isstock="true">
      <path
         inkscape:connector-curvature="0"
         id="path980-10-4"
         d="M 0,0 5,-5 -12.5,0 5,5 Z"
         style="fill:#000000;fill-opacity:1;fill-rule:evenodd;stroke:#000000;stroke-width:1.00000003pt;stroke-opacity:1"
         transform="matrix(-0.8,0,0,-0.8,-10,0)" />
    </marker>
    <marker
       inkscape:isstock="true"
       style="overflow:visible"
       id="marker10980-3"
       refX="0"
       refY="0"
       orient="auto"
       inkscape:stockid="Arrow1Lend">
      <path
         inkscape:connector-curvature="0"
         transform="matrix(-0.8,0,0,-0.8,-10,0)"
         style="fill:#000000;fill-opacity:1;fill-rule:evenodd;stroke:#000000;stroke-width:1.00000003pt;stroke-opacity:1"
         d="M 0,0 5,-5 -12.5,0 5,5 Z"
         id="path10978-8" />
    </marker>
    <marker
       inkscape:stockid="Arrow1Lend"
       orient="auto"
       refY="0"
       refX="0"
       id="Arrow1Lend-1-3"
       style="overflow:visible"
       inkscape:isstock="true">
      <path
         inkscape:connector-curvature="0"
         id="path980-3-3"
         d="M 0,0 5,-5 -12.5,0 5,5 Z"
         style="fill:#000000;fill-opacity:1;fill-rule:evenodd;stroke:#000000;stroke-width:1.00000003pt;stroke-opacity:1"
         transform="matrix(-0.8,0,0,-0.8,-10,0)" />
    </marker>
  </defs>
  <sodipodi:namedview
     id="base"
     pagecolor="#ffffff"
     bordercolor="#666666"
     borderopacity="1.0"
     inkscape:pageopacity="0.0"
     inkscape:pageshadow="2"
     inkscape:zoom="0.98994949"
     inkscape:cx="413.25113"
     inkscape:cy="179.09672"
     inkscape:document-units="mm"
     inkscape:current-layer="layer1"
     showgrid="false"
     inkscape:window-width="1538"
     inkscape:window-height="864"
     inkscape:window-x="96"
     inkscape:window-y="54"
     inkscape:window-maximized="0"
     fit-margin-top="0"
     fit-margin-left="0"
     fit-margin-right="0"
     fit-margin-bottom="0">
    <inkscape:grid
       type="xygrid"
       id="grid2818"
       originx="-12.123572"
       originy="-189.10346" />
  </sodipodi:namedview>
  <metadata
     id="metadata5">
    <rdf:RDF>
      <cc:Work
         rdf:about="">
        <dc:format>image/svg+xml</dc:format>
        <dc:type
           rdf:resource="http://purl.org/dc/dcmitype/StillImage" />
        <dc:title></dc:title>
      </cc:Work>
    </rdf:RDF>
  </metadata>
  <g
     inkscape:label="Layer 1"
     inkscape:groupmode="layer"
     id="layer1"
     transform="translate(-12.123571,-61.318938)">
    <circle
       style="opacity:1;fill:#6e3b54;fill-opacity:1;stroke:none;stroke-width:0.16419084;stroke-miterlimit:4;stroke-dasharray:none;stroke-dashoffset:0;stroke-opacity:1"
       id="path944-5"
       cx="172.04012"
       cy="63.099106"
       r="1.7801679" />
    <path
       style="fill:none;stroke:#920043;stroke-width:0.2305657px;stroke-linecap:butt;stroke-linejoin:miter;stroke-opacity:1"
       d="m 172.15686,62.866198 -20.96159,29.695583 21.89322,9.083359 19.9135,-19.331246 -20.96158,-19.447696 -20.96159,9.549167 22.00967,3.842959 19.9135,6.05557 -20.14641,6.637836 -21.77676,3.377145 22.00967,-16.070551"
       id="path938"
       inkscape:connector-curvature="0"
       sodipodi:nodetypes="ccccccccccc" />
    <circle
       style="opacity:1;fill:#6e3b54;fill-opacity:1;stroke:none;stroke-width:0.16419084;stroke-miterlimit:4;stroke-dasharray:none;stroke-dashoffset:0;stroke-opacity:1"
       id="path944-2"
       cx="152.24306"
       cy="92.212418"
       r="1.7801679" />
    <circle
       style="opacity:1;fill:#6e3b54;fill-opacity:1;stroke:none;stroke-width:0.16419084;stroke-miterlimit:4;stroke-dasharray:none;stroke-dashoffset:0;stroke-opacity:1"
       id="path944-9"
       cx="172.85529"
       cy="76.607681"
       r="1.7801679" />
    <circle
       style="opacity:1;fill:#6e3b54;fill-opacity:1;stroke:none;stroke-width:0.16419084;stroke-miterlimit:4;stroke-dasharray:none;stroke-dashoffset:0;stroke-opacity:1"
       id="path944-0"
       cx="192.65234"
       cy="82.546799"
       r="1.7801679" />
    <path
       style="fill:none;stroke:#920043;stroke-width:0.2305657px;stroke-linecap:butt;stroke-linejoin:miter;stroke-opacity:1"
       d="M 172.85558,88.951731 151.07882,72.415365 173.08849,101.64514"
       id="path997"
       inkscape:connector-curvature="0" />
    <circle
       style="opacity:1;fill:#6e3b54;fill-opacity:1;stroke:none;stroke-width:0.16419084;stroke-miterlimit:4;stroke-dasharray:none;stroke-dashoffset:0;stroke-opacity:1"
       id="path944-27"
       cx="172.38948"
       cy="101.41223"
       r="1.7801679" />
    <circle
       style="opacity:1;fill:#6e3b54;fill-opacity:1;stroke:none;stroke-width:0.16419084;stroke-miterlimit:4;stroke-dasharray:none;stroke-dashoffset:0;stroke-opacity:1"
       id="path944-1"
       cx="172.15657"
       cy="89.068184"
       r="1.7801679" />
    <path
       style="fill:#00008a;fill-opacity:1;stroke:#0000c6;stroke-width:0.04070708;stroke-opacity:1"
       d="m 156.20995,76.61321 c -0.0379,-0.07652 0.0201,-0.09014 0.44714,-0.104972 0.35824,-0.01241 0.4928,-0.03863 0.68647,-0.133588 0.33356,-0.163537 0.70325,-0.540028 0.92829,-0.945353 0.0985,-0.17747 0.17596,-0.329106 0.17208,-0.336964 -0.004,-0.0077 -0.0813,-0.02192 -0.17225,-0.03049 -0.24558,-0.02401 -0.4858,-0.114103 -0.58886,-0.220895 -0.0576,-0.05958 -0.10124,-0.181641 -0.11796,-0.329791 -0.0922,-0.815863 0.37322,-1.779415 1.10521,-2.288319 0.42669,-0.296651 1.11649,-0.476692 1.59671,-0.416739 0.2478,0.03093 0.24828,0.03073 0.37686,-0.137247 0.16257,-0.212402 0.44971,-0.495589 0.51874,-0.51162 0.12565,-0.02917 0.35089,0.663476 0.50666,1.557997 0.0193,0.110786 0.0539,0.150476 0.18578,0.213376 0.0891,0.04248 0.18206,0.09119 0.20652,0.108092 0.0324,0.02247 0.072,-0.04125 0.14654,-0.235449 0.0701,-0.182591 0.14565,-0.308174 0.24071,-0.399613 0.25002,-0.240488 0.63861,-0.301113 0.95801,-0.149446 l 0.17227,0.08179 0.15251,-0.144269 c 0.20436,-0.193311 0.54164,-0.355101 0.80448,-0.385907 0.26386,-0.03092 0.6874,0.07084 0.90104,0.216494 0.14424,0.09834 0.16475,0.101493 0.34642,0.05333 0.15992,-0.0424 0.21665,-0.03819 0.32997,0.02453 0.14198,0.07858 0.16758,0.08764 0.82625,0.292582 0.48235,0.150003 0.64525,0.281188 0.8284,0.666624 0.12264,0.258103 0.26537,0.845035 0.28252,1.161824 l 0.01,0.180189 -0.16261,0.09045 c -0.4933,0.27438 -0.81029,0.40658 -0.90279,0.376519 -0.2253,-0.07327 -0.62543,-0.388925 -0.82452,-0.650548 -0.17886,-0.235026 -0.25353,-0.39489 -0.44197,-0.946291 -0.0251,-0.07348 -0.0695,-0.141607 -0.0987,-0.151455 -0.0477,-0.01601 -0.57339,0.366324 -0.59637,0.433801 -0.005,0.01519 0.0298,0.287939 0.0778,0.606001 0.048,0.318066 0.0797,0.714559 0.0706,0.881093 -0.029,0.526578 10e-4,0.701301 0.14397,0.83413 0.07,0.06503 0.2115,0.171479 0.31452,0.236492 0.14582,0.09202 0.16109,0.110166 0.069,0.08192 -0.15296,-0.04696 -0.51847,-0.286502 -0.605,-0.396619 -0.0883,-0.112404 -0.12572,-0.383107 -0.0958,-0.693314 0.016,-0.166321 -0.002,-0.315353 -0.0539,-0.444418 -0.0429,-0.106818 -0.10535,-0.35898 -0.13868,-0.560386 l -0.0606,-0.366194 -0.2289,0.1134 c -0.13535,0.06705 -0.26485,0.101526 -0.31689,0.08437 -0.12341,-0.04071 -0.188,-0.01712 -0.26007,0.09498 -0.0685,0.106524 -0.20609,0.117254 -0.34646,0.02701 -0.0717,-0.04612 -0.0775,-0.08683 -0.039,-0.27558 0.0249,-0.121795 0.0299,-0.226626 0.0113,-0.232908 -0.0186,-0.0062 -0.14226,0.02375 -0.27474,0.06672 -0.23712,0.07693 -0.24261,0.08198 -0.35027,0.322182 -0.0601,0.134241 -0.20372,0.444189 -0.31904,0.688833 -0.11531,0.244637 -0.38268,0.918101 -0.59411,1.496591 -0.37933,1.03783 -0.38405,1.054428 -0.35536,1.249177 0.0188,0.127447 0.0639,0.225882 0.12737,0.277877 0.089,0.07283 0.10393,0.235423 0.0191,0.206789 -0.0616,-0.02078 -0.2292,-0.270315 -0.27327,-0.406826 -0.0429,-0.132967 -0.0303,-0.17711 0.54568,-1.91027 0.32425,-0.975796 0.57575,-1.778335 0.55881,-1.783444 -0.13385,-0.0405 -0.31023,0.0071 -0.36232,0.09744 -0.0771,0.133849 -0.40191,0.232737 -0.63043,0.191964 -0.13883,-0.02474 -0.20969,-0.06334 -0.3256,-0.177091 -0.0815,-0.07998 -0.15513,-0.140758 -0.16365,-0.135073 -0.008,0.0054 -0.0897,0.09783 -0.18037,0.204671 -0.45836,0.540162 -1.35176,1.018526 -2.1028,1.125944 l -0.25238,0.03609 -0.16905,0.27889 c -0.43801,0.722606 -0.63139,0.919465 -1.11073,1.130678 -0.19339,0.08521 -0.37613,0.122399 -0.67804,0.137932 -0.44766,0.02307 -0.44869,0.023 -0.47384,-0.02776 z m 5.02044,-4.395885 c 0.003,-0.0088 -0.002,-0.109415 -0.0111,-0.223489 -0.0195,-0.244108 -0.0844,-0.478206 -0.13764,-0.496169 -0.0382,-0.01291 -0.35077,0.293689 -0.37728,0.369977 -0.008,0.02277 0.0851,0.10445 0.20683,0.181557 0.25121,0.159264 0.31146,0.191023 0.31919,0.168119 z m 5.69933,1.545726 c 0.25482,-0.126238 -4.6e-4,-0.627364 -0.31353,-0.615491 -0.28306,0.01078 -0.20031,0.49367 0.10208,0.595704 0.0822,0.02775 0.1774,0.03665 0.21145,0.01976 z m -14.49518,0.648871 c 0.12206,-0.0116 0.42566,-0.05192 0.67467,-0.08962 l 0.45275,-0.06855 0.91497,-0.583621 c 0.78673,-0.501815 0.92658,-0.606226 0.99778,-0.744943 0.0456,-0.0887 0.13647,-0.195016 0.20205,-0.236193 0.0656,-0.04114 0.6344,-0.437052 1.26406,-0.879718 0.62966,-0.442659 1.2002,-0.819264 1.26788,-0.836896 0.17891,-0.04661 0.4925,0.04334 0.73163,0.209839 0.25543,0.177907 0.53168,0.456313 0.47467,0.478399 -0.0237,0.0092 -0.12178,0.04152 -0.21798,0.07193 l -0.1749,0.05526 -0.17967,-0.193232 c -0.12877,-0.138487 -0.24875,-0.222904 -0.42356,-0.297954 l -0.24392,-0.104679 -0.29644,0.157434 c -0.32315,0.171633 -0.89727,0.642658 -1.62013,1.329199 -0.38882,0.36929 -0.48736,0.442577 -0.61586,0.458013 -0.093,0.0111 -0.30725,0.119999 -0.54622,0.277411 -0.21628,0.142473 -0.63559,0.417671 -0.9318,0.611559 l -0.53854,0.352515 -0.49581,0.07925 c -0.37134,0.05935 -0.54875,0.06625 -0.70668,0.02748 l -0.21085,-0.05181 z m 17.79456,3.447719 c -0.19648,-0.767881 -0.98377,-2.241939 -1.7311,-3.241127 -0.13063,-0.174669 -0.22911,-0.342472 -0.21885,-0.37289 0.0103,-0.03043 0.0316,-0.05068 0.0474,-0.04506 0.0514,0.01826 0.72436,0.975186 0.9646,1.371391 0.74095,1.222008 1.32352,2.668919 1.03353,2.566975 -0.0147,-0.0051 -0.0576,-0.13081 -0.0956,-0.279299 z m -2.67492,-2.42038 c -0.12701,-0.18384 -0.23101,-0.348656 -0.23115,-0.366235 -1.1e-4,-0.01754 0.0727,-0.0723 0.1618,-0.1216 l 0.16204,-0.08962 0.0811,0.151015 c 0.11835,0.220449 0.19187,0.552374 0.14992,0.676728 -0.0201,0.05954 -0.0492,0.102719 -0.0647,0.09606 -0.0154,-0.0071 -0.13205,-0.162514 -0.25904,-0.346355 z m 0.45841,-0.14899 c 0.0111,-0.03299 -0.0152,-0.164507 -0.0584,-0.292206 -0.0855,-0.252357 -0.0582,-0.315803 0.14895,-0.345723 0.0888,-0.01291 0.11535,-0.0017 0.1468,0.06178 0.0485,0.09785 -0.0983,0.557288 -0.19301,0.604227 -0.0516,0.02552 -0.0604,0.01994 -0.0442,-0.02802 z m 3.71503,-0.123869 c -0.39419,-0.318538 -0.98372,-0.69797 -1.45781,-0.938282 -0.45402,-0.230144 -1.66969,-0.629249 -1.92907,-0.633318 -0.10414,-0.0017 -0.13635,-0.01552 -0.13816,-0.05921 -0.003,-0.07796 0.0966,-0.06744 0.68872,0.07258 0.88009,0.208135 1.93168,0.728648 2.78256,1.377299 0.41399,0.315605 0.44394,0.346148 0.37092,0.37838 -0.0267,0.01176 -0.16421,-0.07381 -0.31717,-0.197449 z m -8.77444,-3.531315 c 0.14656,-0.18684 0.35619,-0.454432 0.46583,-0.594655 0.10964,-0.140219 0.22322,-0.27106 0.2524,-0.290753 0.0742,-0.05009 0.19975,3.63e-4 0.20308,0.08162 0.002,0.05571 -0.50697,1.094351 -0.54219,1.105801 -0.006,0.0019 -0.0624,-0.0011 -0.12547,-0.0069 l -0.11466,-0.01029 0.0985,-0.300546 c 0.10652,-0.32491 0.081,-0.321256 -0.1545,0.02223 -0.0724,0.105544 -0.18061,0.22368 -0.24053,0.262533 -0.0854,0.05534 -0.0512,-0.003 0.15753,-0.26906 z"
       id="path832"
       inkscape:connector-curvature="0" />
    <circle
       style="opacity:1;fill:#6e3b54;fill-opacity:1;stroke:none;stroke-width:0.16419084;stroke-miterlimit:4;stroke-dasharray:none;stroke-dashoffset:0;stroke-opacity:1"
       id="path944"
       cx="151.54434"
       cy="72.298912"
       r="1.7801679" />
    <path
       style="fill:#00008a;fill-opacity:1;stroke:#0000c6;stroke-width:0.02075469;stroke-opacity:1"
       d="m 166.23889,81.270672 c 0.19369,0.311058 0.27361,0.646931 0.2576,1.08249 -0.0202,0.548766 -0.2383,1.157967 -0.57552,1.604025 -0.17598,0.233156 -0.47376,0.487775 -0.68626,0.586787 -0.36507,0.170083 -0.7141,0.177267 -1.1267,0.02307 -0.20421,-0.07622 -0.32368,-0.143467 -0.53749,-0.302159 l -0.16017,-0.118988 0.0549,0.132059 c 0.0695,0.166884 0.12685,0.511643 0.11479,0.689746 -0.0314,0.462375 -0.22148,0.867089 -0.55432,1.179428 -0.48386,0.454339 -0.9981,0.492149 -1.59246,0.117525 l -0.11659,-0.07359 0.0901,0.161088 c 0.34785,0.621916 0.24059,1.178356 -0.30527,1.585971 -0.16648,0.124181 -0.41536,0.252235 -0.58855,0.302804 -0.0596,0.01737 -0.1085,0.03737 -0.10864,0.0442 -4.3e-4,0.0077 0.14812,0.137049 0.3297,0.288898 0.34959,0.292589 0.37272,0.320433 0.36285,0.436838 -0.003,0.03599 -0.0822,0.387561 -0.17442,0.781286 -0.13452,0.570004 -0.17915,0.72523 -0.21925,0.76269 -0.12277,0.114894 -0.27483,0.0808 -0.32654,-0.07294 -0.0108,-0.03187 0.0426,-0.314806 0.139,-0.732879 0.13224,-0.576855 0.15085,-0.68649 0.12186,-0.717505 -0.0381,-0.04069 -0.69113,-0.589551 -0.70045,-0.588679 -0.004,2.6e-4 -0.0548,0.0236 -0.11448,0.05161 -0.26044,0.122663 -0.53202,0.169407 -0.89948,0.154911 -0.15033,-0.0044 -0.2792,-0.01832 -0.28687,-0.02691 -0.009,-0.0087 0.0786,-0.101604 0.2285,-0.241837 0.13336,-0.124837 0.23766,-0.231896 0.2317,-0.238052 -0.006,-0.0064 -0.056,-0.03931 -0.11117,-0.07358 -0.12849,-0.07998 -0.29741,-0.260555 -0.3686,-0.394102 -0.0306,-0.05747 -0.0603,-0.109575 -0.066,-0.115863 -0.006,-0.0064 -0.11956,0.09055 -0.25299,0.215298 -0.14981,0.140084 -0.24789,0.221087 -0.25655,0.211825 -0.008,-0.0087 -0.0106,-0.137854 -0.006,-0.288057 0.0102,-0.367599 0.0749,-0.635456 0.21459,-0.887156 0.032,-0.05775 0.0587,-0.107471 0.0592,-0.110542 0.002,-0.0095 -0.50239,-0.697382 -0.54036,-0.737972 -0.0287,-0.03066 -0.14209,-0.0194 -0.72508,0.07329 -0.41372,0.06564 -0.71105,0.101403 -0.74083,0.08899 -0.083,-0.03419 -0.10811,-0.07818 -0.10466,-0.182403 0.006,-0.176336 0.0154,-0.179828 0.8303,-0.315526 0.39894,-0.06644 0.75498,-0.121274 0.79119,-0.121913 0.1167,-0.0012 0.143,0.02321 0.41163,0.39122 0.1395,0.191254 0.2593,0.348022 0.26623,0.348263 0.007,2.95e-4 0.03,-0.0472 0.0514,-0.105516 0.062,-0.169497 0.2064,-0.409176 0.34144,-0.567003 0.44308,-0.51784 1.00545,-0.587708 1.60276,-0.199107 l 0.15469,0.10078 -0.0656,-0.121291 c -0.26369,-0.487791 -0.27095,-0.906245 -0.0226,-1.303662 0.10705,-0.171289 0.37736,-0.416692 0.57831,-0.525026 0.2771,-0.149408 0.57672,-0.226426 0.88174,-0.226663 0.17838,-2.96e-4 0.51854,0.08003 0.68021,0.160467 l 0.1278,0.06346 -0.0812,-0.122772 c -0.32531,-0.491076 -0.43673,-1.065938 -0.28938,-1.492892 0.0958,-0.277505 0.16511,-0.377166 0.44229,-0.635631 0.22516,-0.210147 0.26931,-0.243435 0.43791,-0.331579 0.8672,-0.453383 1.84875,-0.49362 2.46747,-0.101147 0.15959,0.101312 0.34236,0.282776 0.43585,0.432925 z m -2.92304,-2.978084 c 0.0133,0.05403 0.0106,0.12376 -0.006,0.167706 -0.0155,0.04155 -0.33599,0.580874 -0.71134,1.198936 -0.37535,0.618058 -0.70821,1.166666 -0.7397,1.219139 l -0.0573,0.0953 0.0836,0.476742 c 0.0727,0.414394 0.0801,0.4992 0.0566,0.6483 -0.037,0.237406 -0.0399,0.516313 -0.006,0.684296 0.0155,0.07777 0.0255,0.144143 0.0219,0.147471 -0.003,0.0037 -0.0688,0.01006 -0.14507,0.01554 -0.0763,0.0055 -0.1432,0.01006 -0.14888,0.01115 -0.006,5.38e-4 -0.0681,-0.118039 -0.13886,-0.264483 l -0.12855,-0.266381 -0.12751,-0.772235 c -0.0961,-0.582248 -0.12191,-0.794299 -0.1048,-0.86197 0.0155,-0.0605 0.20534,-0.382091 0.58599,-0.991503 0.3098,-0.495973 0.67527,-1.082694 0.81217,-1.303819 l 0.2489,-0.402046 0.088,-0.03589 c 0.18226,-0.07439 0.36663,0.02775 0.41684,0.234103 z m 5.53313,5.936249 c 0.0328,0.08625 -0.0187,0.259068 -0.0997,0.334847 -0.0277,0.02594 -2.02674,1.062644 -2.77104,1.437104 -0.0189,0.0099 -0.40022,-0.06822 -0.84724,-0.172806 l -0.81276,-0.190213 -0.21407,-0.143193 -0.21405,-0.143191 0.0131,-0.136063 c 0.007,-0.0749 0.0211,-0.143814 0.0303,-0.152991 0.01,-0.01079 0.066,-0.0025 0.12592,0.01554 0.18376,0.05603 0.45774,0.08577 0.66469,0.07242 0.17143,-0.01134 0.25592,0.0016 0.64633,0.09696 0.24702,0.06031 0.45901,0.110782 0.47114,0.111879 0.0119,0.0011 0.60236,-0.298773 1.31165,-0.666706 1.25568,-0.651336 1.29217,-0.668732 1.38664,-0.66172 0.1365,0.0106 0.27054,0.09568 0.3093,0.197656 z m -2.3811,3.434818 c 0.026,0.08591 0.0287,0.144672 0.009,0.198849 -0.0526,0.147232 -0.0948,0.16107 -0.92078,0.302196 -0.41978,0.07162 -0.80365,0.132389 -0.85298,0.134765 -0.18069,0.0087 -0.17652,0.01408 -0.7941,-0.998843 l -0.55191,-0.905092 0.0852,-0.07978 c 0.0468,-0.04383 0.13641,-0.159717 0.19914,-0.257329 0.0626,-0.09767 0.11581,-0.179351 0.11806,-0.181453 0.0221,-0.0207 0.20464,0.251912 0.59356,0.886341 0.2544,0.414997 0.47,0.769253 0.47912,0.787252 0.0124,0.02461 0.16836,0.01627 0.63004,-0.03445 0.33741,-0.03691 0.64393,-0.07287 0.68115,-0.0798 0.0843,-0.01572 0.20616,0.01645 0.25237,0.06734 0.0192,0.02163 0.0516,0.09317 0.0718,0.160285 z m -6.68371,-7.172106 c 0.009,0.04122 0.0101,0.101037 0.004,0.132974 -0.006,0.03197 -0.0635,0.33569 -0.12528,0.675233 -0.0876,0.477302 -0.10639,0.621278 -0.0811,0.635726 0.0179,0.0097 0.35376,0.242682 0.74618,0.516487 0.64096,0.447205 0.81983,0.585159 0.81829,0.631146 -3.3e-4,0.0077 -0.0595,0.04325 -0.13151,0.07831 -0.0721,0.03504 -0.19539,0.111493 -0.27403,0.169881 -0.0786,0.0584 -0.14646,0.105827 -0.15072,0.105571 -0.0192,-0.0017 -1.70008,-1.195558 -1.73317,-1.230946 -0.0649,-0.06937 -0.0874,-0.185046 -0.0541,-0.277192 0.0166,-0.04768 0.10835,-0.413544 0.20265,-0.813293 0.15502,-0.657547 0.17741,-0.732551 0.23525,-0.786561 0.0917,-0.08553 0.19456,-0.09985 0.33135,-0.04578 0.13741,0.05433 0.19196,0.107947 0.21283,0.208559 z m 0.25774,3.594368 c -0.005,0.01718 -0.029,0.08508 -0.0541,0.15023 -0.025,0.06517 -0.0642,0.193846 -0.087,0.28614 -0.0294,0.118457 -0.0508,0.168363 -0.0738,0.169789 -0.0463,0.0028 -0.19049,-0.09409 -0.26259,-0.17639 -0.0823,-0.09374 -0.88674,-0.79952 -0.91329,-0.801076 -0.0119,-7.57e-4 -0.44301,0.162387 -0.95887,0.362289 -0.62865,0.243642 -0.9641,0.363231 -1.01731,0.362667 -0.23938,-0.0025 -0.37976,-0.317591 -0.22323,-0.500982 0.0556,-0.06519 0.16049,-0.11056 1.14004,-0.492488 0.59332,-0.231383 1.1032,-0.425169 1.13306,-0.430629 0.12275,-0.02252 0.1884,0.02228 0.70434,0.489562 0.26772,0.241944 0.51697,0.464485 0.55391,0.494519 0.0468,0.03811 0.0646,0.06428 0.0587,0.08654 z m 3.05753,3.389153 c 0.27865,0.355254 0.43236,0.565176 0.44779,0.611527 0.013,0.03894 0.0141,0.104967 0.002,0.146903 -0.0341,0.124016 -0.98994,2.147822 -1.03296,2.188051 -0.10632,0.09941 -0.33452,0.08587 -0.43914,-0.02591 -0.0605,-0.06464 -0.0915,-0.174142 -0.072,-0.254093 0.008,-0.03437 0.20594,-0.480944 0.43899,-0.992555 0.23309,-0.511623 0.4237,-0.933689 0.42356,-0.93795 -4.1e-4,-0.02313 -0.68038,-0.894087 -0.7869,-1.008351 -0.17692,-0.189625 -0.17562,-0.198676 0.0317,-0.233226 0.0939,-0.01554 0.24224,-0.04952 0.32963,-0.07509 0.141,-0.0413 0.16308,-0.04164 0.19596,-0.0034 0.0204,0.02373 0.22796,0.286596 0.46134,0.584102 z"
       id="path845"
       inkscape:connector-curvature="0" />
    <path
       style="fill:#00008a;fill-opacity:1;stroke:#0000c6;stroke-width:0.03472131;stroke-opacity:1"
       d="m 165.50068,101.50333 c 0.001,-0.0859 -0.1534,-0.2267 -0.38444,-0.34981 -0.12727,-0.0677 -0.2479,-0.14006 -0.26804,-0.16049 -0.0201,-0.0207 -0.0199,-0.49926 5.5e-4,-1.064061 0.0281,-0.776624 0.0515,-1.055266 0.0961,-1.143456 0.1148,-0.227306 -0.10441,-0.448521 -0.32194,-0.32486 -0.0687,0.03911 -0.22401,0.05215 -0.50588,0.04293 -0.22368,-0.0079 -0.42198,-0.01876 -0.44067,-0.02544 -0.0187,-0.0064 -0.0359,-0.113199 -0.0384,-0.237035 l -0.004,-0.225079 0.21671,-0.08665 c 0.2802,-0.112087 0.45709,-0.283205 0.49211,-0.476041 l 0.0257,-0.141499 0.0898,0.156761 c 0.11194,0.195254 0.28143,0.439061 0.3699,0.532053 0.0369,0.0388 0.0712,0.08252 0.0763,0.09698 0.0324,0.09413 0.38222,0.450302 0.5936,0.604488 0.33351,0.243363 0.74368,0.401524 0.87638,0.338136 0.26672,-0.127509 0.70384,-1.107939 0.69499,-1.55886 -0.006,-0.30575 -0.22711,-0.764731 -0.51314,-1.065202 l -0.20661,-0.21703 0.14387,-0.129893 c 0.33508,-0.302411 0.80414,-0.43887 1.12419,-0.327038 0.22922,0.07997 0.45204,0.282442 0.53859,0.489127 0.11439,0.273183 0.11008,0.403363 -0.0254,0.767238 -0.10302,0.277418 -0.11264,0.328055 -0.0759,0.404846 0.0676,0.141022 0.18283,0.198576 0.29212,0.14611 0.12876,-0.06169 0.25269,-0.416357 0.23113,-0.661088 -0.0248,-0.280661 -0.15313,-0.672243 -0.28541,-0.870564 -0.24692,-0.370187 -0.67135,-0.595026 -1.04609,-0.554117 -0.24567,0.0268 -0.72635,0.259116 -0.92613,0.44761 l -0.15627,0.147377 -0.41351,-0.145473 c -0.37671,-0.132437 -0.4321,-0.143725 -0.6235,-0.124011 -0.2281,0.02337 -0.51083,0.157716 -0.64501,0.30637 -0.0988,0.109542 -0.23474,0.472936 -0.23109,0.61787 0.004,0.138637 -0.0193,0.137524 -0.12594,-0.0064 -0.48233,-0.652751 -1.77849,-1.051826 -2.47244,-0.761212 l -0.1794,0.07505 -0.0493,-0.09205 c -0.14221,-0.265312 -0.44836,-0.415374 -0.75303,-0.369223 l -0.17753,0.02693 0.0197,-0.183651 c 0.0321,-0.299653 -0.0193,-0.549817 -0.18097,-0.880159 -0.29919,-0.611249 -0.81829,-1.040403 -1.58597,-1.311167 -0.61337,-0.216265 -1.21466,-0.240912 -1.63857,-0.067 -0.40403,0.16577 -0.96413,0.607603 -1.50038,1.183561 -0.32851,0.352825 -0.89262,1.055553 -0.8753,1.090379 0.0286,0.05746 1.17028,0.546108 1.75918,0.752951 1.15936,0.407175 1.89576,0.531503 2.62629,0.443075 0.29656,-0.03577 0.67992,-0.173217 0.87795,-0.314549 0.0673,-0.04801 0.0863,-0.04929 0.0863,-0.0064 -1e-5,0.03021 0.0525,0.162128 0.11671,0.292833 l 0.11678,0.237671 -0.19239,0.282965 c -0.10582,0.15565 -0.20243,0.287769 -0.21467,0.293635 -0.0371,0.0178 -0.16936,-0.313317 -0.14868,-0.372111 0.0288,-0.08188 -0.0534,-0.241391 -0.14008,-0.271901 -0.11149,-0.03911 -0.29117,0.03291 -0.32559,0.130847 -0.0282,0.08029 -0.33755,0.304239 -1.54006,1.115459 l -0.47294,0.31904 -0.16271,-0.03513 c -0.41079,-0.08871 -0.78698,-0.09158 -0.81705,-0.0064 -0.006,0.0159 0.22723,0.112404 0.5174,0.214474 0.46403,0.163202 0.52736,0.178639 0.52593,0.127668 -0.001,-0.03785 0.32176,-0.277848 0.93756,-0.696748 0.51655,-0.351395 0.96956,-0.66317 1.00669,-0.692853 0.129,-0.103025 0.2481,-0.0159 0.39712,0.291488 0.11202,0.230913 0.14571,0.274174 0.20353,0.261328 0.0611,-0.0143 0.20399,-0.205682 0.59971,-0.80645 0.0412,-0.06248 0.0739,-0.0752 0.1367,-0.0531 0.096,0.03371 0.32874,0.0079 0.46272,-0.0523 l 0.093,-0.0415 0.0595,0.131165 c 0.0814,0.179545 0.39536,0.492068 0.64664,0.643582 0.11438,0.06901 0.21296,0.135776 0.21904,0.148495 0.006,0.01272 -0.0739,0.158193 -0.17772,0.323334 -0.10382,0.165172 -0.18801,0.326815 -0.1871,0.359201 0.002,0.07886 0.0651,0.09683 0.49584,0.142453 0.35061,0.03704 0.37112,0.04293 0.46263,0.133709 0.0922,0.09141 0.096,0.122738 0.10162,0.8361 0.004,0.476782 -0.0114,0.790242 -0.0426,0.878892 l -0.0485,0.13784 0.51043,0.17953 c 0.39311,0.13832 0.511,0.16878 0.51244,0.13419 0.004,-0.0812 -0.23444,-0.29283 -0.43825,-0.38935 -0.10957,-0.0521 -0.21139,-0.1194 -0.22603,-0.14993 -0.0146,-0.0305 -0.0293,-0.385164 -0.0327,-0.78804 -0.004,-0.532942 0.009,-0.769262 0.049,-0.867374 0.10118,-0.247957 -0.086,-0.439045 -0.32931,-0.336115 -0.10595,0.04484 -0.64919,0.01272 -0.67443,-0.04006 -0.006,-0.01272 0.0518,-0.12401 0.12883,-0.247591 l 0.13988,-0.22454 0.3074,0.0868 c 0.16925,0.04721 0.40588,0.08824 0.52624,0.09015 0.12037,0.0013 0.21932,0.0064 0.21992,0.0095 5.4e-4,0.0031 0.002,0.13514 0.003,0.29117 8.7e-4,0.156127 0.0168,0.309199 0.0354,0.340267 0.0271,0.0453 0.13085,0.05962 0.52203,0.07218 0.44808,0.0143 0.49642,0.02242 0.58861,0.09778 0.0964,0.07886 0.0999,0.09809 0.0864,0.484229 -0.0486,1.390664 -0.0649,1.627714 -0.12035,1.747514 l -0.0576,0.12449 0.51948,0.18267 c 0.39898,0.14039 0.51976,0.17189 0.52022,0.13737 z"
       id="path858"
       inkscape:connector-curvature="0"
       sodipodi:nodetypes="cccscscsscccccccccsccccccccsccscccscsccccccscsccccccccccssscccsscccsccsccscccsccsscsccccscccccscscccsccscc"
       inkscape:transform-center-y="-11.320315"
       inkscape:transform-center-x="-4.3885364" />
    <g
       transform="matrix(-0.76953324,0,0,0.76953324,123.83793,62.774546)"
       id="layer1-1"
       inkscape:label="Layer 1"
       style="fill:#00008a;fill-opacity:1">
      <path
         inkscape:connector-curvature="0"
         id="path1019"
         d="m 90.141919,47.40448 c -1.604829,-0.959049 -0.830438,-3.379257 -0.674842,-4.956819 1.053461,-1.829212 -2.022055,-2.121822 -0.846671,-4.135868 0.722499,-1.560893 0.480324,-3.485117 -1.070523,-1.60052 -1.250255,-0.0692 -0.680852,-3.364902 -1.673986,-1.098621 -0.837946,0.6634 -1.833523,0.511974 -1.125778,1.847494 -0.162998,1.145754 0.633931,3.078651 0.984331,3.206511 -1.883411,0.872898 -1.498496,-2.829619 -1.582232,-4.065662 0.376194,-1.155876 -1.010626,-1.91354 -0.80001,-0.226074 -0.212818,1.969112 -0.345582,3.900606 -1.138436,5.718176 -0.462855,1.384171 -0.209685,3.602502 -1.965336,3.932659 -1.293237,-0.413783 -0.47147,-0.670787 0.454956,-0.896628 1.227002,-2.061926 1.423125,-4.530808 1.818203,-6.854227 0.06943,-1.201605 1.383047,-3.670207 -0.85354,-2.558283 -1.529638,-0.147054 -4.505679,-1.119709 -4.026056,1.531552 -0.372741,1.759823 -1.09373,3.13462 -1.285573,5.010847 -0.279294,1.152206 -2.433213,1.914499 -2.63408,0.882951 2.670923,0.389119 1.918386,-2.613434 2.535141,-4.204579 0.825186,-1.395019 0.654901,-4.436474 2.862405,-4.225246 1.366142,-0.185161 5.357662,0.652996 3.614201,-1.784699 -0.673448,-1.434202 -1.304071,-2.994884 -3.111559,-2.134003 -1.438144,0.577202 -3.837292,-0.873669 -4.558924,0.187265 -1.220594,-0.970949 0.717024,-2.358347 1.004533,-2.974638 -1.670871,-1.075453 -3.79333,-0.421685 -5.631817,-0.310495 -2.547164,-0.772743 -5.476683,-1.767515 -8.016427,-0.436765 -0.704561,0.863781 -1.645753,0.552116 -0.479649,-0.342805 1.708902,-1.170932 4.037373,-0.808536 5.955302,-0.422457 1.831229,0.985281 3.692856,0.335651 5.672171,0.447683 1.163561,-0.445812 2.186696,0.810523 3.165281,0.581737 1.92263,-0.534769 1.41809,-2.800699 1.177448,-4.274996 -0.183103,-1.848593 -1.57369,-3.097494 -2.394261,-4.667201 -0.437242,-1.338302 -2.00239,-2.608711 -1.988075,-3.889525 1.871084,1.86919 2.470395,4.71452 4.406893,6.5305 0.521773,1.681948 0.799487,3.504544 0.562499,5.264836 0.826253,0.0023 1.737815,-0.227243 2.511451,-0.08136 0.668578,0.777839 1.905112,1.379893 1.753785,2.552322 1.12604,0.07996 2.696123,-1.273122 2.63949,0.592725 1.243379,0.613883 2.427859,2.317037 3.012942,2.918225 0.02864,-1.427422 3.225363,-3.17759 2.078088,-0.680911 0.0096,0.70782 1.599236,0.497831 1.579207,1.565616 1.756867,-0.681683 3.090271,-2.536471 4.958028,-2.824827 1.482882,1.164457 2.270335,3.05214 3.366641,4.57925 1.38696,2.02314 2.44809,4.241728 3.49527,6.445213 1.035,1.341575 2.42376,0.103335 3.40133,0.103335 -0.81963,1.168805 -2.32531,1.457955 -3.52653,0.339859 -1.42674,-1.235856 -1.49861,-3.60629 -3.00872,-4.733036 0.0101,1.698571 -0.56846,-1.569613 -1.146801,-1.94101 -0.803395,-1.330049 -1.449032,-2.911749 -2.440234,-4.033001 -1.172003,0.06803 -3.920149,1.649171 -1.839141,2.446719 1.523528,0.955659 3.258231,2.137393 3.348277,4.234293 0.645721,1.396422 -0.759891,4.24907 -1.856549,3.92927 -0.900186,-1.731278 -2.295631,-3.191455 -3.047578,-4.983775 -0.485753,-0.723156 -1.555184,-1.557503 -2.193086,-1.871107 -2.786001,0.372472 -0.899953,3.41671 -1.368847,5.237155 -0.103498,1.97526 -0.975319,4.029167 -0.308985,5.969593 0.309661,0.565839 1.83058,0.903735 0.336271,1.241045 l -0.101044,-0.09094 z m -0.518675,-7.314113 c 0.126339,-1.059486 -0.230306,-2.3255 -0.206997,-3.487338 -0.101184,-0.853143 -0.53858,2.019096 -0.454535,2.604503 0.01216,0.363706 0.03675,1.666425 0.661532,0.882835 z m 0.9952,-5.411539 c 1.077489,-0.769353 -1.641714,-0.09211 -0.383908,0.17955 l 0.383983,-0.17955 z m -5.674577,-0.49091 c -0.933665,-0.432112 0.337292,0.507907 0,0 z m 5.13047,-2.43697 c -0.281767,-0.848397 -0.393752,0.869321 0,0 z"
         style="fill:#00008a;fill-opacity:1;stroke-width:0.12826161" />
    </g>
    <g
       transform="matrix(0.51369777,0,0,0.51369777,-19.21281,68.86162)"
       id="layer1-4"
       inkscape:label="Layer 1"
       style="fill:#00008a;fill-opacity:1">
      <path
         inkscape:connector-curvature="0"
         id="path1033"
         d="m 81.859136,52.370981 c -0.278279,-0.285146 -0.616036,-0.674 -0.750565,-0.86412 -0.134553,-0.19005 -0.201415,-0.252332 -0.148718,-0.138326 0.05277,0.113887 0.242279,0.405463 0.421172,0.647521 0.43006,0.58194 0.410687,0.64809 -0.110779,0.378414 -0.734142,-0.379624 -1.493948,-0.980878 -1.924886,-1.523124 -0.635866,-0.80013 -1.699211,-4.618037 -1.459901,-5.241689 0.04351,-0.113413 0.01898,-0.206421 -0.05481,-0.206421 -0.07369,0 -0.133889,-0.218996 -0.133889,-0.486868 0,-0.379198 -0.07301,-0.520181 -0.330403,-0.637414 -0.38274,-0.17439 -0.637416,-0.65834 -0.637416,-1.211215 0,-0.217098 -0.244656,-0.765373 -0.55732,-1.249131 -2.393508,-3.703237 -3.954617,-9.329535 -3.666441,-13.214016 0.182836,-2.464404 0.939796,-4.71762 2.09206,-6.227149 l 0.49468,-0.64809 -0.24166,-0.986689 c -0.341966,-1.396259 -1.556655,-4.792237 -1.711824,-4.785878 -0.04031,0.0017 -0.333047,0.546493 -0.650418,1.210741 -0.317368,0.664224 -0.76979,1.393933 -1.005376,1.621542 -0.23558,0.227537 -0.63482,0.849338 -0.887185,1.381643 -0.252379,0.532329 -0.682659,1.258811 -0.956202,1.614424 -0.273522,0.355659 -0.754205,1.164472 -1.068152,1.797401 -0.313964,0.632932 -0.741544,1.368525 -0.950184,1.634687 -0.208651,0.266143 -0.613945,1.106086 -0.900675,1.866521 -0.286728,0.760412 -0.733214,1.942539 -0.992203,2.626954 -0.258976,0.684366 -0.543544,1.555416 -0.63236,1.935634 -0.08886,0.380218 -0.317926,1.033502 -0.509129,1.451732 -0.23558,0.515316 -0.358479,1.050112 -0.381278,1.659125 -0.01851,0.494294 -0.111111,1.085346 -0.205709,1.313477 -0.0946,0.228012 -0.181816,0.850287 -0.193703,1.382592 -0.01186,0.532305 -0.105061,1.121482 -0.206896,1.309301 -0.188531,0.347451 -0.275246,1.588895 -0.264133,3.780965 0.005,0.972171 0.07251,1.368783 0.333488,1.959052 0.527999,1.193919 0.791726,2.37187 0.607926,2.715312 -0.126628,0.23679 -0.243899,0.276793 -0.627165,0.214487 -1.042978,-0.16917 -2.344711,-1.756095 -2.485006,-3.029261 -0.03576,-0.324484 -0.100505,-0.913661 -0.14383,-1.309253 -0.04332,-0.395593 -0.0085,-0.931029 0.07657,-1.189862 0.103708,-0.314305 0.111301,-0.586496 0.02254,-0.819657 -0.08532,-0.224453 -0.0838,-0.638955 0.0033,-1.160559 0.07521,-0.446344 0.164235,-1.24187 0.197713,-1.767914 0.03979,-0.62569 0.158849,-1.122428 0.344146,-1.436496 0.182362,-0.309062 0.255364,-0.608633 0.20495,-0.840964 -0.0833,-0.383871 0.266748,-1.931007 0.486719,-2.151379 0.07218,-0.07213 0.131184,-0.361023 0.131184,-0.641779 0,-0.280732 0.248872,-1.262916 0.553037,-2.182603 0.304181,-0.91969 0.553039,-1.73403 0.553039,-1.80967 0,-0.445086 2.261693,-4.931227 3.164865,-6.277637 0.350519,-0.522529 0.82751,-1.309635 1.059995,-1.749122 0.232472,-0.439463 0.79243,-1.247064 1.24433,-1.794672 0.451915,-0.547608 0.936726,-1.222628 1.077375,-1.500015 0.725915,-1.431849 2.403526,-3.476981 2.852135,-3.476981 0.135241,0 0.469114,-0.09325 0.742116,-0.20737 0.64688,-0.270268 0.65364,-0.269367 1.170864,0.159205 0.840137,0.696018 1.6146,2.24268 2.239519,4.472594 0.181128,0.646358 0.335312,1.188248 0.342597,1.204192 0.0066,0.01424 0.383871,-0.08636 0.836865,-0.2273 1.319371,-0.41054 2.463288,-0.47771 3.903275,-0.229198 1.617212,0.279095 3.261454,0.279712 4.975508,0.0017 1.713141,-0.277672 3.127581,-0.145681 4.475889,0.417634 0.184142,0.07687 0.281416,-0.0923 0.526444,-0.916627 0.714278,-2.402595 1.342438,-3.676947 2.231124,-4.526215 0.500191,-0.478018 0.714057,-0.514154 1.283876,-0.217098 0.21781,0.113651 0.527389,0.206659 0.687937,0.206659 0.456837,0 2.308017,2.224196 2.77622,3.335641 0.108098,0.256579 0.575634,0.902035 1.038982,1.434316 0.46333,0.532329 1.06168,1.397351 1.32964,1.922324 0.26796,0.524926 0.67227,1.18813 0.89848,1.47375 0.36502,0.460864 1.04883,1.679316 2.01253,3.586098 0.51166,1.01234 1.43687,3.166496 1.44011,3.352986 0.002,0.09491 0.21942,0.789667 0.48392,1.543791 0.26449,0.754147 0.4809,1.612099 0.4809,1.906592 0,0.294494 0.13322,0.796713 0.29619,1.116025 0.19593,0.384014 0.3084,0.891762 0.33224,1.49973 0.0238,0.607162 0.12174,1.050042 0.28865,1.304698 0.16813,0.256579 0.25781,0.666431 0.26817,1.225381 0.009,0.461932 0.0929,1.115384 0.18756,1.452111 0.0946,0.336727 0.13725,0.896697 0.0948,1.244338 -0.0976,0.798991 -0.0978,0.736163 0.002,1.838948 0.046,0.511687 0.0391,1.040527 -0.0152,1.175223 -0.0545,0.134766 -0.12259,0.517191 -0.15125,0.850026 -0.0659,0.764184 -0.57928,1.647404 -1.33216,2.291817 -0.65608,0.561583 -1.15022,0.738085 -1.47781,0.527844 -0.35269,-0.226351 -0.26543,-1.343064 0.18659,-2.387862 0.24768,-0.572497 0.42283,-1.276653 0.4825,-1.940047 0.0516,-0.572734 0.14215,-1.119868 0.20154,-1.215818 0.0595,-0.09633 0.0283,-0.270245 -0.0696,-0.388214 -0.10926,-0.131682 -0.18284,-0.646809 -0.19159,-1.341972 -0.009,-0.655493 -0.0917,-1.269773 -0.19926,-1.465944 -0.10639,-0.194083 -0.18253,-0.74423 -0.17909,-1.293452 0.003,-0.525637 -0.0815,-1.164949 -0.18829,-1.420673 -0.10691,-0.255725 -0.19427,-0.797449 -0.19427,-1.203861 0,-0.452963 -0.10573,-0.957721 -0.27319,-1.304342 -0.15024,-0.311007 -0.43237,-1.115953 -0.62691,-1.78879 -0.19454,-0.672835 -0.53365,-1.689967 -0.75357,-2.260282 -0.21995,-0.570338 -0.59589,-1.565811 -0.83545,-2.212167 -0.23957,-0.646382 -0.64332,-1.493015 -0.89724,-1.881442 -0.25391,-0.388427 -0.67825,-1.136288 -0.94296,-1.661949 -0.26471,-0.525638 -0.78323,-1.394384 -1.152283,-1.930535 -0.369035,-0.536149 -0.82653,-1.312573 -1.016636,-1.725415 -0.190097,-0.412841 -0.516802,-0.896198 -0.726013,-1.074124 -0.209197,-0.177948 -0.671565,-0.910125 -1.027499,-1.627094 -0.355933,-0.716992 -0.693417,-1.255798 -0.749958,-1.197383 -0.200536,0.207133 -0.985123,2.340741 -1.432467,3.895327 l -0.453768,1.576889 0.477157,0.625146 c 1.204689,1.578194 1.9162,3.641786 2.105514,6.106664 0.314991,4.100656 -1.03623,9.26865 -3.431782,13.125468 -0.411864,0.663133 -0.774711,1.436452 -0.841352,1.793157 -0.07016,0.375425 -0.23997,0.726648 -0.423027,0.874892 -0.204499,0.165611 -0.329054,0.453342 -0.375814,0.868343 -0.03844,0.341378 -0.108597,0.621185 -0.155646,0.621754 -0.04722,5.22e-4 -0.09595,0.296178 -0.108597,0.656845 -0.02866,0.824355 -0.50859,2.723735 -0.92752,3.670993 -0.409353,0.925619 -0.921787,1.476502 -1.944984,2.090876 -0.965865,0.579948 -1.382875,0.659977 -0.949239,0.18222 0.155313,-0.171068 0.388628,-0.497735 0.518555,-0.725842 0.234252,-0.411323 0.234109,-0.411916 -0.01685,-0.07023 -0.138777,0.189337 -0.46193,0.578263 -0.71792,0.86412 -0.428779,0.478801 -0.524052,0.519729 -1.20978,0.519729 -0.409387,0 -0.744344,-0.06098 -0.744344,-0.135478 0,-0.0745 0.244642,-0.260256 0.543663,-0.412818 0.299006,-0.152562 0.590928,-0.355993 0.648716,-0.452156 0.08432,-0.140224 0.0624,-0.140224 -0.111301,4.27e-4 -0.220989,0.178898 -0.666236,0.09989 -0.666236,-0.118158 0,-0.06644 0.15548,-0.159917 0.345646,-0.207608 0.41281,-0.103447 0.460446,-0.33331 0.06914,-0.33331 -0.333624,0 -0.348007,-0.106532 -0.05768,-0.427433 0.201415,-0.222555 0.193941,-0.255179 -0.09358,-0.409046 l -0.312376,-0.167034 0.396873,-0.207845 0.396876,-0.207844 -0.323945,-0.262321 c -0.314585,-0.254728 -0.316355,-0.26792 -0.06138,-0.456878 0.257084,-0.190524 0.256797,-0.199065 -0.01352,-0.407883 -0.238722,-0.184118 -0.248165,-0.232282 -0.06914,-0.351959 0.114148,-0.07616 0.268891,-0.160154 0.34403,-0.186491 0.08499,-0.02966 0.07099,-0.191947 -0.03711,-0.429284 -0.156477,-0.343489 -0.146037,-0.388759 0.105393,-0.454481 0.15344,-0.0401 0.27914,-0.154697 0.27914,-0.254966 0,-0.09989 0.121243,-0.220419 0.269463,-0.267469 0.154957,-0.04935 0.23852,-0.166085 0.196669,-0.275228 -0.04012,-0.104396 0.05633,-0.258808 0.214464,-0.343441 0.338751,-0.181271 0.368748,-0.359647 0.07908,-0.470782 -0.114504,-0.04389 -0.876595,-0.15185 -1.693682,-0.239567 -1.230268,-0.132156 -1.730699,-0.123615 -2.911561,0.05078 -0.78429,0.115786 -1.467742,0.252284 -1.518802,0.303344 -0.05108,0.05101 0.05514,0.204523 0.236055,0.34095 0.180892,0.136428 0.287943,0.314377 0.23788,0.395379 -0.05009,0.08091 0.03424,0.186965 0.187511,0.235604 0.153273,0.04864 0.278533,0.177475 0.278533,0.286475 0,0.108904 0.124446,0.198116 0.276511,0.198116 0.319796,0 0.333254,0.0503 0.11989,0.449191 -0.132204,0.247135 -0.105725,0.333903 0.16993,0.557194 0.322481,0.261134 0.323153,0.267042 0.05296,0.467151 -0.272513,0.201913 -0.272513,0.203574 0.0033,0.408452 0.273814,0.203811 0.27324,0.208319 -0.05768,0.458824 l -0.334214,0.253091 0.393184,0.205946 0.393165,0.205947 -0.312395,0.167034 c -0.287471,0.153748 -0.294926,0.186491 -0.09358,0.409022 0.290337,0.32083 0.275954,0.427457 -0.05768,0.427457 -0.39131,0 -0.343655,0.229673 0.06914,0.33331 0.190121,0.04769 0.345648,0.143546 0.345648,0.213065 0,0.185541 -0.5383,0.324697 -0.739015,0.190998 -0.09493,-0.06335 -0.05395,-0.0071 0.09106,0.1267 0.145016,0.133106 0.33467,0.243315 0.421309,0.245024 0.08667,0.0016 0.313051,0.124801 0.503159,0.273448 l 0.345646,0.270364 -0.880389,0.0024 c -0.836918,0.0024 -0.905379,-0.02373 -1.386365,-0.515411 z"
         style="fill:#00008a;fill-opacity:1;stroke-width:0.13826038" />
    </g>
    <path
       style="fill:#00008a;fill-opacity:1;stroke-width:0.02746972"
       d="m 83.757696,102.33202 c -1.16956,-0.6196 1.18416,-0.30876 1.465548,-0.92523 1.038724,-1.32793 0.911637,-3.174679 1.817241,-4.576627 0.786747,-1.080025 1.078474,-2.377335 1.652271,-3.548837 0.932784,-0.868052 2.308208,-1.055872 3.304332,-1.842734 0.0403,-0.754076 1.109574,-2.251104 -0.20573,-2.706483 -1.333381,-0.997687 -1.740721,-2.792454 -1.391181,-4.353338 -0.36713,-0.779894 -2.008031,-0.409895 -1.387014,-1.771187 -0.516707,-0.69876 -1.275051,-1.420888 -1.530061,-2.335038 -0.818114,-1.635542 -1.289371,-3.779213 -0.14386,-5.37969 0.612677,-0.966049 1.609191,-1.579814 2.359948,-2.394262 0.477897,-0.106257 0.627857,-0.609092 1.487061,-0.819694 0.996934,-0.558748 2.150378,-0.909414 3.304972,-0.841615 1.304021,0.09075 2.555825,0.517163 3.707799,1.141317 1.283831,0.541184 2.322428,1.558628 2.899628,2.831847 0.95871,1.42397 1.40643,3.218479 1.00102,4.909463 -0.19272,1.151154 -0.57917,2.39805 -1.49009,3.180481 -1.424394,0.774504 -2.946485,1.313231 -4.433956,1.948646 -0.567117,1.175056 -0.21789,2.569363 -0.899907,3.713537 -0.184507,1.119247 -2.216945,0.440581 -1.146911,1.734206 0.288107,1.273528 1.007254,1.958611 2.157408,2.587838 1.116951,0.57862 1.889008,1.532633 2.598135,2.541852 0.832804,1.036845 1.043364,1.684104 1.765361,2.782912 0.2619,1.095887 1.47453,0.944183 2.07194,1.284679 -0.26773,0.35084 -1.172,0.19768 -1.6044,-0.03641 0.34717,-0.135018 -0.77226,-0.772067 -0.84228,-1.390681 -0.21747,-0.232327 -0.771447,-1.691574 -0.818164,-0.665726 -0.1627,-1.21337 -1.368764,-2.107424 -1.939151,-3.127371 -0.932204,-0.354109 -1.930718,-1.100293 -2.648615,-1.903405 -0.601477,-0.640495 -0.580407,-0.540644 -0.180067,0.166973 0.217107,0.479389 1.553771,0.73867 1.144701,1.5235 0.677777,1.115522 0.794507,2.323604 0.899257,3.556239 0.338547,0.586281 -0.15582,1.140576 0.0202,2.139801 -0.0255,0.401377 0.0333,1.103647 0.0353,1.292247 -0.33195,0.91536 2.076568,0.96618 0.734214,1.2555 -0.875904,0.0569 -0.939084,-0.80456 -1.054264,-1.25612 0.0149,-0.70212 0.0184,-1.557677 0.0157,-2.322379 -0.831194,-0.24999 -1.984288,0.579974 -2.935092,0.115404 0.150187,-0.04934 -0.905457,-0.257999 -0.962714,-0.695286 0.665614,-0.11353 0.774614,-0.689903 -0.1132,-0.994503 -0.874037,-0.836636 -0.961644,-2.224319 -0.613037,-3.311767 0.15956,-0.553181 1.796868,-1.252596 0.544807,-1.106677 -0.808097,0.550116 -1.910331,0.97738 -2.859295,1.50057 -0.991644,0.147715 -1.281771,1.588447 -0.759114,1.757325 -1.103944,-0.859661 -0.24833,1.997926 -0.796277,1.886851 -0.13327,0.793324 -0.774214,0.496051 -0.927494,1.071967 -0.829264,-0.896273 -0.787287,1.529875 -1.185514,2.019405 -0.226107,0.44697 -0.537647,1.20827 -1.339305,1.26783 -0.51386,0.003 -0.64866,0.11102 -0.78023,0.0947 z m 0.22856,-0.16701 c 0.40111,-0.38435 -0.71993,0.0563 0,0 z m 1.07057,-0.17328 c -0.0702,-0.0985 -0.0702,0.0986 0,0 z m 16.377354,-2.532695 c 0.0521,-0.135188 -0.16236,-0.149597 0,0 z M 86.842345,98.558022 c -0.0332,-0.100431 -0.0678,0.09786 0,0 z m 0.32964,-0.256093 c 1.048174,-0.05996 0.951724,-3.209759 0.356507,-1.344451 0.0367,0.286986 -1.138044,1.588692 -0.356507,1.344451 z m 9.023519,-0.430292 c -0.20454,-0.636368 -0.18347,-0.184192 -0.4036,-0.144128 0.0636,0.115792 0.2951,0.159365 0.4036,0.144128 z m -0.14869,-0.208671 c 0.0397,-0.07313 0.0122,0.118441 0,0 z m -0.441677,0.180846 c -0.0702,-0.09855 -0.0702,0.09854 0,0 z m -0.16482,-0.0275 c -0.1056,-0.09848 -0.0704,0.101756 0,0 z m 0.2747,-0.137342 c -0.0332,-0.100439 -0.0678,0.09785 0,0 z m 0.412037,-0.219755 c -0.0702,-0.09855 -0.0702,0.09854 0,0 z m -0.576857,-3.32546 c -0.0849,-0.148497 -0.0488,0.186436 0,0 z m -0.21976,-0.177844 c -0.464007,-0.834434 -0.867984,-0.595317 0,0 z m -6.426774,-0.155339 c 0.21936,-0.368798 -0.381657,0.115372 0,0 z m 5.60269,-0.60741 c -0.20546,-0.725509 -1.366414,-0.347193 -0.432197,-0.114929 0.0829,-0.230801 0.346197,0.291264 0.432197,0.114929 z m -2.928025,-0.473361 c 0.781617,-0.217163 -0.213817,-0.585508 -0.254197,0.01848 l 0.14328,0.01872 z m 3.142822,-4.112706 c 0.36373,-0.94914 0.43596,-2.124465 0.823157,-2.926538 0.673697,-0.998531 -0.800347,-0.989605 -1.111204,-0.64775 0.23997,0.827248 0.25711,2.185497 -0.935044,2.110299 0.690354,0.190093 0.831824,1.549335 1.223091,1.463989 z m -2.722312,-0.817226 c 0.408577,-0.595414 0.716824,-0.744191 -0.26231,-0.688664 -1.432431,-0.64061 0.644277,-2.357957 -0.583967,-2.935481 -0.986164,-0.333337 -0.0332,0.843807 0.0559,0.406108 -0.736544,0.745013 -0.652677,1.861246 0.0442,2.583626 0.18736,0.06166 0.638187,1.122697 0.746137,0.634411 z m -0.775097,-3.873232 c -0.237967,-0.115171 0.0719,0.109351 0,0 z m -0.12362,-0.04219 c -0.507007,-0.422891 -0.769514,-0.166508 0,0 z m -0.809174,-0.285552 c -0.14174,-0.430341 -1.329464,-1.180888 -1.103044,-0.200718 0.359357,0.06904 0.734007,0.248249 1.103044,0.200718 z m -7.706401,4.944269 c 0.0482,-0.144479 0.0427,0.100947 0,0 z m 0,-16.481828 c 0.0482,-0.144485 0.0427,0.100941 0,0 z"
       id="path14476"
       inkscape:connector-curvature="0" />
    <text
       xml:space="preserve"
       style="font-style:normal;font-variant:normal;font-weight:normal;font-stretch:normal;font-size:4.93888855px;line-height:1.25;font-family:Chandas;-inkscape-font-specification:'Chandas, Normal';font-variant-ligatures:normal;font-variant-caps:normal;font-variant-numeric:normal;font-feature-settings:normal;text-align:start;letter-spacing:0px;word-spacing:0px;writing-mode:lr-tb;text-anchor:start;fill:#000000;fill-opacity:1;stroke:none;stroke-width:0.26458332"
       x="17.197041"
       y="106.67774"
       id="text14490"><tspan
         sodipodi:role="line"
         id="tspan14488"
         x="17.197041"
         y="106.67774"
         style="stroke-width:0.26458332">sense</tspan></text>
    <text
       xml:space="preserve"
       style="font-style:normal;font-variant:normal;font-weight:normal;font-stretch:normal;font-size:4.93888855px;line-height:1.25;font-family:Chandas;-inkscape-font-specification:'Chandas, Normal';font-variant-ligatures:normal;font-variant-caps:normal;font-variant-numeric:normal;font-feature-settings:normal;text-align:start;letter-spacing:0px;word-spacing:0px;writing-mode:lr-tb;text-anchor:start;fill:#000000;fill-opacity:1;stroke:none;stroke-width:0.26458332"
       x="46.609333"
       y="106.51006"
       id="text14494"><tspan
         sodipodi:role="line"
         id="tspan14492"
         x="46.609333"
         y="106.51006"
         style="stroke-width:0.26458332">move</tspan></text>
    <text
       xml:space="preserve"
       style="font-style:normal;font-variant:normal;font-weight:normal;font-stretch:normal;font-size:4.93888855px;line-height:1.25;font-family:Chandas;-inkscape-font-specification:'Chandas, Normal';font-variant-ligatures:normal;font-variant-caps:normal;font-variant-numeric:normal;font-feature-settings:normal;text-align:start;letter-spacing:0px;word-spacing:0px;writing-mode:lr-tb;text-anchor:start;fill:#000000;fill-opacity:1;stroke:none;stroke-width:0.26458332"
       x="85.172295"
       y="106.95734"
       id="text14494-9"><tspan
         sodipodi:role="line"
         id="tspan14492-6"
         x="85.172295"
         y="106.95734"
         style="stroke-width:0.26458332">action</tspan></text>
    <text
       xml:space="preserve"
       style="font-style:normal;font-variant:normal;font-weight:normal;font-stretch:normal;font-size:4.93888855px;line-height:1.25;font-family:Chandas;-inkscape-font-specification:'Chandas, Normal';font-variant-ligatures:normal;font-variant-caps:normal;font-variant-numeric:normal;font-feature-settings:normal;text-align:start;letter-spacing:0px;word-spacing:0px;writing-mode:lr-tb;text-anchor:start;fill:#000000;fill-opacity:1;stroke:none;stroke-width:0.26458332"
       x="155.65527"
       y="108.02197"
       id="text14516"><tspan
         sodipodi:role="line"
         id="tspan14514"
         x="155.65527"
         y="108.02197"
         style="stroke-width:0.26458332">network</tspan></text>
    <path
       style="fill:#00008a;fill-opacity:1;stroke-width:0.02513422"
       d="m 118.54548,96.911533 c -0.20342,-0.271742 0.26575,-0.890839 0.19427,-0.995066 0.0289,-0.452273 0.054,-0.2714 -0.28045,-0.575285 -0.39721,-0.550428 -0.22233,-1.574264 0.0862,-2.122559 0.12898,-0.325993 0.24077,-0.532567 0.40215,-0.720093 0.064,-0.153095 0.62376,-1.054939 0.88472,-0.877212 0.0385,-0.04456 0.60349,-0.370624 0.68002,-0.616492 0.65305,-0.636324 1.83993,-0.02777 2.10485,-0.990686 0.16679,-0.348248 -1.20281,-1.122245 -1.45099,-1.863582 -0.70956,-1.228539 -1.43375,-1.986719 -2.38201,-0.498012 -1.34973,1.150553 -2.68167,2.350245 -4.21931,3.240579 -1.25602,0.363753 -2.27131,1.409932 -3.33755,2.169674 -0.44215,0.651828 -1.58399,0.576659 -0.29755,0.0609 1.81277,-1.61489 3.87324,-2.862044 5.81857,-4.296917 1.09175,-0.789241 2.02166,-2.041242 3.34307,-2.358061 1.0523,0.109901 1.56432,1.556644 2.32869,2.240942 0.44509,1.345488 1.58113,-0.514006 1.52026,-0.481898 1.08543,0.640078 1.11765,2.377327 1.79879,3.437019 0.16103,1.368632 0.82501,-0.856116 1.27539,-1.062769 0.0663,-0.883016 -0.59286,-2.918659 0.0429,-3.034011 0.16516,0.411454 -0.22511,0.559155 0.0858,0.649108 -0.19762,0.03579 -0.0925,0.819932 0.16305,0.982409 -0.19827,-0.06418 -0.0756,1.122479 0.0864,0.848815 -0.11523,0.939606 0.60611,1.06433 1.16683,0.477119 0.86835,-0.597919 1.47957,-1.666449 2.66615,-1.650174 0.60345,0.307768 0.9869,-0.347052 1.04307,-0.699044 -0.28199,-1.397242 1.69433,-1.081778 2.51296,-1.188854 0.36287,0.381977 1.1529,0.778449 1.39905,0.658085 0.81947,-0.439101 0.62198,-0.371572 0.59808,-0.148601 0.45961,-0.141601 0.1886,-0.336868 0.58735,-0.500628 0.8128,-0.354814 1.15539,-0.977844 1.95251,-0.150434 0.94212,0.779405 2.20594,1.55897 3.11784,2.516205 -0.48336,-0.231964 -1.65001,-1.450517 -2.4945,-1.912984 -0.86084,-0.975111 -1.88545,-1.06267 -2.80535,-0.05764 -1.12697,0.298389 -0.24461,0.739303 -0.52654,0.723695 0.19373,0.850017 1.17929,0.682238 1.89187,1.150472 0.18673,0.135788 1.0838,0.788565 1.5583,1.116442 0.0836,0.370692 0.20199,0.0436 0.51815,0.420865 0.57172,0.274254 0.74796,0.113607 1.23632,0.329964 0.1897,0.11313 0.43824,-0.01118 0.72046,0.177003 0.35755,0.0109 0.70029,0.174085 0.98014,0.25594 0.51074,0.205911 0.73792,0.32193 1.15259,0.50758 0.15677,0.134688 0.89296,0.372979 1.00679,0.704145 0.69772,0.09859 0.90531,1.44278 0.11114,0.357555 -0.44447,-0.530602 -2.14792,-1.316588 -1.17873,-0.605147 0.21932,0.565841 -0.10521,1.192886 -0.0969,1.248767 0.37272,0.77535 -1.41685,1.550562 -0.14972,0.538097 0.4395,-0.384332 -0.0257,-0.374931 -0.32888,-0.578215 -0.26278,-0.419226 -0.70576,-0.323098 -1.0558,-0.738645 -0.62409,-0.510515 -0.28705,-1.260452 -0.15788,-1.387484 1.22224,0.381158 -0.35078,-0.15282 -0.36775,-0.193343 -0.57985,-0.128154 -1.34346,-0.239984 -2.18389,-0.474007 -0.72946,-0.245481 -1.98628,-2.003853 -2.29219,-1.465028 0.0941,0.733484 -0.73238,0.479602 -0.96287,0.699898 -0.81163,0.868325 -2.27523,0.815991 -3.38534,0.741103 -0.57085,-0.187584 -0.90294,-1.508964 -1.13347,-0.178054 -1.16847,0.207614 0.43488,0.233239 1.06877,0.297242 0.97105,0.153382 2.14287,0.531675 3.16629,-0.01188 1.66098,-0.887219 2.60002,-1.015779 0.79035,-0.04481 -0.79366,0.273847 -2.13288,0.75611 -2.68551,0.849757 -1.5444,-1.267706 -3.24295,0.242941 -3.46852,-0.08506 0.44303,0.836759 0.96698,1.743836 1.35725,2.661522 0.71422,0.02251 1.56979,2.385005 1.13048,1.821424 -0.19854,-0.674432 -1.08625,-0.2923 -1.27577,-0.33026 -0.37063,0.211512 -1.09818,0.141746 -1.35192,0.0714 -1.07808,-0.327009 0,0 -1.8509,-0.08468 -0.25025,0.107907 -0.6994,-0.05376 -1.16974,0.0275 -0.47218,-0.0025 -0.94424,0.35025 -1.35,-0.179756 -0.4103,0.07303 -0.75145,-0.275827 -1.12131,0.06849 -0.24861,0.164678 -1.24092,0.418255 -0.82758,0.07912 0.16461,-0.723475 -1.15005,-0.233356 -1.40104,-0.0034 -0.65411,0.376362 -0.74197,0.39773 -1.46607,0.569246 -1.04576,-0.211583 -1.8553,0.481528 -2.969,-0.32798 0.32903,0.248039 -0.40097,0.578944 -0.16708,0.740095 -0.096,-0.0315 -0.32445,0.108593 -0.35579,0.05057 z m 1.58346,-0.549726 c -0.0981,-0.08195 -0.10074,0.04462 0,0 z m 2.71449,-0.08918 c -0.0477,-0.126562 -0.0781,0.09115 0,0 z m 6.98002,-0.278271 c -0.0471,-0.194981 -0.0513,0.247414 0,0 z m 2.38248,0.02545 c -0.13224,-0.06625 -0.21394,0.0366 0,0 z m -2.48666,-0.0336 c 0.0195,-0.109361 -0.42591,0.06798 0,0 z m -4.62632,-0.01667 c -0.0304,-0.09189 -0.062,0.08954 0,0 z m 4.8886,0.01345 c -0.11724,-0.09469 -0.14606,-0.05467 0,0 z m -0.40214,-0.05953 c -0.0933,-0.07571 -0.0629,0.07802 0,0 z m 0.47074,0.0058 c -0.0995,-0.05282 -0.0235,0.05663 0,0 z m 2.05135,-0.0236 c -0.0805,-0.09898 0.0275,0.124618 0,0 z m 0.20389,0.01539 c 1.8e-4,-0.116506 -0.0676,0.08213 0,0 z m -2.58775,-0.02687 c -0.0642,-0.09017 -0.0642,0.09017 0,0 z m 0.94254,-0.04067 c -0.0925,-0.0916 -0.0301,0.163121 0,0 z m 1.55796,0.03026 c -0.10795,-0.05639 -0.0117,0.07975 0,0 z m 1.02405,-0.05504 c -0.0995,-0.05282 -0.0235,0.05663 0,0 z m 0.007,-0.423184 c -0.12247,-0.08854 -0.0388,0.06171 0,0 z m -9.44418,-0.140697 c 0.38638,-0.0802 1.60816,0.09071 0.40712,-0.324475 -0.71096,-0.202035 -3.02134,0.123576 -1.05433,0.198772 0.25903,-0.157547 0.42524,0.369448 0.64721,0.125703 z m -0.0566,-0.225221 c 0.0981,-0.09182 0.0981,0.09182 0,0 z m 4.21254,0.01245 c 0.55032,-0.187463 2.04067,-1.525848 1.96297,-0.910956 -1.41635,0.971325 0.86241,0.349072 1.34764,0.371723 1.60396,0.337441 0.8245,-0.695134 0.32815,-1.483954 -0.51297,1.047176 -1.47545,0.476891 -1.67029,-0.320974 -0.23576,-0.657855 0.24536,-2.48144 -0.32895,-0.815452 0.18595,1.288985 -1.73223,3.076364 -2.18427,1.161565 -0.59717,-0.189292 0.003,0.955185 -0.87004,1.306719 0.19076,0.576342 0.91285,0.885175 1.41479,0.691329 z m 1.8044,-2.688398 c 0.028,-0.172791 0.068,0.09975 0,0 z m -3.70459,2.600315 c 0.86897,-0.707055 -0.30796,-0.455033 -0.63337,-1.201745 -0.28824,-1.149781 -1.26474,0.301246 -1.92453,0.647657 -0.98473,0.433901 1.27616,0.300403 1.84541,0.46836 0.23062,-0.100645 0.5315,0.239295 0.71249,0.08573 z m -3.09151,-0.251113 c -0.0619,-0.07378 -0.13545,0.123316 0,0 z m 3.49675,-0.366121 c -0.0784,-0.341073 0.0296,0.405547 0,0 z m -7.99577,-0.18682 c -0.0642,-0.09017 -0.0642,0.09017 0,0 z m 26.07407,-0.735471 c 0.0187,-0.261917 -0.17353,0.236644 0,0 z m -19.7404,-0.252613 c -0.14346,0.03812 -0.0783,0.166173 0,0 z m 0.37701,0.05806 c -0.0304,-0.09189 -0.062,0.08953 0,0 z m 19.38464,-0.08797 c -0.22204,-0.272594 0.0345,0.266454 0,0 z m 0.0593,-0.05603 c -0.10853,-0.0062 0.0433,0.121016 0,0 z m -25.9511,-0.08966 c -0.12758,-0.05454 0.0257,0.134616 0,0 z m 26.94128,-0.319298 c -0.0642,-0.09017 -0.0642,0.09017 0,0 z m -15.43242,-0.101421 c -0.0746,-0.05403 -0.13298,0.177628 0,0 z m 0.0546,-0.290118 c 0.15146,-0.817477 -0.26068,0.825697 0,0 z m -5.18601,0.05342 c 0.0158,-1.065735 -0.67417,-2.127967 -0.9294,-3.178878 -0.53174,-1.386436 -1.45891,1.155417 -0.19146,1.392686 1.0244,-0.0011 0.60502,2.138394 1.12086,1.786192 z m 19.94803,0.08675 c -0.37583,-0.156948 0.20826,0.174572 0,0 z m -0.21364,-0.124162 c -0.0477,-0.126561 -0.0781,0.09115 0,0 z m -0.13602,-0.120742 c -0.11875,-0.0066 0.0783,0.183381 0,0 z m 0.26169,0.03277 c -0.0587,-0.08633 -0.0724,0.0479 0,0 z m -0.40215,-0.0365 c -0.1032,-0.139137 -0.10689,0.05574 0,0 z m 0.23733,-0.03833 c -0.18683,-0.105936 0.11256,0.118098 0,0 z m -0.37557,-0.03976 c -0.0304,-0.09189 -0.062,0.08953 0,0 z m -0.13474,-0.07622 c -0.2615,-0.186322 0.13714,0.183483 0,0 z m -0.17718,-0.07037 c -0.21426,-0.27213 -0.0156,0.1817 0,0 z m 0.14855,-0.07958 c -0.0642,-0.09017 -0.0642,0.09017 0,0 z m -1.33211,-0.04879 c -0.0477,-0.12656 -0.0781,0.09115 0,0 z m -23.09872,-0.108327 c -0.11886,-0.293637 -0.0454,0.1212 0,0 z m 11.61938,-0.0931 c -0.23531,-0.455066 -0.16211,0.240302 0,0 z m 0.48774,-0.0059 c -0.0484,0.0109 0.036,0.110173 0,0 z m 11.24964,-0.01519 c -0.0857,-0.06539 -0.0101,-0.01519 0,0 z m -0.10722,-0.08064 c -0.0304,-0.09189 -0.062,0.08954 0,0 z m -12.35931,-0.08579 c -0.26268,-0.129178 -0.0757,0.122571 0,0 z m 3.35498,0.02086 c -0.13133,-0.153337 -0.19646,0.01013 0,0 z m -0.30606,-0.04871 c -0.26677,-0.08485 0.16358,0.131755 0,0 z m 0.57625,0.01311 c -0.12778,-0.100117 0.0352,0.09135 0,0 z m -3.08419,-0.07145 c -0.19239,-0.578009 -0.14703,0.271796 0,0 z m 11.24025,0.02117 c -0.19879,-0.09327 -0.19879,0.09328 0,0 z m -0.55977,-0.115721 c -0.0995,-0.05282 -0.0235,0.05664 0,0 z m -0.2948,-0.08535 c -0.0642,-0.09017 -0.0642,0.09017 0,0 z m -11.43607,-0.07833 c -0.14293,-0.04124 -0.11542,0.110308 0,0 z m 0.86474,-0.02807 c -0.0219,-0.374842 -1.17942,-1.659046 -0.83938,-0.886119 0.37411,0.170659 0.52699,0.792592 0.83938,0.886119 z m -3.60437,-0.22034 c -0.0642,-0.09017 -0.0642,0.09017 0,0 z m 0.0103,-0.173684 c -0.0903,-0.277607 -0.12053,0.288138 0,0 z m 13.04247,0.0379 c -0.006,-0.182419 -0.18174,0.153926 0,0 z m -12.05611,-0.10191 c -0.11585,-0.144142 0.0187,0.174534 0,0 z m 0.0966,0.03662 c -0.0644,-0.09309 -0.0966,0.09011 0,0 z m -5.24049,-0.05175 c -0.0781,-0.09115 -0.0477,0.126561 0,0 z m 0.28108,-0.0039 c -0.0981,-0.04061 0.0848,0.115663 0,0 z m 4.78346,0.03058 c -0.0966,-0.09011 -0.0644,0.0931 0,0 z m 9.56278,0.0063 c -0.14177,-0.306867 -0.0733,0.110195 0,0 z m -14.79069,-0.03142 c -0.0996,-0.06983 -0.0883,0.02641 0,0 z m 0.31418,0 c -0.13737,-0.09201 -0.0935,0.09438 0,0 z m 3.94607,0.005 c -0.1326,-0.267009 -0.0855,0.09748 0,0 z m 8.94778,-0.05529 c -0.0642,-0.09017 -0.0642,0.09017 0,0 z m -9.07345,-0.0377 c -0.0511,-0.131446 -0.0511,0.131446 0,0 z m 0.17594,-0.01093 c -0.0756,-0.445004 -0.24355,0.09875 0,0 z m 12.63264,-0.03179 c -0.18629,-0.192327 -0.0109,0.16045 0,0 z m -17.14973,-0.03556 c 0.002,-0.640708 -0.37733,0.06407 0,0 z m 4.49196,-0.160491 c -0.0644,-0.0931 -0.0966,0.09011 0,0 z m -0.0503,-0.05375 c -0.16339,-0.174754 -0.0768,0.144706 0,0 z m 0.0754,-0.02166 c -0.062,-0.08953 -0.0304,0.09189 0,0 z m 9.48612,-0.01525 c 0.14488,-0.10774 -0.19553,0.01445 0,0 z m -13.89305,-0.272098 c -0.11245,-0.147075 -0.0158,0.223755 0,0 z m 14.91303,-0.176149 c -0.0587,-0.08633 -0.0724,0.0479 0,0 z m -15.2062,-0.03734 c 0.19459,-0.129272 -0.138,0.04515 0,0 z m 0.15081,-0.127514 c -0.0116,-0.263115 -0.17332,0.172399 0,0 z m 14.96742,-0.100537 c -0.0304,-0.09189 -0.062,0.08954 0,0 z m 0.89227,0.0027 c -0.0703,-0.117017 -0.0766,0.08455 0,0 z m -0.81424,-0.146687 c -0.10852,-0.0062 0.0433,0.121037 0,0 z m 0.50466,-0.06179 c -0.0484,0.0109 0.036,0.110172 0,0 z m -0.55652,-0.01875 c -0.18476,-0.109354 0.0531,0.123582 0,0 z m 0.30058,-0.0017 c -0.0642,-0.09017 -0.0642,0.09017 0,0 z m -7.71621,-0.02513 c -0.0304,-0.0919 -0.062,0.08954 0,0 z m 1.06581,-0.02662 c -0.15426,-0.05578 0.0468,0.126121 0,0 z m 0.0275,-0.04878 c -0.12173,-0.125696 -0.0252,0.09794 0,0 z m 6.66057,0 c -0.062,-0.08953 -0.0304,0.0919 0,0 z m -0.0754,-0.02513 c -0.0966,-0.09011 -0.0644,0.0931 0,0 z m -7.42454,-0.118864 c -0.10852,-0.0062 0.0433,0.121039 0,0 z m 0.7891,0.01833 c -0.062,-0.08953 -0.0304,0.09189 0,0 z m 5.00171,-0.364446 c -0.10823,-0.222123 -0.0514,0.205516 0,0 z m -4.09687,-0.263909 c -0.0642,-0.09017 -0.0642,0.09017 0,0 z m 4.18485,-0.226208 c -0.23926,-0.02972 0.13279,0.06451 0,0 z m -0.18851,-0.05027 c -0.062,-0.08953 -0.0304,0.09189 0,0 z m 0,-0.163372 c -0.0597,-0.131879 -0.0218,0.132762 0,0 z M 118.3694,87.574731 c -0.062,-0.08954 -0.0304,0.09189 0,0 z m 18.28341,-0.02795 c -0.16298,-0.08488 -0.14769,0.113545 0,0 z m -18.18287,-0.02232 c -0.062,-0.08953 -0.0304,0.0919 0,0 z m 18.81189,-0.375277 c 1.7e-4,-0.116504 -0.0676,0.08213 0,0 z m -2.75112,-0.08971 c 0.045,-0.130553 -0.13402,0.119738 0,0 z m 0.10053,0.01405 c -0.0477,-0.12656 -0.0781,0.09115 0,0 z m 2.99762,-0.04164 c 0.0143,-0.202263 -0.13095,0.08435 0,0 z m -2.90777,-0.03221 c -0.23808,-0.129272 -0.0662,0.03132 0,0 z m 3.11937,-0.233955 c -0.0484,0.0109 0.036,0.110173 0,0 z m -17.64254,-0.163418 c -0.19468,-0.03911 -0.0374,0.04043 0,0 z m 0.10682,-0.134963 c -0.0781,-0.09115 -0.0477,0.126561 0,0 z m -1.35097,10.162789 c -0.12722,-0.106555 0.21826,-0.02951 0,0 z m 13.18919,-0.384104 c 0.062,-0.08953 0.0304,0.09189 0,0 z m -8.26917,-0.414635 c 0.0582,-0.129145 0.1195,0.133789 0,0 z M 107.24423,94.10333 c 0.27785,-0.485402 1.50999,-0.255776 0.17619,-0.09498 -0.0146,0.05963 -0.13865,0.267047 -0.17619,0.09498 z m 37.42812,-0.107728 c -0.425,-0.594755 0.72871,0.225995 0,0 z m -0.76599,-0.03113 c 0.27699,-0.250722 0.44666,0.02281 0,0 z m -35.40375,-0.05853 c -1.14034,-0.01217 0.85782,-0.279563 0,0 z m 0.8832,-0.111135 c 0.21761,-0.471717 0.42549,0.109267 0,0 z m 35.33789,-0.135903 c 0.0156,-0.132453 0.0963,0.09152 0,0 z m -34.87481,-0.06457 c 0.16664,-0.14033 0.13458,0.136103 0,0 z m 8.8225,-0.735172 c 0.0997,-0.262854 0.063,0.103231 0,0 z m 25.47314,-1.125481 c -0.44938,-0.413824 -0.656,-0.193844 -1.19449,-0.631562 -0.0294,-0.580013 -0.63002,-1.594208 -1.05503,-1.567374 -1.50587,-0.803902 0.89036,0.128547 1.19214,0.655347 0.3368,0.09769 1.49817,1.488343 1.05738,1.543589 z m -0.18222,-0.23174 c 0.21827,-0.311419 -0.32342,0.187503 0,0 z m -0.20735,-0.293871 c -0.0587,-0.08633 -0.0724,0.0479 0,0 z m -0.96767,-1.019384 c -0.0304,-0.09189 -0.062,0.08953 0,0 z m -0.75536,-0.705905 c -0.11361,-0.04782 -0.008,0.123001 0,0 z m -0.48879,1.560468 c 0.062,-0.08954 0.0304,0.09189 0,0 z m -21.15313,-0.09003 c -0.0498,-0.399562 0.13695,0.296133 0,0 z m 15.34713,-0.03023 c 0.41631,-0.257975 0.19653,-0.01134 0,0 z m 4.39777,-0.577092 c -0.41372,-0.199168 -0.0891,-0.475525 0.27719,-0.283887 0.21494,0.06297 -0.10207,0.232613 -0.27719,0.283887 z m 0.0944,-0.097 c -0.0995,-0.05282 -0.0235,0.05664 0,0 z m 0.10105,-0.150285 c -0.12822,-0.01496 -0.0114,0.128706 0,0 z m -3.41196,0.205862 c 0.0981,-0.08195 0.10073,0.04462 0,0 z m 0.36864,-0.05715 c -0.0626,-0.300505 0.0906,0.05324 0,0 z m 5.71858,-0.160163 c -0.19522,-0.228133 0.21822,0.187111 0,0 z m -5.13212,-0.09956 c 0.0642,-0.09017 0.0642,0.09017 0,0 z m 5.00171,0 c -0.0861,-0.104323 0.15897,0.08787 0,0 z m -2.43802,-0.01077 c 0.20706,-0.140347 0.0182,-0.11192 -0.1584,-0.563185 -0.23105,-0.751623 1.4149,-0.206197 0.51491,-0.187189 0.23713,0.440636 0.24151,0.616784 -0.35651,0.750374 z m -13.06288,-0.06458 c -0.20484,-0.649817 0.19475,-0.17423 0,0 z m 12.8618,-5.2e-5 c 0.062,-0.08953 0.0304,0.0919 0,0 z m -12.94898,-0.496404 c -0.0226,-0.397751 0.12955,0.175696 0,0 z m -0.13378,-0.750736 c 0.26597,-0.121361 -0.14777,0.161809 0,0 z m -0.0622,-0.134909 c 0.15789,-0.187617 0.0774,0.07205 0,0 z"
       id="path15232"
       inkscape:connector-curvature="0"
       sodipodi:nodetypes="ccccccccccccccccccccccccccccccccccccccccccccccccccccccccccccccccccccccccccccccccccccccccccccccccccccccccccccccccccccccccccccccccccccccccccccccccccccccccccccccccccccccccccccccccccccccccccccccccccccccccccccccccccccccccccccccccccccccccccccccccccccccccccccccccccccccccccccccccccccccccccccccccccccccccccccccccccccccccccccccccccccccccccccccccccccccccccccccccccccccccccccccccccccccccccccccccccccccccc" />
    <text
       xml:space="preserve"
       style="font-style:normal;font-variant:normal;font-weight:normal;font-stretch:normal;font-size:4.93888855px;line-height:1.25;font-family:Chandas;-inkscape-font-specification:'Chandas, Normal';font-variant-ligatures:normal;font-variant-caps:normal;font-variant-numeric:normal;font-feature-settings:normal;text-align:start;letter-spacing:0px;word-spacing:0px;writing-mode:lr-tb;text-anchor:start;fill:#000000;fill-opacity:1;stroke:none;stroke-width:0.26458332"
       x="117.86166"
       y="106.81676"
       id="text15237"><tspan
         sodipodi:role="line"
         id="tspan15235"
         x="117.86166"
         y="106.81676"
         style="stroke-width:0.26458332">reward</tspan></text>
  </g>
</svg>
