<?xml version="1.0" encoding="UTF-8" standalone="no"?>
<!-- Created with Inkscape (http://www.inkscape.org/) -->

<svg
   xmlns:dc="http://purl.org/dc/elements/1.1/"
   xmlns:cc="http://creativecommons.org/ns#"
   xmlns:rdf="http://www.w3.org/1999/02/22-rdf-syntax-ns#"
   xmlns:svg="http://www.w3.org/2000/svg"
   xmlns="http://www.w3.org/2000/svg"
   xmlns:sodipodi="http://sodipodi.sourceforge.net/DTD/sodipodi-0.dtd"
   xmlns:inkscape="http://www.inkscape.org/namespaces/inkscape"
   width="35.082981mm"
   height="54.887623mm"
   viewBox="0 0 35.082981 54.887623"
   version="1.1"
   id="svg8"
   inkscape:version="0.92.3 (2405546, 2018-03-11)"
   sodipodi:docname="antani_action.svg">
  <defs
     id="defs2" />
  <sodipodi:namedview
     id="base"
     pagecolor="#ffffff"
     bordercolor="#666666"
     borderopacity="1.0"
     inkscape:pageopacity="0.0"
     inkscape:pageshadow="2"
     inkscape:zoom="1.4"
     inkscape:cx="-25.36836"
     inkscape:cy="218.94578"
     inkscape:document-units="mm"
     inkscape:current-layer="layer1"
     showgrid="false"
     fit-margin-top="0"
     fit-margin-left="0"
     fit-margin-right="0"
     fit-margin-bottom="0"
     inkscape:window-width="1158"
     inkscape:window-height="1023"
     inkscape:window-x="67"
     inkscape:window-y="27"
     inkscape:window-maximized="0" />
  <metadata
     id="metadata5">
    <rdf:RDF>
      <cc:Work
         rdf:about="">
        <dc:format>image/svg+xml</dc:format>
        <dc:type
           rdf:resource="http://purl.org/dc/dcmitype/StillImage" />
        <dc:title></dc:title>
      </cc:Work>
    </rdf:RDF>
  </metadata>
  <g
     inkscape:label="Layer 1"
     inkscape:groupmode="layer"
     id="layer1"
     transform="translate(-73.215729,-4.7086074)">
    <path
       style="fill:#000000;stroke-width:0.04785771"
       d="m 75.259589,59.593264 c -2.0376,-1.079471 2.06303,-0.537922 2.55327,-1.61195 1.80969,-2.313512 1.58826,-5.530922 3.16603,-7.973391 1.37067,-1.881621 1.87892,-4.14179 2.87858,-6.182781 1.62512,-1.512318 4.02139,-1.839539 5.75685,-3.210409 0.0702,-1.313751 1.9331,-3.921871 -0.35843,-4.715229 -2.32303,-1.738173 -3.0327,-4.865011 -2.42373,-7.584382 -0.63961,-1.358729 -3.4984,-0.714119 -2.41646,-3.08576 -0.90021,-1.217379 -2.22141,-2.47547 -2.66569,-4.0681 -1.42532,-2.84944 -2.24636,-6.58414 -0.25062,-9.372489 1.0674,-1.68305 2.80353,-2.7523513 4.1115,-4.1712813 0.8326,-0.18512 1.09387,-1.06116 2.59079,-1.42807 1.73686,-0.97345 3.7464,-1.58438 5.75794,-1.46626 2.27187,0.15811 4.45278,0.901 6.459751,1.9884 2.23671,0.94285 4.04615,2.71544 5.05176,4.9336403 1.67025,2.48084 2.45028,5.60723 1.74398,8.553261 -0.33575,2.00554 -1.00903,4.17788 -2.59603,5.54103 -2.48159,1.34934 -5.133401,2.28791 -7.724891,3.394929 -0.98804,2.04718 -0.3796,4.476341 -1.56781,6.469719 -0.32146,1.94995 -3.86239,0.76758 -1.99817,3.02133 0.50194,2.218741 1.75484,3.412292 3.75866,4.508532 1.94596,1.008071 3.291051,2.670149 4.526491,4.428411 1.45092,1.80639 1.81775,2.934038 3.07562,4.848389 0.4563,1.909249 2.56893,1.644949 3.60973,2.238161 -0.46643,0.61124 -2.04184,0.3444 -2.79517,-0.0634 0.60483,-0.23523 -1.34545,-1.345091 -1.46743,-2.422842 -0.37886,-0.40476 -1.34402,-2.947059 -1.42541,-1.159828 -0.28346,-2.113931 -2.38468,-3.671551 -3.378401,-5.448501 -1.6241,-0.616929 -3.36372,-1.91693 -4.61445,-3.31611 -1.04789,-1.11587 -1.01118,-0.941909 -0.31371,0.290899 0.37825,0.835191 2.707,1.286912 1.99431,2.654241 1.18084,1.94346 1.3842,4.048181 1.56669,6.195679 0.58982,1.021411 -0.27146,1.987111 0.0352,3.72794 -0.0444,0.699291 0.058,1.922801 0.0616,2.251371 -0.57832,1.594739 3.617811,1.68329 1.27916,2.187329 -1.526,0.0991 -1.63607,-1.401709 -1.83675,-2.188419 0.026,-1.223219 0.0321,-2.713781 0.0274,-4.04604 -1.44811,-0.435541 -3.45705,1.010431 -5.11354,0.20106 0.26167,-0.086 -1.57749,-0.44949 -1.67725,-1.211329 1.15963,-0.1978 1.34954,-1.201952 -0.19721,-1.732621 -1.52276,-1.45759 -1.67539,-3.87521 -1.06805,-5.769761 0.278,-0.96375 3.13053,-2.18227 0.94918,-1.928048 -1.40788,0.958408 -3.3282,1.70279 -4.98149,2.61429 -1.72766,0.257349 -2.23311,2.767388 -1.32254,3.06161 -1.9233,-1.497701 -0.43264,3.480779 -1.38728,3.287268 -0.23218,1.38213 -1.34885,0.864222 -1.6159,1.86758 -1.44474,-1.561489 -1.3716,2.665341 -2.06539,3.518212 -0.39394,0.778698 -0.93671,2.105028 -2.33336,2.208808 -0.89524,0.005 -1.13008,0.193421 -1.35932,0.164952 z m 0.3982,-0.29097 c 0.69882,-0.66961 -1.25425,0.0981 0,0 z m 1.86513,-0.301882 c -0.12227,-0.171688 -0.12227,0.17168 0,0 z m 28.532771,-4.41248 c 0.0907,-0.235519 -0.28287,-0.26062 0,0 z M 80.633679,53.018194 c -0.0579,-0.174972 -0.11803,0.170489 0,0 z m 0.57429,-0.44617 c 1.82615,-0.104471 1.65812,-5.592032 0.62111,-2.34229 0.064,0.499978 -1.98269,2.767809 -0.62111,2.34229 z m 15.72087,-0.749652 c -0.35636,-1.108678 -0.31964,-0.320889 -0.70316,-0.2511 0.11079,0.201732 0.51412,0.277651 0.70316,0.2511 z m -0.25905,-0.36354 c 0.0691,-0.12746 0.0213,0.206341 0,0 z m -0.7695,0.315061 c -0.12227,-0.171681 -0.12228,0.17169 0,0 z m -0.28715,-0.0479 c -0.18398,-0.171569 -0.12266,0.177271 0,0 z m 0.47858,-0.239278 c -0.0579,-0.174982 -0.11804,0.170479 0,0 z m 0.71786,-0.38286 c -0.12227,-0.171691 -0.12227,0.17168 0,0 z m -1.00501,-5.793611 c -0.14795,-0.258709 -0.085,0.324811 0,0 z m -0.38286,-0.30984 c -0.80839,-1.45375 -1.51221,-1.037161 0,0 z m -11.19677,-0.270629 c 0.38215,-0.642522 -0.66494,0.200999 0,0 z m 9.76104,-1.05823 c -0.35795,-1.263981 -2.38058,-0.60488 -0.75298,-0.200231 0.14445,-0.402101 0.60314,0.507439 0.75298,0.200231 z m -5.10122,-0.82469 c 1.36174,-0.378341 -0.37252,-1.020072 -0.44288,0.0322 l 0.24964,0.0326 z m 5.47545,-7.165153 c 0.63368,-1.653587 0.75952,-3.701237 1.4341,-5.098608 1.17372,-1.73964 -1.39437,-1.72409 -1.93596,-1.12851 0.41808,1.44123 0.44795,3.80757 -1.62903,3.676559 1.20275,0.331181 1.44921,2.69925 2.13089,2.550559 z m -4.74285,-1.423769 c 0.71184,-1.03733 1.24887,-1.296529 -0.457,-1.19979 -2.49559,-1.11607 1.12246,-4.10803 -1.01739,-5.11419 -1.7181,-0.580741 -0.0577,1.47008 0.0975,0.70752 -1.28322,1.29796 -1.13709,3.24266 0.0769,4.50119 0.32643,0.107421 1.11186,1.955959 1.29993,1.10527 z m -1.35038,-6.747941 c -0.41458,-0.200649 0.12521,0.190511 0,0 z m -0.21536,-0.0735 c -0.88332,-0.736761 -1.34066,-0.29009 0,0 z m -1.40976,-0.49749 c -0.24693,-0.74974 -2.3162,-2.05734 -1.92173,-0.34969 0.62607,0.120289 1.27879,0.4325 1.92173,0.34969 z m -13.42613,8.613899 c 0.0839,-0.251709 0.0744,0.175871 0,0 z m 0,-28.7146203 c 0.0839,-0.25172 0.0744,0.17586 0,0 z"
       id="path14476"
       inkscape:connector-curvature="0" />
  </g>
</svg>
