<?xml version="1.0" encoding="UTF-8" standalone="no"?>
<!-- Created with Inkscape (http://www.inkscape.org/) -->

<svg
   xmlns:dc="http://purl.org/dc/elements/1.1/"
   xmlns:cc="http://creativecommons.org/ns#"
   xmlns:rdf="http://www.w3.org/1999/02/22-rdf-syntax-ns#"
   xmlns:svg="http://www.w3.org/2000/svg"
   xmlns="http://www.w3.org/2000/svg"
   xmlns:sodipodi="http://sodipodi.sourceforge.net/DTD/sodipodi-0.dtd"
   xmlns:inkscape="http://www.inkscape.org/namespaces/inkscape"
   width="198.57945mm"
   height="169.71434mm"
   viewBox="0 0 198.57945 169.71434"
   version="1.1"
   id="svg8"
   inkscape:version="0.92.4 (5da689c313, 2019-01-14)"
   sodipodi:docname="reinforce_move.svg">
  <defs
     id="defs2">
    <marker
       inkscape:stockid="Arrow1Lend"
       orient="auto"
       refY="0"
       refX="0"
       id="Arrow1Lend"
       style="overflow:visible"
       inkscape:isstock="true">
      <path
         id="path847"
         d="M 0,0 5,-5 -12.5,0 5,5 Z"
         style="fill:#006900;fill-opacity:1;fill-rule:evenodd;stroke:#006900;stroke-width:1.00000003pt;stroke-opacity:1"
         transform="matrix(-0.8,0,0,-0.8,-10,0)"
         inkscape:connector-curvature="0" />
    </marker>
  </defs>
  <sodipodi:namedview
     id="base"
     pagecolor="#ffffff"
     bordercolor="#666666"
     borderopacity="1.0"
     inkscape:pageopacity="0.0"
     inkscape:pageshadow="2"
     inkscape:zoom="0.98994949"
     inkscape:cx="217.71745"
     inkscape:cy="334.55975"
     inkscape:document-units="mm"
     inkscape:current-layer="layer1"
     showgrid="false"
     inkscape:window-width="1850"
     inkscape:window-height="1016"
     inkscape:window-x="70"
     inkscape:window-y="27"
     inkscape:window-maximized="1">
    <inkscape:grid
       type="xygrid"
       id="grid1478" />
  </sodipodi:namedview>
  <metadata
     id="metadata5">
    <rdf:RDF>
      <cc:Work
         rdf:about="">
        <dc:format>image/svg+xml</dc:format>
        <dc:type
           rdf:resource="http://purl.org/dc/dcmitype/StillImage" />
        <dc:title></dc:title>
      </cc:Work>
    </rdf:RDF>
  </metadata>
  <g
     inkscape:label="Layer 1"
     inkscape:groupmode="layer"
     id="layer1"
     transform="translate(22.85064,8.6218008)">
    <g
       id="g1476"
       transform="matrix(0.80519369,0,0,0.80519369,7.4661384,13.817823)">
      <rect
         y="35.604351"
         x="57.690117"
         height="26.915007"
         width="6.2918191"
         id="rect834"
         style="opacity:1;fill:none;fill-opacity:1;stroke:#006900;stroke-width:0.52378958;stroke-miterlimit:4;stroke-dasharray:none;stroke-dashoffset:0;stroke-opacity:1" />
      <rect
         y="42.245716"
         x="57.340572"
         height="20.536255"
         width="6.9117041"
         id="rect836"
         style="opacity:1;fill:#006900;fill-opacity:1;stroke:none;stroke-width:0.4970167;stroke-miterlimit:4;stroke-dasharray:none;stroke-dashoffset:0;stroke-opacity:0.90269608" />
    </g>
    <text
       xml:space="preserve"
       style="font-style:normal;font-variant:normal;font-weight:normal;font-stretch:normal;font-size:2.99894786px;line-height:1.25;font-family:Chandas;-inkscape-font-specification:'Chandas, Normal';font-variant-ligatures:normal;font-variant-caps:normal;font-variant-numeric:normal;font-feature-settings:normal;text-align:start;letter-spacing:0px;word-spacing:0px;writing-mode:lr-tb;text-anchor:start;fill:#000000;fill-opacity:1;stroke:none;stroke-width:0.17301621"
       x="44.127647"
       y="39.818306"
       id="text840"><tspan
         sodipodi:role="line"
         id="tspan838"
         x="44.127647"
         y="39.818306"
         style="font-size:4.61376572px;stroke-width:0.17301621">completion</tspan></text>
    <path
       style="fill:none;stroke:#006900;stroke-width:0.63103235;stroke-linecap:butt;stroke-linejoin:miter;stroke-miterlimit:4;stroke-dasharray:none;stroke-opacity:1;marker-end:url(#Arrow1Lend)"
       d="M 39.875649,37.046263 59.974518,10.830348"
       id="path842"
       inkscape:connector-curvature="0" />
    <text
       xml:space="preserve"
       style="font-style:normal;font-variant:normal;font-weight:normal;font-stretch:normal;font-size:2.99894786px;line-height:1.25;font-family:Chandas;-inkscape-font-specification:'Chandas, Normal';font-variant-ligatures:normal;font-variant-caps:normal;font-variant-numeric:normal;font-feature-settings:normal;text-align:start;letter-spacing:0px;word-spacing:0px;writing-mode:lr-tb;text-anchor:start;fill:#000000;fill-opacity:1;stroke:none;stroke-width:0.17301621"
       x="44.863941"
       y="8.8940191"
       id="text840-3"><tspan
         sodipodi:role="line"
         id="tspan838-6"
         x="44.863941"
         y="8.8940191"
         style="font-size:4.61376572px;stroke-width:0.17301621">step</tspan></text>
    <circle
       style="opacity:1;fill:#006900;fill-opacity:1;stroke:none;stroke-width:0.17328867;stroke-miterlimit:4;stroke-dasharray:none;stroke-dashoffset:0;stroke-opacity:0.90269608"
       id="path1144"
       cx="78.298485"
       cy="24.185284"
       r="5.6364217" />
    <circle
       style="opacity:1;fill:none;fill-opacity:1;stroke:#006900;stroke-width:0.17328867;stroke-miterlimit:4;stroke-dasharray:none;stroke-dashoffset:0;stroke-opacity:1"
       id="path1146"
       cx="78.28196"
       cy="23.946667"
       r="8.432786" />
    <text
       xml:space="preserve"
       style="font-style:normal;font-variant:normal;font-weight:normal;font-stretch:normal;font-size:2.99894786px;line-height:1.25;font-family:Chandas;-inkscape-font-specification:'Chandas, Normal';font-variant-ligatures:normal;font-variant-caps:normal;font-variant-numeric:normal;font-feature-settings:normal;text-align:start;letter-spacing:0px;word-spacing:0px;writing-mode:lr-tb;text-anchor:start;fill:#000000;fill-opacity:1;stroke:none;stroke-width:0.17301621"
       x="69.497917"
       y="12.879653"
       id="text840-3-7"><tspan
         sodipodi:role="line"
         id="tspan838-6-5"
         x="69.497917"
         y="12.879653"
         style="font-size:4.61376572px;stroke-width:0.17301621">density</tspan></text>
    <text
       xml:space="preserve"
       style="font-style:normal;font-variant:normal;font-weight:normal;font-stretch:normal;font-size:2.99894786px;line-height:1.25;font-family:Chandas;-inkscape-font-specification:'Chandas, Normal';font-variant-ligatures:normal;font-variant-caps:normal;font-variant-numeric:normal;font-feature-settings:normal;text-align:start;letter-spacing:0px;word-spacing:0px;writing-mode:lr-tb;text-anchor:start;fill:#000000;fill-opacity:1;stroke:none;stroke-width:0.17301621"
       x="82.096153"
       y="45.249443"
       id="text840-3-7-3"><tspan
         sodipodi:role="line"
         id="tspan838-6-5-5"
         x="82.096153"
         y="45.249443"
         style="font-size:4.61376572px;stroke-width:0.17301621">acceptance rate</tspan></text>
    <path
       style="fill:none;stroke:#006900;stroke-width:0.69642437;stroke-linecap:butt;stroke-linejoin:miter;stroke-miterlimit:4;stroke-dasharray:none;stroke-opacity:1"
       d="m 85.65564,48.744426 c 0,0 12.671022,14.593526 29.97352,14.943072"
       id="path1186"
       inkscape:connector-curvature="0" />
    <path
       style="fill:#006900;fill-opacity:1;stroke-width:0.19739501"
       d="m 59.995593,77.124079 c 0,-1.105294 -0.07553,-0.961255 0.603978,-1.688015 0.998381,-1.067798 1.293219,-1.110722 7.630162,-1.110722 h 8.00082 v -1.677846 -1.67786 H 54.657287 c -16.56116,0 -19.567442,-0.04316 -20.532392,-0.294453 -3.53141,-0.91981 -6.126768,-3.737366 -6.66739,-7.238204 C 27.336236,62.651697 27.284934,51.818122 27.31978,34.352857 L 27.375324,6.520158 C 28.506219,3.6049 30.960279,0.88925668 33.442706,-0.02652702 34.438146,-0.37354017 36.295762,-0.388667 77.908459,-0.388667 h 43.426891 l 1.13365,0.45780549 c 3.05737,1.63697971 4.62821,3.64678841 5.77517,6.45101951 l 0.0555,27.832699 c 0.0348,17.465265 -0.0166,28.29884 -0.13772,29.084122 -0.54065,3.500838 -3.13598,6.318394 -6.66739,7.238204 -0.96494,0.251341 -3.97124,0.294453 -20.53241,0.294453 H 79.854157 v 1.67786 1.677846 l 7.479866,2.95e-4 c 6.487555,2.94e-4 6.591424,0.01981 7.733717,1.449131 0.541497,0.677579 0.606216,0.158131 0.606216,1.344832 -9.812737,-0.08407 -19.320753,-0.122329 -35.67836,0.0046 z M 125.4383,67.786264 125.18678,34.847946 c 0.042,-19.286812 -0.27571,-30.7050622 -0.43296,-31.2469766 -0.41266,-1.4221014 -0.89806,-1.5926639 -46.94409,-1.5926639 -46.046045,0 -47.447853,0.9413093 -47.860513,2.3634166 -0.157247,0.5418996 -0.489209,10.8725879 -0.447118,30.1411849 0.06329,28.948078 -0.483007,32.147131 0.554628,32.5694 0.220894,0.08994 24.549133,0.259076 47.994273,0.710137 23.44512,0.451048 34.50309,-0.05146 47.85259,-0.0059 z"
       id="path1224"
       inkscape:connector-curvature="0"
       sodipodi:nodetypes="ccscccsccsccscccsccsccccccccccscsczcc" />
    <text
       xml:space="preserve"
       style="font-style:normal;font-variant:normal;font-weight:normal;font-stretch:normal;font-size:2.99894786px;line-height:1.25;font-family:Chandas;-inkscape-font-specification:'Chandas, Normal';font-variant-ligatures:normal;font-variant-caps:normal;font-variant-numeric:normal;font-feature-settings:normal;text-align:start;letter-spacing:0px;word-spacing:0px;writing-mode:lr-tb;text-anchor:start;fill:#000000;fill-opacity:1;stroke:none;stroke-width:0.17301621"
       x="99.810677"
       y="10.904151"
       id="text840-3-7-6"><tspan
         sodipodi:role="line"
         id="tspan838-6-5-2"
         x="99.810677"
         y="10.904151"
         style="font-size:4.61376572px;stroke-width:0.17301621">score</tspan></text>
    <circle
       style="opacity:1;fill:none;fill-opacity:1;stroke:#b42f00;stroke-width:0.63103235;stroke-miterlimit:4;stroke-dasharray:none;stroke-dashoffset:0;stroke-opacity:1"
       id="path1324"
       cx="106.80984"
       cy="22.669962"
       r="9.515892" />
    <path
       style="opacity:1;fill:#b42f00;fill-opacity:0.87843137;stroke:#b42f00;stroke-width:0.63103235;stroke-miterlimit:4;stroke-dasharray:none;stroke-dashoffset:0;stroke-opacity:1"
       d="m 106.93326,13.401161 a 9.5158918,9.5158918 0 0 0 -6.40363,2.491163 l 6.03293,7.272088 7.15922,-6.912202 a 9.5158918,9.5158918 0 0 0 -6.78852,-2.851049 z"
       id="path1324-2"
       inkscape:connector-curvature="0" />
    <text
       xml:space="preserve"
       style="font-style:normal;font-variant:normal;font-weight:normal;font-stretch:normal;font-size:2.99894786px;line-height:1.25;font-family:Chandas;-inkscape-font-specification:'Chandas, Normal';font-variant-ligatures:normal;font-variant-caps:normal;font-variant-numeric:normal;font-feature-settings:normal;text-align:start;letter-spacing:0px;word-spacing:0px;writing-mode:lr-tb;text-anchor:start;fill:#000000;fill-opacity:1;stroke:none;stroke-width:0.17301621"
       x="62.355423"
       y="88.245346"
       id="text840-3-0"><tspan
         sodipodi:role="line"
         id="tspan838-6-9"
         x="62.355423"
         y="88.245346"
         style="font-size:4.61376572px;stroke-width:0.17301621">single</tspan></text>
    <text
       xml:space="preserve"
       style="font-style:normal;font-variant:normal;font-weight:normal;font-stretch:normal;font-size:2.99894786px;line-height:1.25;font-family:Chandas;-inkscape-font-specification:'Chandas, Normal';font-variant-ligatures:normal;font-variant-caps:normal;font-variant-numeric:normal;font-feature-settings:normal;text-align:start;letter-spacing:0px;word-spacing:0px;writing-mode:lr-tb;text-anchor:start;fill:#000000;fill-opacity:1;stroke:none;stroke-width:0.17301621"
       x="93.251183"
       y="93.682999"
       id="text840-3-3"><tspan
         sodipodi:role="line"
         id="tspan838-6-6"
         x="93.251183"
         y="93.682999"
         style="font-size:4.61376572px;stroke-width:0.17301621">extrude</tspan></text>
    <text
       xml:space="preserve"
       style="font-style:normal;font-variant:normal;font-weight:normal;font-stretch:normal;font-size:2.99894786px;line-height:1.25;font-family:Chandas;-inkscape-font-specification:'Chandas, Normal';font-variant-ligatures:normal;font-variant-caps:normal;font-variant-numeric:normal;font-feature-settings:normal;text-align:start;letter-spacing:0px;word-spacing:0px;writing-mode:lr-tb;text-anchor:start;fill:#000000;fill-opacity:1;stroke:none;stroke-width:0.17301621"
       x="47.772629"
       y="140.1503"
       id="text840-3-06"><tspan
         sodipodi:role="line"
         id="tspan838-6-2"
         x="47.772629"
         y="140.1503"
         style="font-size:4.61376572px;stroke-width:0.17301621">outset</tspan></text>
    <text
       xml:space="preserve"
       style="font-style:normal;font-variant:normal;font-weight:normal;font-stretch:normal;font-size:2.99894786px;line-height:1.25;font-family:Chandas;-inkscape-font-specification:'Chandas, Normal';font-variant-ligatures:normal;font-variant-caps:normal;font-variant-numeric:normal;font-feature-settings:normal;text-align:start;letter-spacing:0px;word-spacing:0px;writing-mode:lr-tb;text-anchor:start;fill:#000000;fill-opacity:1;stroke:none;stroke-width:0.17301621"
       x="76.900574"
       y="148.87642"
       id="text840-3-06-6"><tspan
         sodipodi:role="line"
         id="tspan838-6-2-1"
         x="76.900574"
         y="148.87642"
         style="font-size:4.61376572px;stroke-width:0.17301621">cluster</tspan></text>
    <text
       xml:space="preserve"
       style="font-style:normal;font-variant:normal;font-weight:normal;font-stretch:normal;font-size:2.99894786px;line-height:1.25;font-family:Chandas;-inkscape-font-specification:'Chandas, Normal';font-variant-ligatures:normal;font-variant-caps:normal;font-variant-numeric:normal;font-feature-settings:normal;text-align:start;letter-spacing:0px;word-spacing:0px;writing-mode:lr-tb;text-anchor:start;fill:#000000;fill-opacity:1;stroke:none;stroke-width:0.17301621"
       x="31.822697"
       y="111.24114"
       id="text840-3-0-8"><tspan
         sodipodi:role="line"
         id="tspan838-6-9-7"
         x="31.822697"
         y="111.24114"
         style="font-size:4.61376572px;stroke-width:0.17301621">remove</tspan></text>
    <text
       xml:space="preserve"
       style="font-style:normal;font-variant:normal;font-weight:normal;font-stretch:normal;font-size:2.99894786px;line-height:1.25;font-family:Chandas;-inkscape-font-specification:'Chandas, Normal';font-variant-ligatures:normal;font-variant-caps:normal;font-variant-numeric:normal;font-feature-settings:normal;text-align:start;letter-spacing:0px;word-spacing:0px;writing-mode:lr-tb;text-anchor:start;fill:#000000;fill-opacity:1;stroke:none;stroke-width:0.17301621"
       x="105.1132"
       y="125.40493"
       id="text840-3-0-8-9"><tspan
         sodipodi:role="line"
         id="tspan838-6-9-7-2"
         x="105.1132"
         y="125.40493"
         style="font-size:4.61376572px;stroke-width:0.17301621">swap</tspan></text>
    <path
       style="opacity:0.44600004;fill:#00007f;fill-opacity:1;stroke:#000000;stroke-width:0.52313566;stroke-linecap:butt;stroke-linejoin:miter;stroke-miterlimit:4;stroke-dasharray:none;stroke-opacity:1"
       d="M 60.377453,112.25518 72.98292,112.44055 71.376341,95.818654 79.84522,109.2677 98.193852,96.807321 84.228966,115.28295 l 11.616809,7.47678 -11.122465,2.22449 -0.658478,17.18271 -9.166383,-17.55345 -12.420085,7.78573 9.3787,-14.21476 z"
       id="path1460"
       inkscape:connector-curvature="0"
       sodipodi:nodetypes="ccccccccccccc" />
    <path
       style="fill:#00007f;fill-opacity:1;stroke-width:0.05944922"
       d="m 75.364274,123.03001 c 0,-0.0255 -0.268796,-0.0785 -0.597324,-0.11775 -3.466622,-0.41456 -6.254641,-1.88261 -6.775027,-3.56743 -0.105542,-0.34169 -0.118254,-0.55368 -0.118254,-1.97095 0,-1.76328 0.02663,-1.94023 0.375217,-2.4925 0.946263,-1.4992 3.097501,-2.48766 6.565487,-3.01672 l 0.193206,-0.0295 v -2.36342 -2.36343 l -0.282383,-0.13667 c -0.782642,-0.37879 -1.614196,-1.06963 -2.175684,-1.80753 -2.468835,-3.24451 -1.331992,-7.896782 2.356668,-9.644103 0.520345,-0.24649 1.335691,-0.503557 1.597137,-0.503557 0.06018,0 0.1094,-0.0267 0.1094,-0.0594 0,-0.0372 0.366605,-0.0594 0.980912,-0.0594 0.614308,0 0.980912,0.0222 0.980912,0.0594 0,0.0327 0.05846,0.0594 0.129955,0.0594 0.244374,0 0.910035,0.1938 1.425318,0.414957 1.773418,0.761167 3.150493,2.362838 3.65677,4.253176 0.142237,0.531067 0.159001,0.698787 0.160324,1.603727 0.0016,0.90792 -0.01437,1.06928 -0.154763,1.58765 -0.472839,1.74619 -1.593113,3.1695 -3.181473,4.04207 l -0.431007,0.23678 v 2.34018 2.34017 l 0.193216,0.0321 c 0.106253,0.0176 0.447352,0.0738 0.757973,0.12475 1.715206,0.2815 3.366253,0.86665 4.458692,1.58023 0.495595,0.32372 1.173032,1.00808 1.380242,1.39436 0.299891,0.55904 0.34379,0.86963 0.34379,2.43238 0,1.87412 -0.09267,2.2395 -0.761919,3.00457 -1.038765,1.18746 -3.490884,2.19571 -6.08961,2.50392 -0.351489,0.0417 -0.639074,0.0968 -0.639074,0.12237 0,0.0256 -1.003212,0.0466 -2.229346,0.0466 -1.226141,0 -2.229345,-0.021 -2.229345,-0.0463 z m 4.666759,-1.34858 c 1.272285,-0.16871 1.968323,-0.31967 2.942735,-0.6382 1.484674,-0.48536 2.560363,-1.19339 2.935338,-1.9321 0.07039,-0.13862 0.09658,-0.35462 0.09658,-0.79583 v -0.60558 l -0.291685,0.27283 c -0.985852,0.92216 -2.85876,1.63863 -5.266819,2.01482 -0.727245,0.11364 -1.079879,0.13042 -2.794112,0.13317 -1.950572,0.004 -2.356101,-0.0242 -3.596688,-0.24218 -1.99166,-0.34997 -3.78905,-1.10979 -4.741071,-2.00418 l -0.193208,-0.18152 2.25e-4,0.50211 c 4.48e-4,0.61797 0.06749,0.8718 0.316857,1.19873 0.894889,1.17328 3.40673,2.08803 6.489755,2.36342 0.856745,0.0765 3.25761,0.0266 4.101992,-0.0855 z m -0.208068,-2.26758 c 3.003356,-0.33421 5.424986,-1.37975 6.036167,-2.60614 0.174319,-0.34977 0.195877,-0.83339 0.04997,-1.12082 -0.518616,-1.02167 -2.362773,-1.94817 -4.758493,-2.39065 -0.440282,-0.0813 -0.838871,-0.14786 -0.885733,-0.14786 -0.06614,0 -0.08522,0.0965 -0.08522,0.43199 v 0.43197 l 0.69185,0.13307 c 0.779807,0.15001 1.744225,0.45605 2.261085,0.71754 0.407832,0.20633 0.877894,0.60478 1.006224,0.85294 0.209547,0.40522 0.06696,0.91215 -0.353139,1.25575 -1.420654,1.16188 -4.993661,1.7197 -8.415758,1.31385 -2.659049,-0.31535 -4.46434,-1.18927 -4.46434,-2.16113 0,-0.81016 1.336,-1.59048 3.390527,-1.98032 l 0.703109,-0.13343 0.01903,-0.43124 c 0.02254,-0.51083 0.08865,-0.48789 -0.890772,-0.309 -3.054819,0.55799 -5.129656,1.82216 -4.985691,3.03771 0.08557,0.72259 0.698814,1.36193 1.86661,1.94611 1.449702,0.7252 3.19703,1.11565 5.723203,1.27887 0.581001,0.0376 2.266948,-0.0275 3.091358,-0.11925 z m -1.806032,-3.05445 c 0.232827,-0.0303 0.533787,-0.0991 0.668805,-0.15323 l 0.245483,-0.0983 v -4.27555 -4.27555 l -0.401274,0.0462 c -0.5181,0.0597 -1.370845,0.0591 -1.842932,-0.001 l -0.371553,-0.0476 v 4.2825 4.28251 l 0.22293,0.0943 c 0.18055,0.0763 0.586896,0.156 0.995773,0.19522 0.03267,0.004 0.249941,-0.019 0.482768,-0.0493 z M 74.700572,99.653823 c 0.198979,-0.10602 0.506856,-0.344917 0.684181,-0.530827 0.797161,-0.835734 0.91802,-1.819738 0.276766,-2.253388 -0.302464,-0.204557 -0.85223,-0.161137 -1.355347,0.10701 -0.457895,0.24404 -0.979532,0.786117 -1.186832,1.233294 -0.208779,0.450377 -0.226979,1.049464 -0.03961,1.305161 0.318475,0.4347 0.962212,0.489797 1.620876,0.13874 z"
       id="path1211"
       inkscape:connector-curvature="0" />
  </g>
</svg>
